<svg width="38" height="36" viewBox="0 0 38 36" fill="none" xmlns="http://www.w3.org/2000/svg">
<g clip-path="url(#clip0_423_3064)">
<path d="M19.2329 31.4605C21.1769 31.4605 22.7529 29.8787 22.7529 27.9274C22.7529 25.9762 21.1769 24.3943 19.2329 24.3943C17.2888 24.3943 15.7129 25.9762 15.7129 27.9274C15.7129 29.8787 17.2888 31.4605 19.2329 31.4605Z" fill="#717071"/>
<path d="M19.2535 22.0497C20.4371 22.0501 21.6066 22.3083 22.6811 22.8064C23.7557 23.3046 24.7097 24.0308 25.4775 24.935L28.7201 21.5625C27.5253 20.2535 26.0739 19.2064 24.457 18.487C22.84 17.7675 21.0923 17.3912 19.3236 17.3817C17.5549 17.3721 15.8033 17.7295 14.1787 18.4315C12.5541 19.1334 11.0916 20.1648 9.88281 21.4608L13.1788 24.7744C13.9436 23.9172 14.88 23.2314 15.9267 22.7619C16.9734 22.2924 18.107 22.0497 19.2535 22.0497Z" fill="#717071"/>
<path d="M26.3207 5.54052C21.8584 4.25136 17.1304 4.20656 12.6446 5.41094C8.1588 6.61531 4.08456 9.02336 0.859375 12.3765L4.55538 16.0916C6.90635 13.6235 9.83749 11.7879 13.0796 10.7534C16.3216 9.71892 19.7707 9.51865 23.11 10.171C23.6123 8.30451 24.743 6.67019 26.31 5.54587L26.3207 5.54052Z" fill="#717071"/>
<path d="M22.8528 11.6003C19.7424 10.9949 16.5303 11.1841 13.5117 12.1504C10.4932 13.1166 7.76503 14.829 5.57812 17.1301L8.86346 20.4384C10.7593 18.4097 13.2039 16.9806 15.8974 16.3264C18.5908 15.6721 21.4159 15.8212 24.0261 16.7554C23.3472 15.6419 22.9381 14.3841 22.8315 13.0831C22.7955 12.5892 22.8027 12.093 22.8528 11.6003Z" fill="#717071"/>
<path d="M35.2833 16.8872C37.7577 14.4037 37.7627 10.3821 35.2946 7.9048C32.8265 5.42751 28.8198 5.4326 26.3455 7.91616C23.8711 10.3997 23.866 14.4213 26.3341 16.8986C28.8023 19.3759 32.8089 19.3708 35.2833 16.8872Z" fill="#E73828"/>
<path d="M27.5254 12.6816H34.4321" stroke="white" stroke-width="2" stroke-linecap="round" stroke-linejoin="round"/>
</g>
<defs>
<clipPath id="clip0_423_3064">
<rect width="38" height="36" fill="white"/>
</clipPath>
</defs>
</svg>
