<svg width="38" height="36" viewBox="0 0 38 36" fill="none" xmlns="http://www.w3.org/2000/svg">
<path d="M5.41026 36H4.07704L3.37163 35.8129C2.58391 35.5861 1.87187 35.1694 1.30522 34.6036C0.738577 34.0378 0.336746 33.3424 0.139072 32.5853C-0.0586028 31.8283 -0.0453456 31.0356 0.177546 30.2848C0.400437 29.5341 0.825322 28.851 1.4106 28.3025C6.34374 23.6208 11.2816 18.9435 16.2241 14.2707C16.3793 14.1237 16.4851 14.0101 16.4005 13.7695C15.8004 12.0854 15.674 10.2822 16.0337 8.53766C16.3226 7.11352 16.9192 5.76131 17.7859 4.5659C18.6527 3.37048 19.7709 2.35765 21.0705 1.59096C22.37 0.824275 23.8228 0.320276 25.3377 0.11059C26.8526 -0.0990958 28.3969 -0.00994217 29.8737 0.372457C30.1216 0.397653 30.3554 0.493731 30.5442 0.647911C30.733 0.802091 30.8678 1.00706 30.9306 1.23556C30.9934 1.46406 30.9812 1.70526 30.8958 1.92706C30.8103 2.14887 30.6556 2.34077 30.4522 2.47723C28.9097 3.93833 27.3625 5.40388 25.8106 6.87388C25.7361 6.92326 25.6811 6.99474 25.6543 7.07701C25.6275 7.15929 25.6303 7.24769 25.6625 7.32825C25.994 8.36393 26.2973 9.41298 26.6289 10.4553C26.6972 10.6021 26.8239 10.7174 26.9816 10.7761C28.0397 11.0834 29.0978 11.3574 30.1771 11.6581C30.2802 11.702 30.3959 11.7121 30.5058 11.6867C30.6157 11.6612 30.7135 11.6018 30.7837 11.5178C32.3215 10.0388 33.871 8.5733 35.4323 7.12111C35.6555 6.90775 35.9401 6.76135 36.2506 6.70015C36.3943 6.67419 36.5421 6.67564 36.6852 6.70441C36.8283 6.73318 36.9639 6.7887 37.0841 6.86772C37.2043 6.94673 37.3067 7.04766 37.3852 7.1646C37.4638 7.28154 37.5169 7.41213 37.5415 7.54875C37.7249 8.21693 37.8519 8.88511 38 9.5533V11.4509C37.9506 11.6915 37.9012 11.932 37.8589 12.1726C37.6064 13.6615 37.0183 15.0814 36.1344 16.3357C35.2505 17.5899 34.0918 18.6491 32.7369 19.441C31.3821 20.233 29.8631 20.7391 28.2832 20.925C26.7033 21.1109 25.0997 20.9721 23.5815 20.5182C23.462 20.4659 23.3274 20.4533 23.1994 20.4824C23.0714 20.5115 22.9575 20.5806 22.8761 20.6786C17.9994 25.3157 13.118 29.9485 8.23188 34.5768C7.64273 35.1676 6.9012 35.6029 6.08039 35.8396L5.41026 36Z" fill="#118BBB"/>
</svg>
