<svg width="38" height="36" viewBox="0 0 38 36" fill="none" xmlns="http://www.w3.org/2000/svg">
<path d="M18.9966 31.4605C20.9406 31.4605 22.5166 29.8787 22.5166 27.9274C22.5166 25.9762 20.9406 24.3943 18.9966 24.3943C17.0525 24.3943 15.4766 25.9762 15.4766 27.9274C15.4766 29.8787 17.0525 31.4605 18.9966 31.4605Z" fill="#118BBB"/>
<path d="M19.0177 9.79093C21.7698 9.79044 24.4933 10.3505 27.0235 11.4372C29.5537 12.5238 31.8378 14.1146 33.7377 16.113L37.375 12.3123C34.9858 9.84554 32.1273 7.88551 28.9692 6.54842C25.8111 5.21134 22.4176 4.52442 18.99 4.52841C15.5624 4.53241 12.1706 5.22723 9.01553 6.57167C5.86051 7.91612 3.0066 9.8828 0.623047 12.3551L4.31905 16.0916C6.21828 14.0996 8.4998 12.5144 11.026 11.4315C13.5522 10.3487 16.2708 9.79057 19.0177 9.79093Z" fill="#118BBB"/>
<path d="M19.0193 15.9203C20.9869 15.9197 22.9333 16.328 24.736 17.1194C26.5387 17.9108 28.1587 19.0682 29.494 20.5187L32.726 17.1622C30.9626 15.2969 28.8398 13.8108 26.4865 12.7943C24.1333 11.7778 21.5987 11.2521 19.0368 11.2491C16.4749 11.2461 13.9392 11.7659 11.5836 12.7769C9.22798 13.7878 7.10172 15.2689 5.33398 17.1301L8.61932 20.4384C9.95302 19.0117 11.564 17.8746 13.3528 17.0975C15.1416 16.3204 17.0702 15.9198 19.0193 15.9203Z" fill="#118BBB"/>
<path d="M19.0191 22.0497C20.2027 22.0501 21.3722 22.3083 22.4467 22.8064C23.5213 23.3046 24.4754 24.0308 25.2431 24.935L28.4911 21.5625C27.2958 20.2534 25.844 19.2062 24.2265 18.4867C22.6091 17.7672 20.861 17.3909 19.0919 17.3813C17.3228 17.3718 15.5708 17.7292 13.9457 18.4312C12.3207 19.1332 10.8577 20.1646 9.64844 21.4608L12.9444 24.7744C13.7093 23.9172 14.6456 23.2314 15.6923 22.7619C16.739 22.2924 17.8726 22.0497 19.0191 22.0497Z" fill="#118BBB"/>
</svg>
