<svg id="圖層_1" data-name="圖層 1" xmlns="http://www.w3.org/2000/svg" viewBox="0 0 104 108"><defs><style>.cls-1{fill:#707071;}.cls-2{fill:#fff;}</style></defs><circle class="cls-1" cx="84.82" cy="79.82" r="16.61"/><path class="cls-2" d="M85.79,80.22l5.64-5.64a.69.69,0,0,0,0-1h0a.68.68,0,0,0-1,0l-5.64,5.65L79.17,73.6a.68.68,0,0,0-1,0h0a.69.69,0,0,0,0,1l5.64,5.64L78.2,85.87a.69.69,0,0,0,1,1l5.65-5.64,5.64,5.64a.69.69,0,0,0,1-1Z"/><polygon class="cls-1" points="32.74 85.26 32.74 95.3 2.58 79.23 2.58 69.44 32.74 85.26"/><polygon class="cls-1" points="6.16 67.23 13.21 65.08 41.28 79.82 34.59 82.37 6.16 67.23"/><polygon class="cls-1" points="45.1 67.79 45.1 77.83 14.94 61.76 14.94 51.97 45.1 67.79"/><polygon class="cls-1" points="18.52 49.76 25.57 47.61 53.64 62.35 46.95 64.9 18.52 49.76"/><polygon class="cls-1" points="57.15 50.46 57.15 60.49 26.99 44.43 26.99 34.63 57.15 50.46"/><polygon class="cls-1" points="30.57 32.42 37.62 30.27 65.69 45.02 59 47.56 30.57 32.42"/><polygon class="cls-1" points="69.33 33.03 69.33 43.07 39.17 27 39.17 17.21 69.33 33.03"/><polygon class="cls-1" points="42.71 14.82 71.11 29.78 90.28 24.14 61.26 9.17 42.71 14.82"/><path class="cls-1" d="M65.47,79.82A19.21,19.21,0,0,1,93.64,62.69l.14-.12V27.45L73.17,33.18V47.61L61.34,50.38V64.9L48.8,68.12V82.37L36.08,85.68V95.3L66.5,87l.3-.27A19.35,19.35,0,0,1,65.47,79.82Z"/></svg>