<svg width="79" height="75" viewBox="0 0 79 75" fill="none" xmlns="http://www.w3.org/2000/svg">
<path d="M9.875 65.625V50H23.0417L36.2083 37.5V27.5C34.2333 26.8229 32.6424 25.6896 31.4354 24.1C30.2285 22.5104 29.625 20.7271 29.625 18.75C29.625 16.1458 30.5851 13.9323 32.5052 12.1094C34.4253 10.2865 36.7569 9.375 39.5 9.375C42.2431 9.375 44.5747 10.2865 46.4948 12.1094C48.4149 13.9323 49.375 16.1458 49.375 18.75C49.375 20.7292 48.7715 22.5135 47.5646 24.1031C46.3576 25.6927 44.7667 26.825 42.7917 27.5V37.5L55.9583 50H69.125V65.625H52.6667V56.0938L39.5 43.5938L26.3333 56.0938V65.625H9.875Z" fill="#118BBB"/>
</svg>
