<svg width="60" height="56" viewBox="0 0 60 56" fill="none" xmlns="http://www.w3.org/2000/svg">
<path d="M7.57867 15.8965C7.68814 15.68 7.77236 15.4802 7.86499 15.297C9.5492 11.9661 11.2334 8.63525 12.9176 5.30439C13.0059 5.0674 13.1711 4.86607 13.3876 4.73195C13.604 4.59783 13.8592 4.5385 14.1134 4.56328C24.7352 4.56328 35.3513 4.56328 45.9618 4.56328C46.2063 4.53757 46.4526 4.59213 46.6626 4.71855C46.8726 4.84496 47.0347 5.0362 47.1239 5.26276C48.8081 8.59361 50.4924 11.9744 52.1766 15.3303C52.2608 15.4885 52.3281 15.6467 52.4376 15.8715L7.57867 15.8965Z" fill="#118BBB"/>
<path d="M53.6334 18.1781H6.36604C6.36604 18.3863 6.36604 20.2266 6.36604 20.4015C6.36604 29.6002 6.36604 38.7961 6.36604 47.9893C6.32292 48.4508 6.3834 48.9161 6.54318 49.3518C6.70296 49.7876 6.95809 50.1831 7.29033 50.51C7.62258 50.837 8.02375 51.0873 8.46518 51.2432C8.90661 51.3991 9.3774 51.4566 9.84393 51.4118H50.1808C50.5397 51.4234 50.8987 51.3926 51.2503 51.3202C51.9491 51.1593 52.5703 50.7649 53.0091 50.2036C53.4479 49.6423 53.6773 48.9484 53.6587 48.2391C53.6587 38.9072 53.6587 29.5724 53.6587 20.2349C53.6587 20.11 53.6418 18.3197 53.6334 18.1781ZM36.9008 37.5887L30.5934 42.8098C30.4387 42.9407 30.2412 43.0117 30.0376 43.0097C29.8319 43.0093 29.6326 42.9387 29.4734 42.8098L23.166 37.5887C22.9896 37.4418 22.8794 37.2317 22.8596 37.0045C22.8399 36.7772 22.9123 36.5516 23.0608 36.3771C23.2093 36.2026 23.4218 36.0937 23.6516 36.0741C23.8814 36.0546 24.1096 36.1262 24.286 36.273L29.1618 40.3034L29.1029 26.1889C29.1029 25.968 29.1916 25.7562 29.3495 25.6C29.5075 25.4439 29.7216 25.3561 29.945 25.3561C30.1683 25.3561 30.3825 25.4439 30.5404 25.6C30.6984 25.7562 30.7871 25.968 30.7871 26.1889L30.8545 40.345L35.7303 36.3063C35.8163 36.2296 35.9174 36.1713 36.0273 36.135C36.1372 36.0987 36.2535 36.0852 36.3689 36.0953C36.4843 36.1055 36.5963 36.1391 36.698 36.194C36.7996 36.2489 36.8887 36.324 36.9597 36.4146C37.109 36.5782 37.1866 36.7936 37.1756 37.0137C37.1645 37.2338 37.0657 37.4405 36.9008 37.5887Z" fill="#118BBB"/>
</svg>
