<svg width="79" height="75" viewBox="0 0 79 75" fill="none" xmlns="http://www.w3.org/2000/svg">
<path d="M42.8098 6.98141H13.6602C12.4642 6.98436 11.3181 7.46352 10.4724 8.31412C9.62677 9.16472 9.15039 10.3175 9.14746 11.5204V68.0297H47.3225V11.5204C47.3195 10.3175 46.8432 9.16472 45.9975 8.31412C45.1518 7.46352 44.0057 6.98436 42.8098 6.98141ZM25.4242 54.9368H16.9754C16.7137 54.9368 16.4627 54.8322 16.2776 54.6461C16.0926 54.4599 15.9886 54.2075 15.9886 53.9442C15.9886 53.681 16.0926 53.4285 16.2776 53.2424C16.4627 53.0562 16.7137 52.9517 16.9754 52.9517H25.4242C25.686 52.9517 25.9369 53.0562 26.122 53.2424C26.3071 53.4285 26.411 53.681 26.411 53.9442C26.411 54.2075 26.3071 54.4599 26.122 54.6461C25.9369 54.8322 25.686 54.9368 25.4242 54.9368ZM25.4242 43.6171H16.9754C16.7303 43.591 16.5035 43.4746 16.3386 43.2903C16.1738 43.106 16.0825 42.8669 16.0825 42.619C16.0825 42.3711 16.1738 42.1319 16.3386 41.9476C16.5035 41.7633 16.7303 41.6469 16.9754 41.6208H25.4242C25.6693 41.6469 25.8962 41.7633 26.061 41.9476C26.2259 42.1319 26.3171 42.3711 26.3171 42.619C26.3171 42.8669 26.2259 43.106 26.061 43.2903C25.8962 43.4746 25.6693 43.591 25.4242 43.6171ZM25.4242 32.2862H16.9754C16.7303 32.2602 16.5035 32.1437 16.3386 31.9594C16.1738 31.7752 16.0825 31.536 16.0825 31.2881C16.0825 31.0402 16.1738 30.8011 16.3386 30.6168C16.5035 30.4325 16.7303 30.3161 16.9754 30.29H25.4242C25.6693 30.3161 25.8962 30.4325 26.061 30.6168C26.2259 30.8011 26.3171 31.0402 26.3171 31.2881C26.3171 31.536 26.2259 31.7752 26.061 31.9594C25.8962 32.1437 25.6693 32.2602 25.4242 32.2862ZM25.4242 20.9554H16.9754C16.7137 20.9554 16.4627 20.8508 16.2776 20.6647C16.0926 20.4785 15.9886 20.2261 15.9886 19.9628C15.9886 19.6996 16.0926 19.4471 16.2776 19.261C16.4627 19.0748 16.7137 18.9703 16.9754 18.9703H25.4242C25.686 18.9703 25.9369 19.0748 26.122 19.261C26.3071 19.4471 26.411 19.6996 26.411 19.9628C26.411 20.2261 26.3071 20.4785 26.122 20.6647C25.9369 20.8508 25.686 20.9554 25.4242 20.9554ZM39.5056 54.9368H31.0457C30.784 54.9368 30.533 54.8322 30.3479 54.6461C30.1629 54.4599 30.0589 54.2075 30.0589 53.9442C30.0589 53.681 30.1629 53.4285 30.3479 53.2424C30.533 53.0562 30.784 52.9517 31.0457 52.9517H39.4945C39.7563 52.9517 40.0073 53.0562 40.1923 53.2424C40.3774 53.4285 40.4814 53.681 40.4814 53.9442C40.4814 54.2075 40.3774 54.4599 40.1923 54.6461C40.0073 54.8322 39.7563 54.9368 39.4945 54.9368H39.5056ZM39.5056 43.6171H31.0457C30.8006 43.591 30.5738 43.4746 30.4089 43.2903C30.2441 43.106 30.1529 42.8669 30.1529 42.619C30.1529 42.3711 30.2441 42.1319 30.4089 41.9476C30.5738 41.7633 30.8006 41.6469 31.0457 41.6208H39.4945C39.7396 41.6469 39.9665 41.7633 40.1313 41.9476C40.2962 42.1319 40.3874 42.3711 40.3874 42.619C40.3874 42.8669 40.2962 43.106 40.1313 43.2903C39.9665 43.4746 39.7396 43.591 39.4945 43.6171H39.5056ZM39.5056 32.2862H31.0457C30.8006 32.2602 30.5738 32.1437 30.4089 31.9594C30.2441 31.7752 30.1529 31.536 30.1529 31.2881C30.1529 31.0402 30.2441 30.8011 30.4089 30.6168C30.5738 30.4325 30.8006 30.3161 31.0457 30.29H39.4945C39.7396 30.3161 39.9665 30.4325 40.1313 30.6168C40.2962 30.8011 40.3874 31.0402 40.3874 31.2881C40.3874 31.536 40.2962 31.7752 40.1313 31.9594C39.9665 32.1437 39.7396 32.2602 39.4945 32.2862H39.5056ZM39.5056 20.9554H31.0457C30.7825 20.9554 30.5301 20.8502 30.344 20.663C30.1579 20.4759 30.0534 20.222 30.0534 19.9573C30.0534 19.6925 30.1579 19.4386 30.344 19.2515C30.5301 19.0643 30.7825 18.9591 31.0457 18.9591H39.4945C39.7563 18.9591 40.0073 19.0637 40.1923 19.2498C40.3774 19.436 40.4814 19.6884 40.4814 19.9517C40.4814 20.2149 40.3774 20.4674 40.1923 20.6535C40.0073 20.8397 39.7563 20.9442 39.4945 20.9442L39.5056 20.9554Z" fill="#118BBB"/>
<path d="M65.34 20.9108H49.2961V68.0297H69.8527V25.4498C69.8498 24.2469 69.3734 23.0941 68.5277 22.2435C67.6821 21.3929 66.536 20.9137 65.34 20.9108ZM56.3922 54.8922C56.1305 54.8922 55.8795 54.7876 55.6945 54.6015C55.5094 54.4153 55.4054 54.1629 55.4054 53.8996C55.4054 53.6364 55.5094 53.3839 55.6945 53.1978C55.8795 53.0116 56.1305 52.9071 56.3922 52.9071H62.0248C62.2865 52.9071 62.5375 53.0116 62.7226 53.1978C62.9076 53.3839 63.0116 53.6364 63.0116 53.8996C63.0116 54.1629 62.9076 54.4153 62.7226 54.6015C62.5375 54.7876 62.2865 54.8922 62.0248 54.8922H56.3922ZM56.3922 43.8067C56.1305 43.8067 55.8795 43.7021 55.6945 43.516C55.5094 43.3298 55.4054 43.0774 55.4054 42.8141C55.4054 42.5509 55.5094 42.2984 55.6945 42.1123C55.8795 41.9261 56.1305 41.8216 56.3922 41.8216H62.0248C62.2865 41.8216 62.5375 41.9261 62.7226 42.1123C62.9076 42.2984 63.0116 42.5509 63.0116 42.8141C63.0116 43.0774 62.9076 43.3298 62.7226 43.516C62.5375 43.7021 62.2865 43.8067 62.0248 43.8067H56.3922ZM56.3922 32.2416C56.1471 32.2155 55.9203 32.0991 55.7554 31.9148C55.5906 31.7305 55.4994 31.4914 55.4994 31.2435C55.4994 30.9956 55.5906 30.7564 55.7554 30.5722C55.9203 30.3879 56.1471 30.2715 56.3922 30.2454H62.0248C62.1639 30.2305 62.3046 30.2453 62.4377 30.2887C62.5708 30.3321 62.6933 30.4032 62.7973 30.4973C62.9013 30.5915 62.9845 30.7065 63.0414 30.8351C63.0983 30.9636 63.1277 31.1028 63.1277 31.2435C63.1277 31.3842 63.0983 31.5234 63.0414 31.6519C62.9845 31.7805 62.9013 31.8955 62.7973 31.9897C62.6933 32.0838 62.5708 32.1549 62.4377 32.1983C62.3046 32.2417 62.1639 32.2565 62.0248 32.2416H56.3922Z" fill="#118BBB"/>
</svg>
