<svg id="圖層_1" data-name="圖層 1" xmlns="http://www.w3.org/2000/svg" viewBox="0 0 104 108"><defs><style>.cls-1{fill:#707071;}.cls-2{fill:#fff;}</style></defs><circle class="cls-1" cx="72.34" cy="79.57" r="16.86"/><path class="cls-2" d="M73.33,80l5.73-5.73a.69.69,0,0,0,0-1h0a.71.71,0,0,0-1,0L72.34,79l-5.73-5.73a.71.71,0,0,0-1,0h0a.71.71,0,0,0,0,1L71.35,80,65.62,85.7a.7.7,0,0,0,1,1L72.34,81l5.73,5.73a.71.71,0,0,0,1,0,.69.69,0,0,0,0-1Z"/><path class="cls-1" d="M55.3,70.05a19.49,19.49,0,0,1,5.07-5.88l-8.07-7V45.65a10.9,10.9,0,1,0-7.56,0l.06,11.45L30.47,70.65H14.79V89.52H33.66V78.27L48.47,63.8l6.66,6.44Z"/></svg>