<svg width="38" height="36" viewBox="0 0 38 36" fill="none" xmlns="http://www.w3.org/2000/svg">
<path d="M30.288 2.75152V8.56506H27.088V1.75048C27.088 1.53752 27.0037 1.33328 26.8537 1.1827C26.7037 1.03211 26.5002 0.94751 26.288 0.94751H11.3547C11.1425 0.94751 10.939 1.03211 10.789 1.1827C10.639 1.33328 10.5547 1.53752 10.5547 1.75048V15.219C10.5547 15.432 10.639 15.6362 10.789 15.7868C10.939 15.9374 11.1425 16.022 11.3547 16.022H26.288C26.5002 16.022 26.7037 15.9374 26.8537 15.7868C27.0037 15.6362 27.088 15.432 27.088 15.219V10.2941H31.2533C31.4655 10.2941 31.669 10.2095 31.819 10.0589C31.9691 9.90836 32.0533 9.70412 32.0533 9.49115V2.75152C32.052 2.68097 32.0235 2.61368 31.9737 2.56378C31.924 2.51388 31.857 2.48524 31.7867 2.48387H30.5547C30.484 2.48387 30.4161 2.51207 30.3661 2.56226C30.3161 2.61246 30.288 2.68054 30.288 2.75152ZM23.2907 12.5532C22.731 13.1613 22.0523 13.6468 21.297 13.9793C20.5417 14.3119 19.7261 14.4842 18.9014 14.4857C17.9245 14.4818 16.962 14.249 16.0907 13.8058C15.2824 13.3906 14.5869 12.7843 14.064 12.0393C13.2479 10.9064 12.849 9.52431 12.9356 8.12905C13.0222 6.73379 13.5888 5.41201 14.5387 4.38959L14.608 4.31465C15.1605 3.73779 15.8229 3.27842 16.5559 2.96389C17.2889 2.64936 18.0775 2.48612 18.8747 2.48387C19.0347 2.48387 19.1947 2.48387 19.3547 2.48387C20.7792 2.60049 22.1158 3.22281 23.1245 4.23919C24.1332 5.25556 24.748 6.59945 24.8587 8.02974C24.925 8.8517 24.8198 9.67851 24.5498 10.4574C24.2798 11.2362 23.851 11.95 23.2907 12.5532Z" fill="#717071"/>
<path d="M24.0744 8.06186C23.994 7.05993 23.6262 6.10282 23.0155 5.3062C22.4048 4.50959 21.5772 3.90759 20.6329 3.57296C19.6886 3.23833 18.6679 3.1854 17.6943 3.42057C16.7206 3.65574 15.8357 4.16894 15.1464 4.89814C14.5499 5.52818 14.1199 6.29802 13.8957 7.13753C13.6715 7.97704 13.6602 8.85952 13.8627 9.70456C14.0653 10.5496 14.4753 11.3303 15.0554 11.9756C15.6355 12.6209 16.3673 13.1102 17.184 13.3989C18.0008 13.6877 18.8765 13.7667 19.7315 13.6288C20.5864 13.4909 21.3934 13.1405 22.0789 12.6094C22.7644 12.0783 23.3066 11.3835 23.656 10.5883C24.0055 9.79305 24.1512 8.92269 24.0797 8.0565L24.0744 8.06186ZM21.5944 10.4333C21.7016 10.5425 21.7616 10.6896 21.7616 10.8428C21.7616 10.9961 21.7016 11.1432 21.5944 11.2523C21.5409 11.307 21.4769 11.3504 21.4064 11.3798C21.3358 11.4092 21.2601 11.4241 21.1837 11.4236C21.0369 11.4159 20.899 11.3506 20.7997 11.2416L18.9971 9.47509L17.2211 11.2416C17.1679 11.2962 17.1044 11.3395 17.0344 11.3691C16.9643 11.3987 16.8891 11.4139 16.8131 11.4139C16.737 11.4139 16.6618 11.3987 16.5917 11.3691C16.5217 11.3395 16.4582 11.2962 16.4051 11.2416C16.3507 11.1883 16.3075 11.1246 16.2781 11.0543C16.2486 10.9839 16.2334 10.9084 16.2334 10.8321C16.2334 10.7558 16.2486 10.6803 16.2781 10.61C16.3075 10.5396 16.3507 10.4759 16.4051 10.4226L18.1811 8.64L16.4051 6.8574C16.3515 6.80362 16.309 6.73977 16.28 6.66951C16.251 6.59924 16.2361 6.52393 16.2361 6.44788C16.2361 6.37183 16.251 6.29652 16.28 6.22625C16.309 6.15599 16.3515 6.09214 16.4051 6.03836C16.5133 5.92975 16.66 5.86874 16.8131 5.86874C16.8888 5.86874 16.9639 5.88372 17.0339 5.91282C17.1039 5.94193 17.1675 5.98458 17.2211 6.03836L18.9971 7.82096L20.7997 6.04907C20.9109 5.95568 21.0528 5.90735 21.1976 5.91355C21.3424 5.91975 21.4797 5.98003 21.5826 6.08258C21.6854 6.18513 21.7464 6.32253 21.7535 6.46785C21.7606 6.61318 21.7134 6.75592 21.6211 6.8681L19.8451 8.6507L21.5944 10.4333Z" fill="#E73828"/>
<path d="M12.0322 30.3899L8.37891 27.0602V21.3377H15.5682V23.3933C15.5682 23.8362 15.6551 24.2747 15.824 24.6839C15.9929 25.0931 16.2404 25.4649 16.5524 25.778C16.8644 26.0912 17.2348 26.3396 17.6424 26.5091C18.0501 26.6786 18.487 26.7658 18.9282 26.7658C19.7769 26.7658 20.5909 26.4274 21.191 25.8251C21.7911 25.2227 22.1282 24.4057 22.1282 23.5539V21.3377H29.3336V27.0602L25.6749 30.3899H12.0322Z" fill="#717071"/>
<path d="M31.5475 16.916H6.16616C6.02471 16.916 5.88905 16.9724 5.78903 17.0728C5.68901 17.1732 5.63282 17.3093 5.63282 17.4513V27.8953C5.63232 27.9696 5.64724 28.0432 5.67662 28.1114C5.706 28.1796 5.74921 28.2409 5.80349 28.2914L11.4195 33.4037H14.0862V34.5172C14.0862 34.6591 14.1423 34.7953 14.2424 34.8957C14.3424 34.9961 14.478 35.0525 14.6195 35.0525H23.0995C23.2409 35.0525 23.3766 34.9961 23.4766 34.8957C23.5766 34.7953 23.6328 34.6591 23.6328 34.5172V33.4037H26.2995L31.9155 28.2914C31.9707 28.2414 32.0149 28.1803 32.0453 28.1121C32.0756 28.0438 32.0913 27.97 32.0915 27.8953V17.4513C32.0915 17.3801 32.0774 17.3096 32.0499 17.2439C32.0224 17.1783 31.9822 17.1188 31.9315 17.0689C31.8809 17.0191 31.8208 16.9799 31.7549 16.9536C31.6889 16.9274 31.6184 16.9146 31.5475 16.916ZM30.1342 27.4135L25.9848 31.1929H11.7342L7.58482 27.4135V20.5347H16.3635V23.4683C16.3649 24.1303 16.6279 24.7648 17.0949 25.2325C17.5618 25.7002 18.1945 25.9628 18.8542 25.9628C19.512 25.96 20.1419 25.6961 20.6066 25.2287C21.0712 24.7614 21.3328 24.1285 21.3342 23.4683V20.5347H30.1342V27.4135Z" fill="#717071"/>
</svg>
