<svg width="72" height="27" viewBox="0 0 72 27" fill="none" xmlns="http://www.w3.org/2000/svg">
<path d="M14 2L2.79066 11.4707C1.34608 12.6913 1.37743 14.9277 2.85565 16.1073L14 25" stroke="#118BBB" stroke-width="3" stroke-linecap="round"/>
<path d="M35.816 19.28H42.12V20.736H27.944V19.28H34.184V15.744H29.432V14.304H34.184V11.12H28.664V9.664H35.384C34.728 8.96 33.688 8.064 32.808 7.44L34.024 6.592C35.048 7.28 36.36 8.352 37.016 9.104L36.232 9.664H41.32V11.12H35.816V14.304H40.616V15.744H35.816V19.28ZM55.768 12.32V11.12H48.312V12.32H55.768ZM55.768 14.624V13.408H48.312V14.624H55.768ZM55.768 16.944V15.712H48.312V16.944H55.768ZM46.76 9.952H50.824C50.92 9.568 51.016 9.136 51.08 8.72H45.304V7.36H58.552V8.72H52.792C52.664 9.152 52.52 9.568 52.392 9.952H57.384V18.096H46.76V9.952ZM49.672 18.128L50.984 19.12C49.592 19.936 47.448 20.784 45.752 21.248C45.512 20.928 45.064 20.416 44.728 20.112C46.408 19.664 48.568 18.816 49.672 18.128ZM52.968 19.184L54.04 18.208C55.88 18.816 57.928 19.648 59.16 20.256L57.72 21.264C56.632 20.656 54.76 19.808 52.968 19.184Z" fill="#118BBB"/>
</svg>
