<svg width="72" height="27" viewBox="0 0 72 27" fill="none" xmlns="http://www.w3.org/2000/svg">
<path d="M14 2L2.79066 11.4707C1.34608 12.6913 1.37743 14.9277 2.85565 16.1073L14 25" stroke="#118BBB" stroke-width="3" stroke-linecap="round"/>
<path d="M35.032 14.944C35.032 15.6267 34.8667 16.208 34.536 16.688C34.2053 17.1573 33.7307 17.52 33.112 17.776C32.504 18.032 31.784 18.16 30.952 18.16C30.5253 18.16 30.1147 18.1387 29.72 18.096C29.336 18.0533 28.984 17.9947 28.664 17.92C28.344 17.8347 28.0613 17.7333 27.816 17.616V16.24C28.2 16.4107 28.6747 16.5653 29.24 16.704C29.816 16.8427 30.408 16.912 31.016 16.912C31.5813 16.912 32.056 16.8373 32.44 16.688C32.824 16.5387 33.112 16.3253 33.304 16.048C33.496 15.7707 33.592 15.4453 33.592 15.072C33.592 14.6987 33.512 14.384 33.352 14.128C33.192 13.872 32.9147 13.6373 32.52 13.424C32.136 13.2 31.5973 12.9653 30.904 12.72C30.4133 12.5387 29.9813 12.3467 29.608 12.144C29.2453 11.9307 28.9413 11.6907 28.696 11.424C28.4507 11.1573 28.264 10.8533 28.136 10.512C28.0187 10.1707 27.96 9.776 27.96 9.328C27.96 8.72 28.1147 8.20267 28.424 7.776C28.7333 7.33867 29.16 7.00267 29.704 6.768C30.2587 6.53333 30.8933 6.416 31.608 6.416C32.2373 6.416 32.8133 6.47467 33.336 6.592C33.8587 6.70933 34.3333 6.864 34.76 7.056L34.312 8.288C33.9173 8.11733 33.4853 7.97333 33.016 7.856C32.5573 7.73867 32.0773 7.68 31.576 7.68C31.096 7.68 30.696 7.74933 30.376 7.888C30.056 8.02667 29.816 8.224 29.656 8.48C29.496 8.72533 29.416 9.01333 29.416 9.344C29.416 9.728 29.496 10.048 29.656 10.304C29.816 10.56 30.0773 10.7893 30.44 10.992C30.8027 11.1947 31.2933 11.4133 31.912 11.648C32.584 11.8933 33.1493 12.16 33.608 12.448C34.0773 12.7253 34.4293 13.0613 34.664 13.456C34.9093 13.8507 35.032 14.3467 35.032 14.944ZM40.9653 17.008C41.1786 17.008 41.3973 16.992 41.6213 16.96C41.8453 16.9173 42.0266 16.8747 42.1653 16.832V17.904C42.0159 17.9787 41.8026 18.0373 41.5253 18.08C41.2479 18.1333 40.9813 18.16 40.7253 18.16C40.2773 18.16 39.8613 18.0853 39.4773 17.936C39.1039 17.776 38.7999 17.504 38.5653 17.12C38.3306 16.736 38.2133 16.1973 38.2133 15.504V10.512H36.9973V9.84L38.2293 9.28L38.7893 7.456H39.6213V9.424H42.1013V10.512H39.6213V15.472C39.6213 15.9947 39.7439 16.384 39.9893 16.64C40.2453 16.8853 40.5706 17.008 40.9653 17.008ZM48.0905 9.28C49.1358 9.28 49.9092 9.50933 50.4105 9.968C50.9118 10.4267 51.1625 11.1573 51.1625 12.16V18H50.1385L49.8665 16.784H49.8025C49.5572 17.0933 49.3012 17.3547 49.0345 17.568C48.7785 17.7707 48.4798 17.92 48.1385 18.016C47.8078 18.112 47.4025 18.16 46.9225 18.16C46.4105 18.16 45.9465 18.0693 45.5305 17.888C45.1252 17.7067 44.8052 17.4293 44.5705 17.056C44.3358 16.672 44.2185 16.192 44.2185 15.616C44.2185 14.7627 44.5545 14.1067 45.2265 13.648C45.8985 13.1787 46.9332 12.9227 48.3305 12.88L49.7865 12.832V12.32C49.7865 11.6053 49.6318 11.1093 49.3225 10.832C49.0132 10.5547 48.5758 10.416 48.0105 10.416C47.5625 10.416 47.1358 10.4853 46.7305 10.624C46.3252 10.752 45.9465 10.9013 45.5945 11.072L45.1625 10.016C45.5358 9.81333 45.9785 9.64267 46.4905 9.504C47.0025 9.35467 47.5358 9.28 48.0905 9.28ZM48.5065 13.856C47.4398 13.8987 46.6985 14.0693 46.2825 14.368C45.8772 14.6667 45.6745 15.088 45.6745 15.632C45.6745 16.112 45.8185 16.464 46.1065 16.688C46.4052 16.912 46.7838 17.024 47.2425 17.024C47.9678 17.024 48.5705 16.8267 49.0505 16.432C49.5305 16.0267 49.7705 15.408 49.7705 14.576V13.808L48.5065 13.856ZM58.7712 9.264C58.9312 9.264 59.1019 9.27467 59.2832 9.296C59.4752 9.30667 59.6406 9.328 59.7792 9.36L59.6032 10.656C59.4646 10.624 59.3099 10.5973 59.1392 10.576C58.9792 10.5547 58.8246 10.544 58.6752 10.544C58.3446 10.544 58.0299 10.6133 57.7312 10.752C57.4326 10.8907 57.1659 11.088 56.9312 11.344C56.6966 11.5893 56.5099 11.888 56.3712 12.24C56.2432 12.592 56.1792 12.9867 56.1792 13.424V18H54.7712V9.424H55.9232L56.0832 10.992H56.1472C56.3286 10.672 56.5472 10.384 56.8032 10.128C57.0592 9.86133 57.3526 9.65333 57.6832 9.504C58.0139 9.344 58.3766 9.264 58.7712 9.264ZM65.2046 17.008C65.418 17.008 65.6366 16.992 65.8606 16.96C66.0846 16.9173 66.266 16.8747 66.4046 16.832V17.904C66.2553 17.9787 66.042 18.0373 65.7646 18.08C65.4873 18.1333 65.2206 18.16 64.9646 18.16C64.5166 18.16 64.1006 18.0853 63.7166 17.936C63.3433 17.776 63.0393 17.504 62.8046 17.12C62.57 16.736 62.4526 16.1973 62.4526 15.504V10.512H61.2366V9.84L62.4686 9.28L63.0286 7.456H63.8606V9.424H66.3406V10.512H63.8606V15.472C63.8606 15.9947 63.9833 16.384 64.2286 16.64C64.4846 16.8853 64.81 17.008 65.2046 17.008Z" fill="#118BBB"/>
</svg>
