<svg width="38" height="35" viewBox="0 0 38 35" fill="none" xmlns="http://www.w3.org/2000/svg">
<path d="M35.9413 17.0342L21.2107 2.65946C21.1733 2.60741 21.1307 2.56057 21.0827 2.51373L20.1067 1.56131C19.4987 0.968006 18.5067 0.968006 17.8987 1.56131L2.05866 17.0186C1.45066 17.6119 1.45066 18.5799 2.05866 19.1732L3.03999 20.1308C3.64799 20.7241 4.63999 20.7241 5.24799 20.1308L18.992 6.71373L32.7573 20.1464C33.3653 20.7398 34.3573 20.7398 34.9653 20.1464L35.9467 19.1888C36.5493 18.5955 36.5493 17.6275 35.9413 17.0342Z" fill="white"/>
<path d="M19.04 8.66541L6.82666 20.3442V31.1539C6.82666 31.997 7.52533 32.6788 8.38933 32.6788H16.5493C16.5493 32.658 16.544 32.6371 16.544 32.6163V26.0327C16.544 25.1948 17.248 24.5078 18.1067 24.5078H19.904C20.7627 24.5078 21.4667 25.1948 21.4667 26.0327V32.6163C21.4667 32.6371 21.4667 32.658 21.4613 32.6788H29.6213C30.4853 32.6788 31.184 31.997 31.184 31.1539V20.3442L19.04 8.66541Z" fill="white"/>
</svg>
