<svg width="107" height="30" viewBox="0 0 107 30" fill="none" xmlns="http://www.w3.org/2000/svg">
<rect width="107" height="30" rx="6" fill="#D9D9D9"/>
<path d="M10.7439 23.1784H10.0807L9.72982 23.0827C9.338 22.9666 8.98382 22.7533 8.70197 22.4637C8.42011 22.1741 8.22024 21.8181 8.12191 21.4306C8.02358 21.0431 8.03018 20.6374 8.14105 20.2531C8.25192 19.8689 8.46326 19.5192 8.75439 19.2385C11.2082 16.8422 13.6643 14.4481 16.1228 12.0563C16.2 11.9811 16.2526 11.923 16.2105 11.7998C15.9121 10.9378 15.8492 10.0149 16.0281 9.12192C16.1718 8.39298 16.4685 7.70086 16.8997 7.08899C17.3308 6.47712 17.887 5.95871 18.5334 5.56628C19.1798 5.17386 19.9025 4.91589 20.656 4.80856C21.4095 4.70123 22.1777 4.74686 22.9123 4.94259C23.0356 4.95549 23.1519 5.00467 23.2458 5.08358C23.3397 5.1625 23.4067 5.26742 23.438 5.38437C23.4692 5.50133 23.4632 5.62478 23.4207 5.73831C23.3781 5.85184 23.3012 5.95007 23.2 6.01992C22.4327 6.76777 21.6632 7.51791 20.8912 8.27033C20.8542 8.2956 20.8268 8.33219 20.8135 8.3743C20.8001 8.41641 20.8016 8.46166 20.8175 8.50289C20.9825 9.033 21.1333 9.56996 21.2982 10.1035C21.3322 10.1786 21.3953 10.2376 21.4737 10.2676C22 10.425 22.5263 10.5652 23.0632 10.7191C23.1145 10.7416 23.172 10.7467 23.2267 10.7337C23.2814 10.7207 23.33 10.6903 23.3649 10.6473C24.1298 9.8903 24.9006 9.14017 25.6772 8.39687C25.7882 8.28766 25.9298 8.21273 26.0842 8.1814C26.1557 8.16812 26.2292 8.16886 26.3004 8.18358C26.3716 8.19831 26.439 8.22673 26.4988 8.26717C26.5586 8.30762 26.6095 8.35928 26.6486 8.41913C26.6877 8.47898 26.7141 8.54583 26.7263 8.61575C26.8175 8.95776 26.8807 9.29977 26.9544 9.64178V10.6131C26.9298 10.7362 26.9053 10.8593 26.8842 10.9824C26.7586 11.7445 26.4661 12.4713 26.0264 13.1133C25.5868 13.7553 25.0104 14.2974 24.3365 14.7028C23.6626 15.1081 22.907 15.3672 22.1211 15.4623C21.3353 15.5575 20.5376 15.4865 19.7825 15.2541C19.723 15.2274 19.6561 15.2209 19.5924 15.2358C19.5287 15.2507 19.4721 15.2861 19.4316 15.3362C17.0058 17.7097 14.5778 20.081 12.1474 22.45C11.8543 22.7524 11.4855 22.9752 11.0772 23.0963L10.7439 23.1784Z" fill="#118BBB"/>
<path d="M42.072 8.624H43.768C43.752 9.232 43.736 10.064 43.656 11.008C43.88 13.008 44.856 19.392 50.44 21.872C50.008 22.208 49.56 22.736 49.352 23.136C45.592 21.36 43.848 17.84 43 14.976C42.2 17.984 40.504 21.216 36.888 23.216C36.632 22.832 36.152 22.352 35.656 22.032C42.2 18.64 42.024 11.184 42.072 8.624ZM63.512 11.696V10.32H56.456V11.696H63.512ZM65.08 9.136V12.88H54.968V9.136H65.08ZM55.752 18.56V19.504H64.152V18.56H55.752ZM55.752 16.64V17.568H64.152V16.64H55.752ZM55.752 14.72V15.632H64.152V14.72H55.752ZM65.704 20.576H62.648C64.248 21.04 66.168 21.728 67.368 22.24L66.056 23.28C64.856 22.736 62.696 21.92 61.016 21.44L62.184 20.576H57.56L58.68 21.328C57.4 22.096 55.352 22.864 53.72 23.264C53.448 22.96 52.968 22.464 52.6 22.192C54.12 21.84 55.992 21.184 57.048 20.576H54.28V13.648H65.704V20.576ZM70.232 18.864L71.4 19.072C71.256 20.448 70.968 21.936 70.648 22.928C70.376 22.784 69.832 22.592 69.544 22.528C69.896 21.568 70.104 20.16 70.232 18.864ZM71.976 19.024L73.032 18.784C73.24 19.856 73.416 21.216 73.48 22.128L72.36 22.416C72.328 21.488 72.152 20.096 71.976 19.024ZM73.736 18.672L74.712 18.368C75.096 19.344 75.48 20.576 75.656 21.392L74.632 21.776C74.472 20.928 74.072 19.648 73.736 18.672ZM73.528 14.912L74.552 14.56C75.048 15.568 75.528 16.896 75.688 17.728L74.616 18.144C74.568 17.936 74.52 17.696 74.44 17.424C70.968 17.968 70.44 18.096 70.136 18.272C70.056 18 69.848 17.36 69.688 17.04C70.056 16.944 70.392 16.544 70.888 15.952C71.128 15.68 71.576 15.072 72.088 14.288C70.584 14.464 70.248 14.544 70.024 14.656C69.944 14.384 69.736 13.76 69.592 13.424C69.864 13.344 70.152 13.024 70.456 12.56C70.792 12.08 71.864 10.304 72.456 8.592L73.72 9.104C73.064 10.528 72.232 12.032 71.384 13.216L72.856 13.104C73.272 12.384 73.704 11.616 74.04 10.88L75.208 11.584C74.232 13.392 72.984 15.216 71.736 16.704L74.12 16.384C73.944 15.888 73.752 15.376 73.528 14.912ZM77.896 18.928V20.8H80.008V18.928H77.896ZM80.008 14.512V12.784H77.896V14.512H80.008ZM80.008 17.6V15.856H77.896V17.6H80.008ZM84.184 20.8V22.176H77.896V23.296H76.552V14.528C76.264 14.912 75.992 15.312 75.688 15.648C75.544 15.28 75.24 14.624 75 14.272C76.216 12.832 77.272 10.48 77.784 8.656L79.192 9.072C78.936 9.84 78.616 10.64 78.248 11.44H80.52C80.328 10.832 79.88 9.888 79.512 9.184L80.76 8.656C81.16 9.36 81.624 10.256 81.832 10.864L80.6 11.44H83.96V12.784H81.352V14.512H83.64V15.856H81.352V17.6H83.672V18.928H81.352V20.8H84.184ZM89.496 8.656L90.872 9.04C90.52 10.08 90.104 11.136 89.64 12.16V23.248H88.232V14.768C87.816 15.424 87.4 16.016 86.952 16.544C86.824 16.176 86.424 15.344 86.2 14.976C87.528 13.424 88.76 11.056 89.496 8.656ZM92.104 13.008V15.424C93.416 15.104 94.616 14.64 95.64 14.016C95.048 13.52 94.568 12.992 94.168 12.448C93.784 12.928 93.384 13.344 92.984 13.712C92.792 13.536 92.408 13.232 92.104 13.008ZM98.248 11.456H94.888L94.872 11.472C95.304 12.112 95.896 12.736 96.664 13.296C97.304 12.768 97.832 12.16 98.248 11.456ZM101.048 11.456H99.8C99.288 12.448 98.616 13.296 97.816 14.016C98.856 14.576 100.104 15.008 101.56 15.264C101.304 15.568 100.92 16.112 100.744 16.48C99.176 16.128 97.848 15.536 96.744 14.832C95.624 15.6 94.312 16.176 92.888 16.608C92.744 16.336 92.376 15.856 92.104 15.552V20.624H90.808V10.512H92.104V12.64C93.256 11.616 94.264 10.128 94.84 8.56L96.2 8.896C96.024 9.36 95.816 9.808 95.576 10.256H101.048V11.456ZM98.488 17.296L99.592 17.744C98.36 19.104 96.248 20.064 94.104 20.64C93.928 20.352 93.624 19.936 93.368 19.68C95.352 19.232 97.432 18.4 98.488 17.296ZM96.968 15.808L98.088 16.272C97.096 17.264 95.496 18.064 94.008 18.544C93.816 18.288 93.48 17.904 93.192 17.68C94.568 17.296 96.136 16.608 96.968 15.808ZM99.832 19.072L101.112 19.6C99.512 21.488 96.6 22.592 93.288 23.184C93.128 22.832 92.808 22.32 92.52 22.016C95.608 21.568 98.44 20.64 99.832 19.072Z" fill="#5F6162"/>
</svg>
