<svg width="464" height="185" viewBox="0 0 464 185" fill="none" xmlns="http://www.w3.org/2000/svg">
<path d="M382.139 40.4507C381.864 40.4507 381.59 40.4507 381.316 40.4756V40.4258H360.96H340.603L336.999 60.8692H350.719H357.355L352.453 88.6504L351.991 91.2416L348.823 109.094L341.863 148.598H362.207L369.179 109.094H382.126C396.146 109.094 408.208 100.697 413.546 88.6504C415.442 84.4147 416.49 79.7056 416.49 74.7598C416.49 69.814 415.442 65.1049 413.546 60.8692C408.22 48.8473 396.159 40.4507 382.139 40.4507ZM382.139 88.6504H372.797L373.345 85.5359L377.586 61.6541L377.723 60.8817H382.151C389.835 60.8817 396.059 67.0982 396.059 74.7722C396.046 82.4339 389.822 88.6504 382.139 88.6504Z" fill="#118BBB"/>
<path d="M315.957 100.187L308.984 40.7751L308.959 40.501H288.828L288.69 40.7751L261.237 100.187H247.367L243.762 120.655H251.77L238.835 148.611H259.304L272.238 120.655H297.883L301.163 148.611H321.632L318.351 120.655L315.957 100.187ZM281.718 100.187L292.844 76.0932L295.488 100.187H281.718Z" fill="#118BBB"/>
<path d="M254.265 60.9569L257.894 40.501H229.455H203.649H175.222L171.618 60.9569H200.044L184.577 148.611H210.397L225.851 60.9569H254.265Z" fill="#118BBB"/>
<path d="M431.507 40.6748C425.645 40.6748 420.868 45.4462 420.868 51.3014C420.868 57.1566 425.645 61.928 431.507 61.928C437.37 61.928 442.147 57.1691 442.147 51.3014C442.147 45.4337 437.37 40.6748 431.507 40.6748ZM431.507 60.1714C426.606 60.1714 422.627 56.1974 422.627 51.3014C422.627 46.4054 426.606 42.4314 431.507 42.4314C436.409 42.4314 440.388 46.4179 440.388 51.3014C440.388 56.1849 436.397 60.1714 431.507 60.1714Z" fill="#118BBB"/>
<path d="M432.455 44.6865C432.418 44.6865 428.464 44.6865 428.464 44.6865H427.117L426.655 47.3151H427.142H427.99L427.366 50.8781L427.304 51.2145L426.892 53.5067L426.132 57.8421H428.751L429.512 53.5067H431.196C432.056 53.5067 432.73 54.2916 432.855 55.0017L433.353 57.8421H434.763H435.96L435.486 55.1263L435.461 54.9643C435.349 54.4286 435.125 53.9303 434.8 53.5067C434.676 53.3448 434.538 53.1953 434.389 53.0582C435.324 52.5973 436.06 51.8249 436.484 50.8781C436.721 50.33 436.858 49.732 436.858 49.0966C436.858 48.4613 436.721 47.8508 436.484 47.3151C435.811 45.7579 434.252 44.6865 432.455 44.6865ZM432.455 50.8781H429.986L430.061 50.4795L430.609 47.4148L430.622 47.3151H432.468C433.453 47.3151 434.252 48.1125 434.252 49.0966C434.239 50.0808 433.441 50.8781 432.455 50.8781Z" fill="#118BBB"/>
<path d="M219.489 148.86H229.767L231.588 138.582H221.298L219.489 148.86Z" fill="#118BBB"/>
<path d="M326.559 148.86H336.849L338.658 138.582H328.38L326.559 148.86Z" fill="#118BBB"/>
<path d="M393.776 148.86H404.054L405.875 138.582H395.585L393.776 148.86Z" fill="#118BBB"/>
<path d="M140.098 31.6553H49.9673C42.5707 31.6553 36.5712 37.6475 36.5712 45.0351V125.102C36.5712 118.213 38.1178 111.66 40.8869 105.817C43.2193 100.896 46.4125 96.4613 50.2916 92.7115C50.329 92.6741 50.3789 92.6243 50.4288 92.5869C50.6034 92.4125 50.778 92.2506 50.9527 92.0886C50.9651 92.0761 50.9901 92.0512 51.0026 92.0388C51.1772 91.8768 51.3393 91.7273 51.514 91.5778C51.5514 91.5405 51.5888 91.5155 51.6262 91.4782C56.129 87.392 61.1307 83.8415 66.5191 80.9263C67.4671 80.4155 68.415 79.9297 69.3879 79.4563C69.9492 79.1822 70.5105 78.9206 71.0843 78.659C71.2464 78.5842 71.4086 78.5095 71.5707 78.4347C76.3604 76.2048 81.2624 74.1866 86.2641 72.3553C86.4886 72.2681 86.7131 72.1933 86.9376 72.1061C94.9204 69.1785 102.629 65.6778 110 61.629C110.362 61.4421 110.711 61.2553 111.061 61.0435C111.248 60.9438 111.447 60.8317 111.634 60.7196C117.921 57.0943 123.446 52.3105 127.924 46.6546C127.849 47.9751 127.712 49.2832 127.5 50.5664C126.827 54.9142 125.48 59.0378 123.571 62.825C121.663 66.6122 119.218 70.0506 116.299 73.0654C115.451 73.9499 114.566 74.7846 113.63 75.5943C113.331 75.8559 113.044 76.1051 112.744 76.3543C109.252 79.3068 105.597 82.06 101.793 84.6263C99.2735 86.3206 96.7041 87.9277 94.0598 89.4475C88.4593 92.6991 82.9836 96.1624 77.6576 99.8125C76.5475 100.585 75.4374 101.357 74.3522 102.142C74.0404 102.354 73.7286 102.578 73.4292 102.802C72.3316 103.6 71.2589 104.422 70.2112 105.294C61.7294 112.283 54.9565 121.29 50.6658 131.568C50.6533 131.58 50.6533 131.605 50.6408 131.618C50.4787 132.016 50.3041 132.415 50.1544 132.826C50.0297 133.137 49.9174 133.436 49.8051 133.748C48.034 138.606 47.0611 143.851 47.0611 149.32C47.0611 149.682 47.0611 150.043 47.0735 150.404C50.4039 135.143 59.372 122 71.7079 113.242C77.7449 109.031 84.0189 105.12 90.48 101.507C90.5424 101.469 90.6047 101.432 90.6671 101.407C103.465 94.2563 114.865 84.8879 124.32 73.8253C123.708 75.6442 123.035 77.4506 122.336 79.2196C121.089 82.359 119.717 85.4236 118.22 88.4384C116.861 91.1792 115.414 93.8452 113.867 96.4613C112.769 98.3176 111.622 100.136 110.424 101.93C95.4318 124.417 73.2172 141.684 47.086 150.429C65.0722 148.423 81.4494 141.123 94.646 130.135C95.4193 129.487 96.1927 128.827 96.9411 128.154C99.7725 125.638 102.454 122.947 104.936 120.082C105.298 119.658 105.672 119.234 106.034 118.798C109.352 114.849 112.333 110.626 114.94 106.141C115.301 105.518 115.651 104.908 115.988 104.272C115.626 106.453 115.177 108.595 114.628 110.713C111.31 123.744 104.737 135.492 95.8185 145.01C95.6439 145.197 95.4692 145.384 95.2946 145.57C94.9578 145.919 94.6335 146.256 94.2968 146.592C87.7359 153.045 78.9174 157.206 69.1385 157.792C68.914 157.804 68.6894 157.817 68.4525 157.829C67.9411 157.854 67.4172 157.866 66.8933 157.866H140.123C147.52 157.866 153.519 151.874 153.519 144.487V45.0351C153.494 37.6475 147.495 31.6553 140.098 31.6553Z" fill="#118BBB"/>
</svg>
