<svg width="107" height="30" viewBox="0 0 107 30" fill="none" xmlns="http://www.w3.org/2000/svg">
<rect width="107" height="30" rx="6" fill="#D9D9D9"/>
<path d="M17.4974 23.0998C18.7764 23.0998 19.8132 22.0892 19.8132 20.8425C19.8132 19.5959 18.7764 18.5853 17.4974 18.5853C16.2185 18.5853 15.1816 19.5959 15.1816 20.8425C15.1816 22.0892 16.2185 23.0998 17.4974 23.0998Z" fill="#118BBB"/>
<path d="M17.5119 9.2553C19.3225 9.25499 21.1143 9.6128 22.7789 10.3071C24.4435 11.0013 25.9462 12.0176 27.1961 13.2944L29.5891 10.8662C28.0172 9.29019 26.1367 8.03795 24.0589 7.1837C21.9812 6.32945 19.7487 5.89059 17.4937 5.89314C15.2387 5.89569 13.0072 6.3396 10.9315 7.19855C8.85586 8.0575 6.97828 9.314 5.41016 10.8935L7.84174 13.2807C9.09123 12.0081 10.5922 10.9953 12.2542 10.3035C13.9162 9.61163 15.7047 9.25507 17.5119 9.2553Z" fill="#118BBB"/>
<path d="M17.5113 13.1713C18.8058 13.171 20.0863 13.4318 21.2723 13.9374C22.4583 14.443 23.5241 15.1825 24.4025 16.1092L26.5289 13.9648C25.3687 12.773 23.9722 11.8236 22.424 11.1742C20.8758 10.5248 19.2083 10.1889 17.5229 10.187C15.8374 10.185 14.1691 10.5171 12.6194 11.163C11.0696 11.8089 9.6708 12.7552 8.50781 13.9443L10.6692 16.0579C11.5467 15.1464 12.6065 14.4199 13.7834 13.9234C14.9602 13.427 16.229 13.171 17.5113 13.1713Z" fill="#118BBB"/>
<path d="M17.5126 17.0873C18.2913 17.0876 19.0606 17.2525 19.7676 17.5708C20.4745 17.889 21.1022 18.353 21.6073 18.9307L23.7441 16.7761C22.9578 15.9397 22.0026 15.2706 20.9385 14.811C19.8744 14.3513 18.7244 14.1108 17.5605 14.1047C16.3966 14.0986 15.2439 14.327 14.1748 14.7755C13.1057 15.224 12.1432 15.883 11.3477 16.7111L13.5161 18.8281C14.0193 18.2804 14.6353 17.8423 15.3239 17.5423C16.0125 17.2424 16.7583 17.0873 17.5126 17.0873Z" fill="#118BBB"/>
<path d="M44.216 21.152H50.168V22.592H35.848V21.152H37.928V13.856H39.464V21.152H42.648V11.136H36.424V9.68H49.672V11.136H44.216V15.056H48.984V16.496H44.216V21.152ZM57.224 14.256V15.568H62.696V14.256H57.224ZM65.784 17.824V21.104C65.784 21.824 65.624 22.224 65.08 22.448C64.52 22.656 63.704 22.672 62.504 22.672C62.424 22.272 62.2 21.696 62.008 21.312C62.856 21.344 63.704 21.344 63.928 21.344C64.184 21.328 64.248 21.28 64.248 21.088V19.168H60.92V23.264H59.384V19.168H55.848V22.544H54.344V17.824H59.384V16.656H55.8V13.168H64.216V16.656H60.92V17.824H65.784ZM64.04 10.928H66.696V14.496H65.224V12.208H54.744V14.496H53.32V10.928H55.688C55.432 10.432 55 9.744 54.6 9.248L55.944 8.72C56.44 9.248 56.952 10 57.208 10.512L56.264 10.928H59.24V8.576H60.776V10.928H63.64L62.68 10.56C63.096 10.048 63.656 9.248 63.928 8.704L65.512 9.216C65.016 9.84 64.488 10.48 64.04 10.928ZM75.912 16.304H78.008V15.248H75.912V16.304ZM75.912 13.2V14.24H78.008V13.2H75.912ZM81.608 13.2H79.448V14.24H81.608V13.2ZM81.608 16.304V15.248H79.448V16.304H81.608ZM78.008 21.28V19.568H73.848V18.352H78.008V17.376H74.536V12.128H78.008V11.104H73.848V9.888H78.008V8.592H79.448V9.888H83.8V11.104H79.448V12.128H83.032V17.376H79.448V18.352H84.008V19.568H79.448V21.28H78.008ZM72.696 11.216L71.352 11.696C71.16 10.992 70.776 9.872 70.52 9.024L71.816 8.64C72.12 9.472 72.504 10.528 72.696 11.216ZM73.064 15.856L73.736 16.112C73.432 17.536 73 19.04 72.44 20.24C72.728 20.4 73.08 20.672 73.592 20.992C74.712 21.664 76.168 21.76 78.04 21.76C79.992 21.76 82.68 21.616 84.456 21.392C84.28 21.792 84.056 22.528 84.024 22.928C82.776 23.008 79.848 23.104 77.976 23.104C75.88 23.104 74.504 22.928 73.352 22.256C72.696 21.888 72.12 21.328 71.784 21.328C71.416 21.328 70.872 22.368 70.424 23.344L69.432 21.968C69.976 21.248 70.536 20.624 71.032 20.304C71.464 19.44 71.832 18.288 72.088 17.2H70.04C70.424 16.256 70.904 14.96 71.304 13.712H69.688V12.368H73.144C72.792 13.504 72.344 14.816 71.944 15.92H72.84L73.064 15.856ZM92.184 18L91.016 18.352C90.984 18.112 90.936 17.84 90.872 17.536C87.832 18 87.32 18.112 87 18.272C86.92 17.984 86.696 17.28 86.536 16.896C86.888 16.8 87.256 16.432 87.752 15.84C87.96 15.6 88.408 15.024 88.904 14.288C87.48 14.464 87.128 14.56 86.888 14.656C86.808 14.368 86.6 13.696 86.44 13.344C86.728 13.28 86.984 12.944 87.304 12.48C87.624 12.016 88.648 10.224 89.224 8.528L90.6 9.088C89.96 10.496 89.16 11.952 88.344 13.12L89.736 13.008C90.168 12.336 90.584 11.6 90.904 10.864L92.184 11.664C91.24 13.392 89.992 15.168 88.744 16.608L90.632 16.384C90.504 15.872 90.36 15.36 90.2 14.928L91.304 14.64C91.688 15.728 92.072 17.152 92.184 18ZM87.192 18.864L88.36 19.072C88.216 20.496 87.928 22.032 87.592 23.04C87.336 22.896 86.776 22.72 86.472 22.64C86.84 21.648 87.064 20.208 87.192 18.864ZM88.808 19.04L89.88 18.848C90.072 19.92 90.232 21.296 90.264 22.224L89.128 22.448C89.112 21.52 88.968 20.112 88.808 19.04ZM90.328 18.736L91.32 18.432C91.624 19.2 91.928 20.176 92.056 20.832L91.016 21.184C90.904 20.512 90.616 19.504 90.328 18.736ZM95.096 17.072L95.96 17.376C95.432 19.808 94.136 21.568 92.504 22.512C92.312 22.208 91.912 21.728 91.656 21.472C92.76 20.88 93.752 19.728 94.296 18.336H92.536V17.12H94.872L95.096 17.072ZM94.488 13.616V14.768H99.032V13.616H94.488ZM94.488 11.408V12.544H99.032V11.408H94.488ZM99.88 16.352L100.984 17.264C100.264 17.888 99.48 18.56 98.808 19.072C99.464 20.08 100.312 20.928 101.288 21.44C100.968 21.696 100.536 22.24 100.312 22.608C99.224 21.904 98.312 20.784 97.624 19.424V21.712C97.624 22.416 97.48 22.816 97.016 23.04C96.552 23.264 95.832 23.28 94.824 23.28C94.776 22.88 94.584 22.288 94.408 21.92C95.08 21.952 95.752 21.952 95.944 21.936C96.152 21.92 96.2 21.872 96.2 21.696V15.936H93.096V10.256H95.464C95.672 9.712 95.864 9.056 95.976 8.56L97.656 8.896C97.432 9.36 97.208 9.84 96.968 10.256H100.488V15.936H97.624V16.496C97.8 17.056 97.992 17.584 98.248 18.08C98.84 17.536 99.464 16.864 99.88 16.352Z" fill="#5F6162"/>
</svg>
