<svg width="111" height="34" viewBox="0 0 111 34" fill="none" xmlns="http://www.w3.org/2000/svg">
<rect x="1" y="1" width="109" height="32" rx="7" fill="#D9D9D9"/>
<rect x="1" y="1" width="109" height="32" rx="7" stroke="#02253C" stroke-width="2"/>
<path d="M19.4974 25.0998C20.7764 25.0998 21.8132 24.0892 21.8132 22.8425C21.8132 21.5959 20.7764 20.5853 19.4974 20.5853C18.2185 20.5853 17.1816 21.5959 17.1816 22.8425C17.1816 24.0892 18.2185 25.0998 19.4974 25.0998Z" fill="#118BBB"/>
<path d="M19.5119 11.2553C21.3225 11.255 23.1143 11.6128 24.7789 12.3071C26.4435 13.0013 27.9462 14.0176 29.1961 15.2944L31.5891 12.8662C30.0172 11.2902 28.1367 10.0379 26.0589 9.1837C23.9812 8.32945 21.7487 7.89059 19.4937 7.89314C17.2387 7.89569 15.0072 8.3396 12.9315 9.19855C10.8559 10.0575 8.97828 11.314 7.41016 12.8935L9.84174 15.2807C11.0912 14.0081 12.5922 12.9953 14.2542 12.3035C15.9162 11.6116 17.7047 11.2551 19.5119 11.2553Z" fill="#118BBB"/>
<path d="M19.5113 15.1713C20.8058 15.171 22.0863 15.4318 23.2723 15.9374C24.4583 16.443 25.5241 17.1825 26.4025 18.1092L28.5289 15.9648C27.3687 14.773 25.9722 13.8236 24.424 13.1742C22.8758 12.5248 21.2083 12.1889 19.5229 12.187C17.8374 12.185 16.1691 12.5171 14.6194 13.163C13.0696 13.8089 11.6708 14.7552 10.5078 15.9443L12.6692 18.0579C13.5467 17.1464 14.6065 16.4199 15.7834 15.9234C16.9602 15.427 18.229 15.171 19.5113 15.1713Z" fill="#118BBB"/>
<path d="M19.5126 19.0873C20.2913 19.0876 21.0606 19.2525 21.7676 19.5708C22.4745 19.889 23.1022 20.353 23.6073 20.9307L25.7441 18.7761C24.9578 17.9397 24.0026 17.2706 22.9385 16.811C21.8744 16.3513 20.7244 16.1108 19.5605 16.1047C18.3966 16.0986 17.2439 16.327 16.1748 16.7755C15.1057 17.224 14.1432 17.883 13.3477 18.7111L15.5161 20.8281C16.0193 20.2804 16.6353 19.8423 17.3239 19.5423C18.0125 19.2424 18.7583 19.0873 19.5126 19.0873Z" fill="#118BBB"/>
<path d="M46.216 23.152H52.168V24.592H37.848V23.152H39.928V15.856H41.464V23.152H44.648V13.136H38.424V11.68H51.672V13.136H46.216V17.056H50.984V18.496H46.216V23.152ZM59.224 16.256V17.568H64.696V16.256H59.224ZM67.784 19.824V23.104C67.784 23.824 67.624 24.224 67.08 24.448C66.52 24.656 65.704 24.672 64.504 24.672C64.424 24.272 64.2 23.696 64.008 23.312C64.856 23.344 65.704 23.344 65.928 23.344C66.184 23.328 66.248 23.28 66.248 23.088V21.168H62.92V25.264H61.384V21.168H57.848V24.544H56.344V19.824H61.384V18.656H57.8V15.168H66.216V18.656H62.92V19.824H67.784ZM66.04 12.928H68.696V16.496H67.224V14.208H56.744V16.496H55.32V12.928H57.688C57.432 12.432 57 11.744 56.6 11.248L57.944 10.72C58.44 11.248 58.952 12 59.208 12.512L58.264 12.928H61.24V10.576H62.776V12.928H65.64L64.68 12.56C65.096 12.048 65.656 11.248 65.928 10.704L67.512 11.216C67.016 11.84 66.488 12.48 66.04 12.928ZM77.912 18.304H80.008V17.248H77.912V18.304ZM77.912 15.2V16.24H80.008V15.2H77.912ZM83.608 15.2H81.448V16.24H83.608V15.2ZM83.608 18.304V17.248H81.448V18.304H83.608ZM80.008 23.28V21.568H75.848V20.352H80.008V19.376H76.536V14.128H80.008V13.104H75.848V11.888H80.008V10.592H81.448V11.888H85.8V13.104H81.448V14.128H85.032V19.376H81.448V20.352H86.008V21.568H81.448V23.28H80.008ZM74.696 13.216L73.352 13.696C73.16 12.992 72.776 11.872 72.52 11.024L73.816 10.64C74.12 11.472 74.504 12.528 74.696 13.216ZM75.064 17.856L75.736 18.112C75.432 19.536 75 21.04 74.44 22.24C74.728 22.4 75.08 22.672 75.592 22.992C76.712 23.664 78.168 23.76 80.04 23.76C81.992 23.76 84.68 23.616 86.456 23.392C86.28 23.792 86.056 24.528 86.024 24.928C84.776 25.008 81.848 25.104 79.976 25.104C77.88 25.104 76.504 24.928 75.352 24.256C74.696 23.888 74.12 23.328 73.784 23.328C73.416 23.328 72.872 24.368 72.424 25.344L71.432 23.968C71.976 23.248 72.536 22.624 73.032 22.304C73.464 21.44 73.832 20.288 74.088 19.2H72.04C72.424 18.256 72.904 16.96 73.304 15.712H71.688V14.368H75.144C74.792 15.504 74.344 16.816 73.944 17.92H74.84L75.064 17.856ZM94.184 20L93.016 20.352C92.984 20.112 92.936 19.84 92.872 19.536C89.832 20 89.32 20.112 89 20.272C88.92 19.984 88.696 19.28 88.536 18.896C88.888 18.8 89.256 18.432 89.752 17.84C89.96 17.6 90.408 17.024 90.904 16.288C89.48 16.464 89.128 16.56 88.888 16.656C88.808 16.368 88.6 15.696 88.44 15.344C88.728 15.28 88.984 14.944 89.304 14.48C89.624 14.016 90.648 12.224 91.224 10.528L92.6 11.088C91.96 12.496 91.16 13.952 90.344 15.12L91.736 15.008C92.168 14.336 92.584 13.6 92.904 12.864L94.184 13.664C93.24 15.392 91.992 17.168 90.744 18.608L92.632 18.384C92.504 17.872 92.36 17.36 92.2 16.928L93.304 16.64C93.688 17.728 94.072 19.152 94.184 20ZM89.192 20.864L90.36 21.072C90.216 22.496 89.928 24.032 89.592 25.04C89.336 24.896 88.776 24.72 88.472 24.64C88.84 23.648 89.064 22.208 89.192 20.864ZM90.808 21.04L91.88 20.848C92.072 21.92 92.232 23.296 92.264 24.224L91.128 24.448C91.112 23.52 90.968 22.112 90.808 21.04ZM92.328 20.736L93.32 20.432C93.624 21.2 93.928 22.176 94.056 22.832L93.016 23.184C92.904 22.512 92.616 21.504 92.328 20.736ZM97.096 19.072L97.96 19.376C97.432 21.808 96.136 23.568 94.504 24.512C94.312 24.208 93.912 23.728 93.656 23.472C94.76 22.88 95.752 21.728 96.296 20.336H94.536V19.12H96.872L97.096 19.072ZM96.488 15.616V16.768H101.032V15.616H96.488ZM96.488 13.408V14.544H101.032V13.408H96.488ZM101.88 18.352L102.984 19.264C102.264 19.888 101.48 20.56 100.808 21.072C101.464 22.08 102.312 22.928 103.288 23.44C102.968 23.696 102.536 24.24 102.312 24.608C101.224 23.904 100.312 22.784 99.624 21.424V23.712C99.624 24.416 99.48 24.816 99.016 25.04C98.552 25.264 97.832 25.28 96.824 25.28C96.776 24.88 96.584 24.288 96.408 23.92C97.08 23.952 97.752 23.952 97.944 23.936C98.152 23.92 98.2 23.872 98.2 23.696V17.936H95.096V12.256H97.464C97.672 11.712 97.864 11.056 97.976 10.56L99.656 10.896C99.432 11.36 99.208 11.84 98.968 12.256H102.488V17.936H99.624V18.496C99.8 19.056 99.992 19.584 100.248 20.08C100.84 19.536 101.464 18.864 101.88 18.352Z" fill="#5F6162"/>
</svg>
