<svg width="65" height="62" viewBox="0 0 65 62" fill="none" xmlns="http://www.w3.org/2000/svg">
<path d="M25.9176 12.5475H12.5892C12.1053 12.5475 11.6412 12.7418 11.299 13.0876C10.9569 13.4334 10.7646 13.9024 10.7646 14.3914V54.8274C10.7646 55.3164 10.9569 55.7854 11.299 56.1312C11.6412 56.477 12.1053 56.6712 12.5892 56.6712H39.3738C39.8577 56.6712 40.3218 56.477 40.6639 56.1312C41.0061 55.7854 41.1983 55.3164 41.1983 54.8274V27.4552C41.1985 26.9894 41.1047 26.5285 40.9227 26.1005C40.7408 25.6725 40.4745 25.2865 40.1401 24.966L28.2804 13.5063C27.6464 12.8881 26.7987 12.5441 25.9176 12.5475Z" fill="#118BBB"/>
<path d="M54.3078 17.5721L42.8769 6.45354C42.1121 5.72777 41.0979 5.33103 40.0489 5.34722H30.6797C29.2517 5.36316 27.885 5.93602 26.865 6.94618C25.845 7.95633 25.2507 9.32566 25.2061 10.7682H27.6236C28.3825 10.7679 29.1119 11.0654 29.658 11.5979L42.4299 23.9518C42.7182 24.2306 42.9476 24.5654 43.1044 24.9362C43.2612 25.307 43.3421 25.706 43.3422 26.1091V49.4525H52.5015C53.3121 49.4476 54.0881 49.1194 54.6604 48.5393C55.2328 47.9591 55.5552 47.174 55.5576 46.3548V20.5407C55.5608 19.9859 55.4515 19.4363 55.2366 18.9257C55.0216 18.4152 54.7055 17.9545 54.3078 17.5721Z" fill="#118BBB"/>
</svg>
