<svg width="81" height="76" viewBox="0 0 81 76" fill="none" xmlns="http://www.w3.org/2000/svg">
<path d="M62.4923 22.4101H10.8229C10.4457 22.4101 10.0722 22.4841 9.72391 22.628C9.37559 22.7718 9.05927 22.9826 8.79309 23.2482C8.52692 23.5139 8.31613 23.8291 8.17283 24.176C8.02953 24.5228 7.95653 24.8943 7.95803 25.2693V42.8199H65.3572V25.2693C65.3587 24.8943 65.2857 24.5228 65.1424 24.176C64.9991 23.8291 64.7883 23.5139 64.5221 23.2482C64.2559 22.9826 63.9396 22.7718 63.5913 22.628C63.243 22.4841 62.8695 22.4101 62.4923 22.4101Z" fill="#118BBB"/>
<path d="M39.5281 50.9454H33.7871V45.2383H7.95803V68.0666H65.3572V45.2383H39.5281V50.9454Z" fill="#118BBB"/>
<path d="M24.374 20.342V13.5613H47.3155V20.342H53.0566V13.5613C53.0386 12.0585 52.4262 10.623 51.3518 9.56556C50.2774 8.5081 48.8274 7.91363 47.3155 7.91077H24.374C22.8523 7.91375 21.3938 8.51599 20.3178 9.58563C19.2418 10.6553 18.636 12.1051 18.633 13.6178V20.3985L24.374 20.342Z" fill="#118BBB"/>
</svg>
