<svg id="圖層_1" data-name="圖層 1" xmlns="http://www.w3.org/2000/svg" viewBox="0 0 104 108"><defs><style>.cls-1{fill:#707071;}.cls-2{fill:#fff;}</style></defs><circle class="cls-1" cx="71.61" cy="79.81" r="16.63"/><path class="cls-2" d="M72.59,80.2l5.65-5.65a.68.68,0,0,0,0-1h0a.69.69,0,0,0-1,0l-5.65,5.65L66,73.58a.68.68,0,0,0-1,0h0a.68.68,0,0,0,0,1l5.65,5.65L65,85.85a.69.69,0,0,0,0,1,.68.68,0,0,0,1,0l5.65-5.65,5.65,5.65a.69.69,0,1,0,1-1Z"/><path class="cls-1" d="M77.22,39.59C71.31,28.7,54,17.1,33.05,26.84S12.88,59,21.34,71.82C27,80.49,37.16,87.76,43.16,91.59a9.33,9.33,0,0,0,10.53-.3c.54-.39,1.09-.84,1.65-1.28a18.76,18.76,0,0,1-3-10.13,19,19,0,0,1,19-18.95,18.72,18.72,0,0,1,8.41,2C80.16,61.18,82.66,49.62,77.22,39.59Zm-29,25A10.75,10.75,0,1,1,59,53.85,10.74,10.74,0,0,1,48.22,64.6Z"/></svg>