<svg width="76" height="72" viewBox="0 0 76 72" fill="none" xmlns="http://www.w3.org/2000/svg">
<path d="M56.7443 14.5966H4.8765C4.49779 14.5966 4.12281 14.6715 3.77307 14.817C3.42334 14.9625 3.10573 15.1756 2.83848 15.4443C2.57122 15.713 2.35958 16.0319 2.2157 16.3827C2.07181 16.7335 1.99852 17.1093 2.00002 17.4885V35.0452H59.6322V17.4885C59.6322 16.7215 59.3279 15.986 58.7864 15.4436C58.2448 14.9013 57.5102 14.5966 56.7443 14.5966Z" fill="#727171"/>
<path d="M18.4713 12.3792V5.77253H41.5059V12.3792H47.2131V5.77253C47.2207 5.01722 47.0786 4.2679 46.7952 3.56791C46.5118 2.86791 46.0926 2.23112 45.5618 1.69436C45.0311 1.15759 44.3994 0.731504 43.7032 0.440726C43.007 0.149949 42.2602 0.000250912 41.5059 0.00028868H18.4713C17.7121 -0.00735156 16.9591 0.136734 16.2563 0.424111C15.5535 0.711488 14.915 1.13638 14.3782 1.67391C13.8414 2.21144 13.4171 2.85081 13.1301 3.55458C12.8432 4.25836 12.6993 5.01239 12.7069 5.77253V12.3792H18.4713Z" fill="#727171"/>
<path d="M55.2033 37.6856H33.6983V43.4007H27.991V37.6856H2.00002V60.7632H44.7134C43.4061 58.4275 42.7221 55.7939 42.7272 53.1164C42.7289 49.5029 43.9686 45.9993 46.2393 43.1909C48.5099 40.3825 51.6741 38.4392 55.2033 37.6856Z" fill="#727171"/>
<path d="M59.3583 39.1487C56.5619 39.1442 53.8271 39.9705 51.5 41.5232C49.1728 43.0758 47.3581 45.2849 46.2853 47.8708C45.2126 50.4568 44.9302 53.3033 45.4738 56.0501C46.0174 58.7968 47.3626 61.3203 49.3391 63.3012C51.3156 65.282 53.8346 66.6311 56.5772 67.1776C59.3197 67.7242 62.1626 67.4437 64.7458 66.3716C67.3291 65.2995 69.5367 63.484 71.0891 61.1549C72.6415 58.8259 73.4689 56.088 73.4667 53.2878C73.4667 49.5399 71.9806 45.9453 69.3351 43.294C66.6896 40.6427 63.1011 39.1517 59.3583 39.1487ZM67.3484 59.0372C67.5537 59.2152 67.6982 59.453 67.7618 59.7174C67.8253 59.9817 67.8046 60.2594 67.7027 60.5114C67.6008 60.7634 67.4227 60.9772 67.1934 61.1228C66.964 61.2683 66.695 61.3384 66.4239 61.3232C66.0786 61.3219 65.7472 61.1867 65.4993 60.946L59.792 55.231L54.0847 60.946C53.9634 61.0673 53.8191 61.1631 53.6604 61.2279C53.5016 61.2926 53.3316 61.325 53.1601 61.3232C52.889 61.3384 52.62 61.2683 52.3907 61.1228C52.1613 60.9772 51.9832 60.7634 51.8813 60.5114C51.7794 60.2594 51.7587 59.9817 51.8223 59.7174C51.8858 59.453 52.0303 59.2152 52.2356 59.0372L57.9428 53.3221L52.2356 47.607C51.9943 47.3594 51.8593 47.0271 51.8593 46.6812C51.8593 46.3352 51.9943 46.003 52.2356 45.7553C52.3566 45.633 52.5006 45.5359 52.6593 45.4696C52.818 45.4033 52.9882 45.3692 53.1601 45.3692C53.3321 45.3692 53.5023 45.4033 53.661 45.4696C53.8197 45.5359 53.9637 45.633 54.0847 45.7553L59.792 51.4704L65.4993 45.7553C65.7509 45.5444 66.0722 45.4355 66.3999 45.45C66.7277 45.4645 67.0382 45.6014 67.2702 45.8337C67.5022 46.066 67.6389 46.3769 67.6534 46.7051C67.6678 47.0334 67.5591 47.3551 67.3484 47.607L61.6412 53.3221L67.3484 59.0372Z" fill="#727171"/>
</svg>
