<svg width="79" height="75" viewBox="0 0 79 75" fill="none" xmlns="http://www.w3.org/2000/svg">
<g clip-path="url(#clip0_803_485)">
<path d="M39.5 6.25C47.357 6.25 54.8923 9.21316 60.448 14.4876C66.0038 19.7621 69.125 26.9158 69.125 34.375C69.125 43.9813 63.6082 51.8438 57.7951 57.4844C54.8902 60.2715 51.7212 62.7989 48.3283 65.0344L46.926 65.9406L46.2677 66.3562L45.0267 67.1063L43.9207 67.7469L42.5514 68.5031C41.6215 69.0056 40.57 69.2698 39.5 69.2698C38.4301 69.2698 37.3785 69.0056 36.4486 68.5031L35.0793 67.7469L33.3676 66.7469L32.7356 66.3562L31.386 65.5031C27.7256 63.151 24.3158 60.4654 21.2049 57.4844C15.3918 51.8406 9.875 43.9813 9.875 34.375C9.875 26.9158 12.9962 19.7621 18.552 14.4876C24.1077 9.21316 31.643 6.25 39.5 6.25ZM39.5 25C38.2032 25 36.9191 25.2425 35.721 25.7136C34.5229 26.1848 33.4343 26.8753 32.5173 27.7459C31.6003 28.6164 30.873 29.6499 30.3767 30.7873C29.8804 31.9248 29.625 33.1439 29.625 34.375C29.625 35.6061 29.8804 36.8252 30.3767 37.9627C30.873 39.1001 31.6003 40.1336 32.5173 41.0041C33.4343 41.8747 34.5229 42.5652 35.721 43.0364C36.9191 43.5075 38.2032 43.75 39.5 43.75C42.119 43.75 44.6308 42.7623 46.4827 41.0041C48.3346 39.246 49.375 36.8614 49.375 34.375C49.375 31.8886 48.3346 29.504 46.4827 27.7459C44.6308 25.9877 42.119 25 39.5 25Z" fill="#118BBB"/>
</g>
<defs>
<clipPath id="clip0_803_485">
<rect width="79" height="75" fill="white"/>
</clipPath>
</defs>
</svg>
