<svg width="79" height="75" viewBox="0 0 79 75" fill="none" xmlns="http://www.w3.org/2000/svg">
<path d="M51.2565 0L34.7405 4.74406L59.4756 17.6617L75.9921 12.9176L51.2565 0ZM31.7323 6.92741V15.3256L57.8451 28.9628V20.5644L31.7323 6.92741ZM79 15.5766L60.8201 20.7985V32.951C57.2942 33.9631 53.7684 34.9764 50.2427 35.9891V48.1416C46.7167 49.1537 43.191 50.167 39.6652 51.1797V63.3324C36.1393 64.3443 32.6137 65.3576 29.0878 66.3703V75L79 60.6635V15.5766ZM30.1017 18.2287L24.1629 19.9347L48.8983 32.8523L54.8374 31.1463L30.1017 18.2287ZM21.1549 22.118V30.5162L47.2677 44.1534V35.755L21.1549 22.118ZM19.5244 33.4193L13.5855 35.1253L38.3209 48.0429L44.26 46.3369L19.5244 33.4193ZM10.5773 37.3086V45.7068L36.6905 59.344V50.9456L10.5773 37.3086ZM8.94683 48.6101L3.00822 50.3161L27.7435 63.2335L33.6826 61.5275L8.94683 48.6101ZM0 52.4992V60.8972L26.113 74.5344V66.1362L0 52.4992Z" fill="#118BBB"/>
</svg>
