<svg width="79" height="75" viewBox="0 0 79 75" fill="none" xmlns="http://www.w3.org/2000/svg">
<path d="M37.5764 5.47584H8.42682C7.83233 5.47583 7.2437 5.59397 6.69475 5.82347C6.14579 6.05298 5.64732 6.38931 5.22799 6.81317C4.80866 7.23702 4.47672 7.74004 4.25124 8.29331C4.02576 8.84659 3.9112 9.43923 3.91412 10.0372V66.5019H42.1335V10.0372C42.138 9.43504 42.023 8.83805 41.7953 8.28115C41.5676 7.72425 41.2317 7.21863 40.8073 6.79388C40.383 6.36913 39.8787 6.03378 39.3239 5.80747C38.7691 5.58115 38.175 5.46841 37.5764 5.47584ZM20.1909 53.4312H11.742C11.4969 53.4051 11.2701 53.2887 11.1053 53.1044C10.9404 52.9201 10.8492 52.681 10.8492 52.4331C10.8492 52.1852 10.9404 51.946 11.1053 51.7617C11.2701 51.5774 11.4969 51.461 11.742 51.4349H20.1909C20.436 51.461 20.6628 51.5774 20.8277 51.7617C20.9925 51.946 21.0837 52.1852 21.0837 52.4331C21.0837 52.681 20.9925 52.9201 20.8277 53.1044C20.6628 53.2887 20.436 53.4051 20.1909 53.4312ZM20.1909 42.1004H11.742C11.4803 42.1004 11.2293 41.9958 11.0443 41.8097C10.8592 41.6235 10.7552 41.3711 10.7552 41.1078C10.7552 40.8446 10.8592 40.5921 11.0443 40.406C11.2293 40.2198 11.4803 40.1152 11.742 40.1152H20.1909C20.4526 40.1152 20.7036 40.2198 20.8887 40.406C21.0737 40.5921 21.1777 40.8446 21.1777 41.1078C21.1777 41.3711 21.0737 41.6235 20.8887 41.8097C20.7036 41.9958 20.4526 42.1004 20.1909 42.1004ZM20.1909 30.7695H11.742C11.4803 30.7695 11.2293 30.6649 11.0443 30.4788C10.8592 30.2927 10.7552 30.0402 10.7552 29.777C10.7552 29.5137 10.8592 29.2612 11.0443 29.0751C11.2293 28.889 11.4803 28.7844 11.742 28.7844H20.1909C20.4526 28.7844 20.7036 28.889 20.8887 29.0751C21.0737 29.2612 21.1777 29.5137 21.1777 29.777C21.1777 30.0402 21.0737 30.2927 20.8887 30.4788C20.7036 30.6649 20.4526 30.7695 20.1909 30.7695ZM20.1909 19.4498H11.742C11.4969 19.4237 11.2701 19.3073 11.1053 19.123C10.9404 18.9387 10.8492 18.6996 10.8492 18.4517C10.8492 18.2038 10.9404 17.9646 11.1053 17.7803C11.2701 17.596 11.4969 17.4796 11.742 17.4535H20.1909C20.436 17.4796 20.6628 17.596 20.8277 17.7803C20.9925 17.9646 21.0837 18.2038 21.0837 18.4517C21.0837 18.6996 20.9925 18.9387 20.8277 19.123C20.6628 19.3073 20.436 19.4237 20.1909 19.4498ZM34.2612 53.3866H25.8235C25.6843 53.4014 25.5436 53.3867 25.4106 53.3432C25.2775 53.2998 25.155 53.2288 25.051 53.1346C24.947 53.0405 24.8638 52.9254 24.8069 52.7969C24.7499 52.6684 24.7205 52.5292 24.7205 52.3885C24.7205 52.2478 24.7499 52.1086 24.8069 51.9801C24.8638 51.8515 24.947 51.7364 25.051 51.6423C25.155 51.5482 25.2775 51.4771 25.4106 51.4337C25.5436 51.3903 25.6843 51.3755 25.8235 51.3903H34.2612C34.4003 51.3755 34.541 51.3903 34.6741 51.4337C34.8072 51.4771 34.9297 51.5482 35.0337 51.6423C35.1377 51.7364 35.2209 51.8515 35.2778 51.9801C35.3347 52.1086 35.3641 52.2478 35.3641 52.3885C35.3641 52.5292 35.3347 52.6684 35.2778 52.7969C35.2209 52.9254 35.1377 53.0405 35.0337 53.1346C34.9297 53.2288 34.8072 53.2998 34.6741 53.3432C34.541 53.3867 34.4003 53.4014 34.2612 53.3866ZM34.2612 42.0558H25.8235C25.5617 42.0558 25.3107 41.9512 25.1257 41.765C24.9406 41.5789 24.8366 41.3264 24.8366 41.0632C24.8366 40.8 24.9406 40.5475 25.1257 40.3614C25.3107 40.1752 25.5617 40.0706 25.8235 40.0706H34.2612C34.5229 40.0706 34.7739 40.1752 34.959 40.3614C35.144 40.5475 35.248 40.8 35.248 41.0632C35.248 41.3264 35.144 41.5789 34.959 41.765C34.7739 41.9512 34.5229 42.0558 34.2612 42.0558ZM34.2612 30.7249H25.8235C25.5617 30.7249 25.3107 30.6203 25.1257 30.4342C24.9406 30.2481 24.8366 29.9956 24.8366 29.7323C24.8366 29.4691 24.9406 29.2166 25.1257 29.0305C25.3107 28.8444 25.5617 28.7398 25.8235 28.7398H34.2612C34.5229 28.7398 34.7739 28.8444 34.959 29.0305C35.144 29.2166 35.248 29.4691 35.248 29.7323C35.248 29.9956 35.144 30.2481 34.959 30.4342C34.7739 30.6203 34.5229 30.7249 34.2612 30.7249ZM34.2612 19.4052H25.8235C25.6843 19.42 25.5436 19.4052 25.4106 19.3618C25.2775 19.3184 25.155 19.2473 25.051 19.1532C24.947 19.0591 24.8638 18.944 24.8069 18.8155C24.7499 18.6869 24.7205 18.5478 24.7205 18.4071C24.7205 18.2663 24.7499 18.1272 24.8069 17.9986C24.8638 17.8701 24.947 17.755 25.051 17.6609C25.155 17.5668 25.2775 17.4957 25.4106 17.4523C25.5436 17.4089 25.6843 17.3941 25.8235 17.4089H34.2612C34.4003 17.3941 34.541 17.4089 34.6741 17.4523C34.8072 17.4957 34.9297 17.5668 35.0337 17.6609C35.1377 17.755 35.2209 17.8701 35.2778 17.9986C35.3347 18.1272 35.3641 18.2663 35.3641 18.4071C35.3641 18.5478 35.3347 18.6869 35.2778 18.8155C35.2209 18.944 35.1377 19.0591 35.0337 19.1532C34.9297 19.2473 34.8072 19.3184 34.6741 19.3618C34.541 19.4052 34.4003 19.42 34.2612 19.4052Z" fill="#727171"/>
<path d="M64.6083 41.1859V23.9331C64.6083 22.7322 64.134 21.5805 63.2898 20.7314C62.4456 19.8822 61.3006 19.4052 60.1067 19.4052H44.0628V66.5019H52.9329C51.0484 64.2628 49.8399 61.5283 49.45 58.6209C49.0601 55.7136 49.5051 52.7547 50.7325 50.0934C51.9598 47.4321 53.9183 45.1794 56.3769 43.6012C58.8355 42.0229 61.6916 41.1848 64.6083 41.1859ZM51.1589 28.7398H56.7915C57.0532 28.7398 57.3042 28.8444 57.4892 29.0305C57.6743 29.2166 57.7783 29.4691 57.7783 29.7323C57.7783 29.9956 57.6743 30.2481 57.4892 30.4342C57.3042 30.6203 57.0532 30.7249 56.7915 30.7249H51.1589C50.8972 30.7249 50.6462 30.6203 50.4611 30.4342C50.276 30.2481 50.1721 29.9956 50.1721 29.7323C50.1721 29.4691 50.276 29.2166 50.4611 29.0305C50.6462 28.8444 50.8972 28.7398 51.1589 28.7398ZM51.1589 40.3048H56.7915C57.0366 40.3309 57.2634 40.4473 57.4282 40.6316C57.5931 40.8159 57.6843 41.0551 57.6843 41.303C57.6843 41.5509 57.5931 41.79 57.4282 41.9743C57.2634 42.1586 57.0366 42.275 56.7915 42.3011H51.1589C50.9138 42.275 50.687 42.1586 50.5221 41.9743C50.3573 41.79 50.266 41.5509 50.266 41.303C50.266 41.0551 50.3573 40.8159 50.5221 40.6316C50.687 40.4473 50.9138 40.3309 51.1589 40.3048Z" fill="#727171"/>
<path d="M64.6083 42.9591C61.997 42.9613 59.4449 43.7422 57.2747 45.203C55.1046 46.6639 53.4137 48.7391 52.4159 51.1664C51.4181 53.5936 51.1582 56.2639 51.669 58.8398C52.1798 61.4156 53.4384 63.7813 55.2856 65.6377C57.1329 67.4942 59.4859 68.7581 62.0472 69.2698C64.6085 69.7814 67.2631 69.5177 69.6755 68.512C72.0878 67.5064 74.1496 65.8039 75.6001 63.6199C77.0507 61.4358 77.8249 58.8682 77.8249 56.2416C77.8249 54.4964 77.4829 52.7683 76.8186 51.1561C76.1543 49.5438 75.1806 48.0791 73.9531 46.8455C72.7257 45.612 71.2687 44.6338 69.6652 43.967C68.0618 43.3001 66.3434 42.9576 64.6083 42.9591ZM72.0703 61.6394C72.1843 61.7534 72.2748 61.889 72.3365 62.0382C72.3982 62.1875 72.43 62.3476 72.43 62.5093C72.43 62.671 72.3982 62.8311 72.3365 62.9804C72.2748 63.1296 72.1843 63.2652 72.0703 63.3792C71.84 63.608 71.5293 63.7363 71.2055 63.7363C70.8817 63.7363 70.571 63.608 70.3406 63.3792L65.0185 57.9926L59.6521 63.3792C59.4217 63.6079 59.111 63.7361 58.7872 63.7361C58.464 63.7338 58.1541 63.6059 57.9224 63.3792C57.8084 63.2652 57.718 63.1296 57.6562 62.9804C57.5945 62.8311 57.5627 62.671 57.5627 62.5093C57.5627 62.3476 57.5945 62.1875 57.6562 62.0382C57.718 61.889 57.8084 61.7534 57.9224 61.6394L63.2889 56.2416L57.9224 50.8439C57.6886 50.6132 57.5555 50.2985 57.5524 49.9691C57.5493 49.6397 57.6764 49.3225 57.9058 49.0874C58.1351 48.8522 58.448 48.7183 58.7755 48.7152C59.103 48.7121 59.4183 48.8399 59.6521 49.0706L65.0185 54.4684L70.385 49.0706C70.5001 48.956 70.6367 48.8656 70.7869 48.8046C70.9372 48.7437 71.0979 48.7134 71.2599 48.7157C71.4218 48.7179 71.5817 48.7526 71.7302 48.8176C71.8787 48.8827 72.0129 48.9768 72.1248 49.0946C72.2367 49.2124 72.3242 49.3514 72.3821 49.5035C72.4401 49.6557 72.4673 49.8179 72.4622 49.9807C72.4572 50.1436 72.4199 50.3038 72.3526 50.452C72.2853 50.6002 72.1894 50.7334 72.0703 50.8439L66.7482 56.2416L72.0703 61.6394Z" fill="#727171"/>
</svg>
