<svg width="64" height="60" viewBox="0 0 64 60" fill="none" xmlns="http://www.w3.org/2000/svg">
<path d="M31.7617 42.745C31.9311 42.2443 32.2103 41.7872 32.5791 41.4067L46.0528 27.4528C46.3864 27.1075 46.7866 26.8324 47.2295 26.6439C47.6724 26.4554 48.1489 26.3573 48.6307 26.3554V8.20817C48.6284 7.12433 48.1945 6.08542 47.4237 5.31819C46.653 4.55097 45.6079 4.11772 44.5168 4.11301H16.4735C15.3815 4.1177 14.3356 4.55066 13.5634 5.31764C12.7912 6.08462 12.3553 7.12351 12.3506 8.20817V55.887H48.6756V44.9933L42.1634 51.6312C41.6714 52.126 41.0486 52.4724 40.3669 52.6305L33.7198 54.0491C33.4658 54.1022 33.207 54.1291 32.9474 54.1294C32.3698 54.1306 31.8004 53.9934 31.2875 53.7296C30.7746 53.4657 30.3333 53.083 30.0011 52.6137C29.6688 52.1445 29.4553 51.6026 29.3787 51.0339C29.3021 50.4653 29.3646 49.8867 29.561 49.3472L31.7617 42.745ZM19.5725 11.0989H27.9531C28.0806 11.1079 28.2051 11.1419 28.3193 11.1989C28.4336 11.2558 28.5354 11.3347 28.6189 11.4309C28.7023 11.527 28.7659 11.6387 28.8058 11.7593C28.8457 11.8799 28.8611 12.0072 28.8514 12.1338C28.8611 12.2604 28.8457 12.3877 28.8058 12.5084C28.7659 12.629 28.7023 12.7406 28.6189 12.8368C28.5354 12.933 28.4336 13.0118 28.3193 13.0688C28.2051 13.1258 28.0806 13.1597 27.9531 13.1688H19.5725C19.445 13.1597 19.3205 13.1258 19.2062 13.0688C19.092 13.0118 18.9902 12.933 18.9067 12.8368C18.8232 12.7406 18.7597 12.629 18.7198 12.5084C18.6799 12.3877 18.6644 12.2604 18.6742 12.1338C18.6644 12.0072 18.6799 11.8799 18.7198 11.7593C18.7597 11.6387 18.8232 11.527 18.9067 11.4309C18.9902 11.3347 19.092 11.2558 19.2062 11.1989C19.3205 11.1419 19.445 11.1079 19.5725 11.0989ZM33.0462 11.0989H41.4358C41.5633 11.1079 41.6878 11.1419 41.802 11.1989C41.9163 11.2558 42.0181 11.3347 42.1015 11.4309C42.185 11.527 42.2485 11.6387 42.2884 11.7593C42.3283 11.8799 42.3438 12.0072 42.334 12.1338C42.3438 12.2604 42.3283 12.3877 42.2884 12.5084C42.2485 12.629 42.185 12.7406 42.1015 12.8368C42.0181 12.933 41.9163 13.0118 41.802 13.0688C41.6878 13.1258 41.5633 13.1597 41.4358 13.1688H33.0731C32.9452 13.1609 32.8201 13.1277 32.7053 13.0711C32.5904 13.0145 32.4882 12.9357 32.4045 12.8393C32.3208 12.7428 32.2573 12.6307 32.2179 12.5096C32.1785 12.3884 32.1638 12.2607 32.1749 12.1338C32.1638 12.007 32.1785 11.8792 32.2179 11.7581C32.2573 11.6369 32.3208 11.5248 32.4045 11.4284C32.4882 11.3319 32.5904 11.2531 32.7053 11.1965C32.8201 11.1399 32.9452 11.1067 33.0731 11.0989H33.0462ZM19.5725 19.4766H27.9531C28.1963 19.5216 28.416 19.6498 28.5741 19.8388C28.7322 20.0278 28.8187 20.2658 28.8187 20.5115C28.8187 20.7572 28.7322 20.9952 28.5741 21.1843C28.416 21.3733 28.1963 21.5014 27.9531 21.5465H19.5725C19.3293 21.5014 19.1096 21.3733 18.9515 21.1843C18.7934 20.9952 18.7069 20.7572 18.7069 20.5115C18.7069 20.2658 18.7934 20.0278 18.9515 19.8388C19.1096 19.6498 19.3293 19.5216 19.5725 19.4766ZM33.0462 19.4766H41.4358C41.679 19.5216 41.8987 19.6498 42.0568 19.8388C42.2148 20.0278 42.3014 20.2658 42.3014 20.5115C42.3014 20.7572 42.2148 20.9952 42.0568 21.1843C41.8987 21.3733 41.679 21.5014 41.4358 21.5465H33.0731C32.8299 21.5014 32.6102 21.3733 32.4521 21.1843C32.294 20.9952 32.2075 20.7572 32.2075 20.5115C32.2075 20.2658 32.294 20.0278 32.4521 19.8388C32.6102 19.6498 32.8299 19.5216 33.0731 19.4766H33.0462ZM19.5725 27.3903H27.9531C28.1963 27.4354 28.416 27.5635 28.5741 27.7525C28.7322 27.9415 28.8187 28.1795 28.8187 28.4253C28.8187 28.671 28.7322 28.909 28.5741 29.098C28.416 29.287 28.1963 29.4152 27.9531 29.4602H19.5725C19.3293 29.4152 19.1096 29.287 18.9515 29.098C18.7934 28.909 18.7069 28.671 18.7069 28.4253C18.7069 28.1795 18.7934 27.9415 18.9515 27.7525C19.1096 27.5635 19.3293 27.4354 19.5725 27.3903ZM19.5725 35.9197H27.9531C28.1963 35.9647 28.416 36.0929 28.5741 36.2819C28.7322 36.4709 28.8187 36.7089 28.8187 36.9546C28.8187 37.2004 28.7322 37.4384 28.5741 37.6274C28.416 37.8164 28.1963 37.9445 27.9531 37.9896H19.5725C19.3293 37.9445 19.1096 37.8164 18.9515 37.6274C18.7934 37.4384 18.7069 37.2004 18.7069 36.9546C18.7069 36.7089 18.7934 36.4709 18.9515 36.2819C19.1096 36.0929 19.3293 35.9647 19.5725 35.9197ZM33.0462 27.3903H41.4358C41.679 27.4354 41.8987 27.5635 42.0568 27.7525C42.2148 27.9415 42.3014 28.1795 42.3014 28.4253C42.3014 28.671 42.2148 28.909 42.0568 29.098C41.8987 29.287 41.679 29.4152 41.4358 29.4602H33.0731C32.8299 29.4152 32.6102 29.287 32.4521 29.098C32.294 28.909 32.2075 28.671 32.2075 28.4253C32.2075 28.1795 32.294 27.9415 32.4521 27.7525C32.6102 27.5635 32.8299 27.4354 33.0731 27.3903H33.0462Z" fill="#118BBB"/>
<path d="M33.7378 43.4052L31.4922 50.0699C31.4038 50.3259 31.3864 50.6008 31.4418 50.8658C31.4972 51.1308 31.6234 51.3761 31.8072 51.5759C31.9909 51.7758 32.2254 51.9228 32.4861 52.0016C32.7468 52.0804 33.024 52.0881 33.2887 52.0238L39.9357 50.6052C40.2276 50.54 40.4953 50.3947 40.7082 50.1859L55.0801 35.545C55.2251 35.398 55.3383 35.2231 55.4128 35.0311C55.4872 34.839 55.5212 34.6339 55.5128 34.4283C55.5044 34.2227 55.4537 34.021 55.3638 33.8356C55.274 33.6501 55.1469 33.485 54.9903 33.3502L49.7266 28.7911C49.4328 28.5351 49.0505 28.4023 48.6602 28.4206C48.2698 28.4389 47.9018 28.6069 47.6337 28.8892L34.0791 42.8253C33.9257 42.9927 33.8094 43.1903 33.7378 43.4052Z" fill="#118BBB"/>
</svg>
