<svg width="33" height="32" viewBox="0 0 33 32" fill="none" xmlns="http://www.w3.org/2000/svg">
<path d="M20.2296 3.1172C18.9282 3.11805 17.6452 3.42505 16.4841 4.01345C15.323 4.60186 14.3162 5.45519 13.5449 6.50467C12.7736 7.55415 12.2594 8.7704 12.0438 10.0554C11.8281 11.3403 11.917 12.6581 12.3033 13.9023L3.2688 22.9606V28.7272H8.97842L8.87257 25.7161H11.6745L11.6246 22.8608L14.5262 22.9107L18.0565 19.4507C18.7733 19.6562 19.5151 19.7611 20.2607 19.7624C22.4652 19.7583 24.5779 18.8775 26.1338 17.3138C27.6897 15.7501 28.5615 13.6315 28.5574 11.4242C28.5533 9.21694 27.6735 7.10169 26.1118 5.54382C24.55 3.98595 22.4341 3.11307 20.2296 3.1172Z" stroke="#02253C" stroke-width="2" stroke-linecap="round" stroke-linejoin="round"/>
<path d="M19.196 8.31055C19.196 8.31055 22.8011 9.33918 23.2432 12.6184" stroke="#02253C" stroke-width="2" stroke-linecap="round" stroke-linejoin="round"/>
</svg>
