<svg width="34" height="33" viewBox="0 0 34 33" fill="none" xmlns="http://www.w3.org/2000/svg">
<path d="M17.3209 29.8431C24.6229 29.8431 30.5424 23.9108 30.5424 16.5929C30.5424 9.27507 24.6229 3.34277 17.3209 3.34277C10.0188 3.34277 4.09937 9.27507 4.09937 16.5929C4.09937 23.9108 10.0188 29.8431 17.3209 29.8431Z" stroke="#02253C" stroke-width="2" stroke-miterlimit="10"/>
<path d="M17.3208 18.3546C20.0666 18.3546 22.2925 16.1239 22.2925 13.3721C22.2925 10.6204 20.0666 8.38965 17.3208 8.38965C14.575 8.38965 12.3491 10.6204 12.3491 13.3721C12.3491 16.1239 14.575 18.3546 17.3208 18.3546Z" stroke="#02253C" stroke-width="2" stroke-miterlimit="10"/>
<path d="M7.23633 25.1634C7.23633 25.1634 10.3476 18.3551 17.3209 18.3551C17.3209 18.3551 23.9348 18.0722 27.4054 25.1634" stroke="#02253C" stroke-width="2" stroke-miterlimit="10"/>
</svg>
