<svg width="125" height="50" viewBox="0 0 125 50" fill="none" xmlns="http://www.w3.org/2000/svg">
<path d="M96.8478 0.0114625C96.7215 0.0114625 96.5953 0.0114628 96.4691 0.022925V0H87.1045H77.7399L76.0815 9.40477H82.3935H85.4461L83.1911 22.1852L82.9788 23.3772L81.5213 31.5899L78.3194 49.7633H87.6783L90.8859 31.5899H96.842C103.292 31.5899 108.84 27.7272 111.296 22.1852C112.169 20.2366 112.651 18.0702 112.651 15.795C112.651 13.5197 112.169 11.3533 111.296 9.40477C108.846 3.87424 103.297 0.0114625 96.8478 0.0114625ZM96.8478 22.1852H92.5499L92.8024 20.7524L94.7534 9.76583L94.8165 9.4105H96.8535C100.388 9.4105 103.252 12.2703 103.252 15.8007C103.246 19.3253 100.382 22.1852 96.8478 22.1852Z" fill="#02253C"/>
<path d="M66.4016 27.492L63.194 0.160265L63.1825 0.0341797H53.9212L53.8581 0.160265L41.2285 27.492H34.8477L33.1894 36.9082H36.8733L30.9229 49.7688H40.3391L46.2895 36.9082H58.0871L59.5962 49.7688H69.0124L67.5033 36.9082L66.4016 27.492ZM50.6505 27.492L55.7689 16.408L56.9854 27.492H50.6505Z" fill="#02253C"/>
<path d="M38.0208 9.44468L39.6905 0.0341797H26.6076H14.7355H1.65831L0 9.44468H13.0772L5.9619 49.7688H17.8398L24.9493 9.44468H38.0208Z" fill="#02253C"/>
<path d="M119.559 0.114258C116.862 0.114258 114.665 2.30928 114.665 5.0029C114.665 7.69653 116.862 9.89155 119.559 9.89155C122.256 9.89155 124.454 7.70226 124.454 5.0029C124.454 2.30354 122.256 0.114258 119.559 0.114258ZM119.559 9.08346C117.304 9.08346 115.474 7.25523 115.474 5.0029C115.474 2.75057 117.304 0.922346 119.559 0.922346C121.814 0.922346 123.645 2.7563 123.645 5.0029C123.645 7.2495 121.809 9.08346 119.559 9.08346Z" fill="#02253C"/>
<path d="M119.995 1.95996C119.978 1.95996 118.159 1.95996 118.159 1.95996H117.539L117.327 3.16923H117.551H117.941L117.654 4.80833L117.626 4.96307L117.436 6.01759L117.086 8.01202H118.291L118.641 6.01759H119.416C119.812 6.01759 120.122 6.37865 120.179 6.70533L120.409 8.01202H121.057H121.608L121.39 6.76264L121.378 6.68813C121.327 6.4417 121.223 6.21245 121.074 6.01759C121.017 5.94309 120.954 5.87432 120.885 5.81127C121.315 5.59922 121.654 5.24389 121.849 4.80833C121.958 4.55616 122.021 4.28106 122.021 3.98878C122.021 3.69649 121.958 3.41567 121.849 3.16923C121.539 2.45284 120.822 1.95996 119.995 1.95996ZM119.995 4.80833H118.859L118.894 4.62493L119.146 3.21508L119.152 3.16923H120.001C120.454 3.16923 120.822 3.53602 120.822 3.98878C120.816 4.44154 120.449 4.80833 119.995 4.80833Z" fill="#02253C"/>
<path d="M22.0232 49.8834H26.7514L27.5892 45.1553H22.8552L22.0232 49.8834Z" fill="#02253C"/>
<path d="M71.2786 49.8834H76.0125L76.8445 45.1553H72.1163L71.2786 49.8834Z" fill="#02253C"/>
<path d="M102.201 49.8834H106.93L107.767 45.1553H103.033L102.201 49.8834Z" fill="#02253C"/>
</svg>
