<svg width="33" height="32" viewBox="0 0 33 32" fill="none" xmlns="http://www.w3.org/2000/svg">
<path d="M19.0716 2.00517C17.7702 2.00601 16.4873 2.31263 15.3262 2.9003C14.165 3.48797 13.1583 4.34025 12.387 5.38842C11.6157 6.4366 11.1015 7.65133 10.8858 8.9347C10.6701 10.2181 10.7591 11.5342 11.1454 12.7769L2.11084 21.7927V27.5521H7.82046L7.71461 24.5448H10.5165L10.4667 21.6869L13.3682 21.7429L16.8674 18.2872C18.0117 18.6131 19.2127 18.689 20.389 18.51C21.5652 18.331 22.6892 17.9012 23.6848 17.2498C24.6804 16.5983 25.5243 15.7404 26.1593 14.7342C26.7942 13.7281 27.2055 12.5971 27.3651 11.4181C27.5247 10.2391 27.4289 9.03951 27.0843 7.90073C26.7397 6.76194 26.1543 5.71056 25.3678 4.81785C24.5812 3.92513 23.6119 3.21196 22.5256 2.72667C21.4393 2.24138 20.2613 1.99532 19.0716 2.00517Z" stroke="#02253C" stroke-width="2" stroke-linecap="round" stroke-linejoin="round"/>
<path d="M18.0566 7.17285C18.0566 7.17285 21.6617 8.20021 22.1038 11.4753" stroke="#02253C" stroke-width="2" stroke-linecap="round" stroke-linejoin="round"/>
<path d="M25.8705 29.955C28.6422 29.955 30.889 27.7081 30.889 24.9365C30.889 22.1648 28.6422 19.918 25.8705 19.918C23.0989 19.918 20.8521 22.1648 20.8521 24.9365C20.8521 27.7081 23.0989 29.955 25.8705 29.955Z" stroke="#02253C" stroke-width="1.5" stroke-linecap="round" stroke-linejoin="round"/>
<path d="M23.5483 24.9551L25.3914 27.3647L28.187 22.8506" stroke="#02253C" stroke-width="1.5" stroke-linecap="round" stroke-linejoin="round"/>
</svg>
