<svg width="107" height="30" viewBox="0 0 107 30" fill="none" xmlns="http://www.w3.org/2000/svg">
<rect x="1" y="1" width="105" height="28" rx="5" fill="#D9D9D9"/>
<rect x="1" y="1" width="105" height="28" rx="5" stroke="#02253C" stroke-width="2"/>
<path d="M19.3254 23.6218C20.6697 23.3229 21.5023 22.0544 21.185 20.7883C20.8678 19.5222 19.5207 18.7381 18.1764 19.0369C16.832 19.3358 15.9994 20.6043 16.3167 21.8704C16.634 23.1365 17.981 23.9206 19.3254 23.6218Z" fill="#5F6162"/>
<path d="M23.2198 9.90197C23.4012 9.6003 23.62 9.31998 23.8716 9.06688L23.9246 9.00978C24.7578 8.18276 25.8986 7.69163 27.1078 7.63937C23.6367 5.94539 19.6776 5.35232 15.8198 5.94841C11.9619 6.54451 8.41158 8.29791 5.69727 10.9476L8.31958 13.4458C10.1997 11.5976 12.5944 10.2854 15.2295 9.65928C17.8647 9.03318 20.6338 9.11852 23.2198 9.90554V9.90197Z" fill="#5F6162"/>
<path d="M18.7671 13.3245C20.3109 13.3244 21.8342 13.6577 23.2197 14.2988C22.8727 13.7356 22.6642 13.1064 22.6096 12.4573C22.5651 11.8983 22.6332 11.3365 22.8105 10.8014C20.4166 10.0876 17.8579 10.0212 15.426 10.6099C12.994 11.1985 10.7864 12.4186 9.05469 14.131L11.3852 16.333C12.3323 15.3834 13.4759 14.6265 14.7455 14.1091C16.0151 13.5917 17.3837 13.3247 18.7671 13.3245Z" fill="#5F6162"/>
<path d="M18.7675 14.2987C17.5189 14.2973 16.2834 14.538 15.1379 15.0059C13.9924 15.4737 12.9615 16.1587 12.1094 17.0181L14.4475 19.2308C14.9994 18.6493 15.6773 18.186 16.4355 17.8721C17.1937 17.5582 18.0145 17.401 18.8426 17.4112C19.6707 17.4213 20.4869 17.5985 21.2362 17.9309C21.9854 18.2632 22.6503 18.743 23.186 19.3378L25.4938 17.0895C24.6405 16.2092 23.6016 15.5062 22.4433 15.0257C21.2851 14.5451 20.0331 14.2975 18.7675 14.2987Z" fill="#5F6162"/>
<path d="M31.2909 11.797C31.2303 11.0892 30.9533 10.413 30.4934 9.85033C30.0334 9.28762 29.4103 8.86241 28.6992 8.62611C27.9882 8.38981 27.2197 8.35254 26.4866 8.51879C25.7535 8.68503 25.0873 9.04769 24.5684 9.56293C24.1194 10.0081 23.7959 10.5519 23.6272 11.1449C23.4585 11.738 23.4501 12.3613 23.6027 12.9582C23.7553 13.5551 24.064 14.1065 24.5008 14.5623C24.9376 15.018 25.4886 15.3636 26.1035 15.5675C26.7184 15.7714 27.3777 15.8272 28.0213 15.7297C28.665 15.6322 29.2725 15.3846 29.7885 15.0095C30.3046 14.6343 30.7127 14.1435 30.9758 13.5818C31.2389 13.0201 31.3485 12.4053 31.2947 11.7934L31.2909 11.797ZM29.4227 13.4743C29.4634 13.5124 29.4957 13.5578 29.5177 13.6077C29.5397 13.6576 29.5511 13.7111 29.5511 13.7652C29.5511 13.8192 29.5397 13.8727 29.5177 13.9226C29.4957 13.9726 29.4634 14.0179 29.4227 14.056C29.34 14.1317 29.2292 14.174 29.1139 14.174C28.9986 14.174 28.8878 14.1317 28.805 14.056L27.4673 12.7962L26.1335 14.0632C26.0502 14.1392 25.9387 14.1814 25.8227 14.1809C25.7337 14.1835 25.6459 14.1604 25.5712 14.1146C25.4966 14.0688 25.4386 14.0026 25.4051 13.9248C25.3717 13.847 25.3644 13.7614 25.3841 13.6796C25.4039 13.5978 25.4499 13.5236 25.5158 13.4672L26.8535 12.2074L25.5158 10.9476C25.4752 10.9098 25.443 10.8648 25.421 10.8151C25.3991 10.7655 25.3878 10.7123 25.3878 10.6585C25.3878 10.6048 25.3991 10.5516 25.421 10.5019C25.443 10.4523 25.4752 10.4073 25.5158 10.3695C25.5563 10.3312 25.6044 10.3008 25.6574 10.28C25.7104 10.2593 25.7672 10.2486 25.8246 10.2486C25.882 10.2486 25.9388 10.2593 25.9918 10.28C26.0448 10.3008 26.093 10.3312 26.1335 10.3695L27.4673 11.6257L28.805 10.3695C28.8455 10.3312 28.8937 10.3008 28.9467 10.28C28.9997 10.2593 29.0565 10.2486 29.1139 10.2486C29.1713 10.2486 29.2281 10.2593 29.2811 10.28C29.3341 10.3008 29.3822 10.3312 29.4227 10.3695C29.4633 10.4073 29.4955 10.4523 29.5174 10.5019C29.5394 10.5516 29.5507 10.6048 29.5507 10.6585C29.5507 10.7123 29.5394 10.7655 29.5174 10.8151C29.4955 10.8648 29.4633 10.9098 29.4227 10.9476L28.085 12.2074L29.4227 13.4743Z" fill="#E73828"/>
<path d="M55.1685 21H48.7845V9.576H55.1685V10.84H50.2245V14.408H54.8805V15.656H50.2245V19.736H55.1685V21ZM62.4431 12.264C62.6031 12.264 62.7738 12.2747 62.9551 12.296C63.1471 12.3067 63.3125 12.328 63.4511 12.36L63.2751 13.656C63.1365 13.624 62.9818 13.5973 62.8111 13.576C62.6511 13.5547 62.4965 13.544 62.3471 13.544C62.0165 13.544 61.7018 13.6133 61.4031 13.752C61.1045 13.8907 60.8378 14.088 60.6031 14.344C60.3685 14.5893 60.1818 14.888 60.0431 15.24C59.9151 15.592 59.8511 15.9867 59.8511 16.424V21H58.4431V12.424H59.5951L59.7551 13.992H59.8191C60.0005 13.672 60.2191 13.384 60.4751 13.128C60.7311 12.8613 61.0245 12.6533 61.3551 12.504C61.6858 12.344 62.0485 12.264 62.4431 12.264ZM70.0125 12.264C70.1725 12.264 70.3432 12.2747 70.5245 12.296C70.7165 12.3067 70.8818 12.328 71.0205 12.36L70.8445 13.656C70.7058 13.624 70.5512 13.5973 70.3805 13.576C70.2205 13.5547 70.0658 13.544 69.9165 13.544C69.5858 13.544 69.2712 13.6133 68.9725 13.752C68.6738 13.8907 68.4072 14.088 68.1725 14.344C67.9378 14.5893 67.7512 14.888 67.6125 15.24C67.4845 15.592 67.4205 15.9867 67.4205 16.424V21H66.0125V12.424H67.1645L67.3245 13.992H67.3885C67.5698 13.672 67.7885 13.384 68.0445 13.128C68.3005 12.8613 68.5938 12.6533 68.9245 12.504C69.2552 12.344 69.6178 12.264 70.0125 12.264ZM80.7254 16.696C80.7254 17.4107 80.6294 18.0453 80.4374 18.6C80.256 19.144 79.9894 19.608 79.6374 19.992C79.296 20.376 78.8747 20.6693 78.3734 20.872C77.8827 21.064 77.3334 21.16 76.7254 21.16C76.16 21.16 75.6374 21.064 75.1574 20.872C74.6774 20.6693 74.2614 20.376 73.9094 19.992C73.5574 19.608 73.28 19.144 73.0774 18.6C72.8854 18.0453 72.7894 17.4107 72.7894 16.696C72.7894 15.7467 72.9494 14.9467 73.2694 14.296C73.5894 13.6347 74.048 13.1333 74.6454 12.792C75.2427 12.44 75.952 12.264 76.7734 12.264C77.552 12.264 78.2347 12.44 78.8214 12.792C79.4187 13.1333 79.8827 13.6347 80.2134 14.296C80.5547 14.9467 80.7254 15.7467 80.7254 16.696ZM74.2454 16.696C74.2454 17.368 74.3307 17.9547 74.5014 18.456C74.6827 18.9467 74.96 19.3253 75.3334 19.592C75.7067 19.8587 76.1814 19.992 76.7574 19.992C77.3334 19.992 77.808 19.8587 78.1814 19.592C78.5547 19.3253 78.8267 18.9467 78.9974 18.456C79.1787 17.9547 79.2694 17.368 79.2694 16.696C79.2694 16.0133 79.1787 15.432 78.9974 14.952C78.816 14.472 78.5387 14.104 78.1654 13.848C77.8027 13.5813 77.328 13.448 76.7414 13.448C75.8667 13.448 75.232 13.736 74.8374 14.312C74.4427 14.888 74.2454 15.6827 74.2454 16.696ZM87.9169 12.264C88.0769 12.264 88.2475 12.2747 88.4289 12.296C88.6209 12.3067 88.7862 12.328 88.9249 12.36L88.7489 13.656C88.6102 13.624 88.4555 13.5973 88.2849 13.576C88.1249 13.5547 87.9702 13.544 87.8209 13.544C87.4902 13.544 87.1755 13.6133 86.8769 13.752C86.5782 13.8907 86.3115 14.088 86.0769 14.344C85.8422 14.5893 85.6555 14.888 85.5169 15.24C85.3889 15.592 85.3249 15.9867 85.3249 16.424V21H83.9169V12.424H85.0689L85.2289 13.992H85.2929C85.4742 13.672 85.6929 13.384 85.9489 13.128C86.2049 12.8613 86.4982 12.6533 86.8289 12.504C87.1595 12.344 87.5222 12.264 87.9169 12.264Z" fill="#5F6162"/>
</svg>
