<svg width="113" height="34" viewBox="0 0 113 34" fill="none" xmlns="http://www.w3.org/2000/svg">
<rect x="1" y="1" width="111" height="32" rx="7" fill="#D9D9D9"/>
<rect x="1" y="1" width="111" height="32" rx="7" stroke="#02253C" stroke-width="2"/>
<path d="M21.3254 25.6218C22.6697 25.3229 23.5023 24.0544 23.185 22.7883C22.8678 21.5222 21.5207 20.7381 20.1764 21.0369C18.832 21.3358 17.9994 22.6043 18.3167 23.8704C18.634 25.1365 19.981 25.9206 21.3254 25.6218Z" fill="#5F6162"/>
<path d="M25.2198 11.902C25.4012 11.6004 25.62 11.32 25.8716 11.0669L25.9246 11.0098C26.7578 10.1828 27.8986 9.69169 29.1078 9.63943C25.6367 7.94546 21.6776 7.35238 17.8198 7.94848C13.9619 8.54457 10.4116 10.298 7.69727 12.9477L10.3196 15.4458C12.1997 13.5977 14.5944 12.2854 17.2295 11.6593C19.8647 11.0332 22.6338 11.1186 25.2198 11.9056V11.902Z" fill="#5F6162"/>
<path d="M20.7671 15.3244C22.3109 15.3243 23.8342 15.6576 25.2197 16.2987C24.8727 15.7356 24.6642 15.1063 24.6096 14.4572C24.5651 13.8983 24.6332 13.3364 24.8105 12.8013C22.4166 12.0875 19.8579 12.0211 17.426 12.6098C14.994 13.1985 12.7864 14.4185 11.0547 16.131L13.3852 18.3329C14.3323 17.3833 15.4759 16.6265 16.7455 16.109C18.0151 15.5916 19.3837 15.3246 20.7671 15.3244Z" fill="#5F6162"/>
<path d="M20.7675 16.2987C19.5189 16.2973 18.2834 16.538 17.1379 17.0059C15.9924 17.4737 14.9615 18.1587 14.1094 19.0181L16.4475 21.2308C16.9994 20.6493 17.6773 20.186 18.4355 19.8721C19.1937 19.5582 20.0145 19.401 20.8426 19.4112C21.6707 19.4213 22.4869 19.5985 23.2362 19.9309C23.9854 20.2632 24.6503 20.743 25.186 21.3378L27.4938 19.0895C26.6405 18.2092 25.6016 17.5062 24.4433 17.0257C23.2851 16.5451 22.0331 16.2975 20.7675 16.2987Z" fill="#5F6162"/>
<path d="M33.2909 13.797C33.2303 13.0892 32.9533 12.4131 32.4934 11.8504C32.0334 11.2877 31.4103 10.8625 30.6992 10.6262C29.9882 10.3899 29.2197 10.3526 28.4866 10.5188C27.7535 10.6851 27.0873 11.0478 26.5684 11.563C26.1194 12.0081 25.7959 12.552 25.6272 13.145C25.4585 13.738 25.4501 14.3614 25.6027 14.9583C25.7553 15.5552 26.064 16.1066 26.5008 16.5624C26.9376 17.0181 27.4886 17.3637 28.1035 17.5676C28.7184 17.7715 29.3777 17.8272 30.0213 17.7298C30.665 17.6323 31.2725 17.3847 31.7885 17.0095C32.3046 16.6344 32.7127 16.1436 32.9758 15.5818C33.2389 15.0201 33.3485 14.4053 33.2947 13.7935L33.2909 13.797ZM31.4227 15.4744C31.4634 15.5125 31.4957 15.5578 31.5177 15.6077C31.5397 15.6576 31.5511 15.7112 31.5511 15.7652C31.5511 15.8193 31.5397 15.8728 31.5177 15.9227C31.4957 15.9726 31.4634 16.0179 31.4227 16.0561C31.34 16.1317 31.2292 16.174 31.1139 16.174C30.9986 16.174 30.8878 16.1317 30.805 16.0561L29.4673 14.7963L28.1335 16.0632C28.0502 16.1392 27.9387 16.1815 27.8227 16.181C27.7337 16.1836 27.6459 16.1605 27.5712 16.1147C27.4966 16.0689 27.4386 16.0026 27.4051 15.9248C27.3717 15.8471 27.3644 15.7615 27.3841 15.6797C27.4039 15.5978 27.4499 15.5237 27.5158 15.4672L28.8535 14.2074L27.5158 12.9477C27.4752 12.9098 27.443 12.8648 27.421 12.8152C27.3991 12.7656 27.3878 12.7124 27.3878 12.6586C27.3878 12.6048 27.3991 12.5516 27.421 12.502C27.443 12.4524 27.4752 12.4074 27.5158 12.3695C27.5563 12.3312 27.6044 12.3008 27.6574 12.2801C27.7104 12.2593 27.7672 12.2487 27.8246 12.2487C27.882 12.2487 27.9388 12.2593 27.9918 12.2801C28.0448 12.3008 28.093 12.3312 28.1335 12.3695L29.4673 13.6257L30.805 12.3695C30.8455 12.3312 30.8937 12.3008 30.9467 12.2801C30.9997 12.2593 31.0565 12.2487 31.1139 12.2487C31.1713 12.2487 31.2281 12.2593 31.2811 12.2801C31.3341 12.3008 31.3822 12.3312 31.4227 12.3695C31.4633 12.4074 31.4955 12.4524 31.5174 12.502C31.5394 12.5516 31.5507 12.6048 31.5507 12.6586C31.5507 12.7124 31.5394 12.7656 31.5174 12.8152C31.4955 12.8648 31.4633 12.9098 31.4227 12.9477L30.085 14.2074L31.4227 15.4744Z" fill="#E73828"/>
<path d="M48.52 15.664H46.216V16.816H48.52V15.664ZM52.248 16.816V15.664H49.864V16.816H52.248ZM49.864 19.104H52.248V17.904H49.864V19.104ZM46.216 19.104H48.52V17.904H46.216V19.104ZM46.216 20.224V22.752H44.824V14.544H48.92C48.088 14.144 47.112 13.712 46.296 13.408L47.256 12.608C47.88 12.816 48.616 13.104 49.32 13.424C49.928 13.104 50.552 12.72 51.064 12.336H44.888V11.168H52.456L52.744 11.088L53.64 11.808C52.824 12.592 51.72 13.376 50.584 13.984C51.016 14.176 51.384 14.368 51.688 14.544H53.656V21.376C53.656 22.048 53.528 22.384 53.08 22.576C52.616 22.784 51.944 22.8 50.936 22.8C50.888 22.432 50.712 21.936 50.536 21.6C51.192 21.632 51.816 21.616 51.992 21.616C52.184 21.616 52.248 21.552 52.248 21.36V20.224H49.864V22.688H48.52V20.224H46.216ZM42.792 13.216L41.432 13.696C41.256 12.992 40.856 11.856 40.6 11.008L41.912 10.624C42.2 11.456 42.584 12.528 42.792 13.216ZM43.144 17.856L43.816 18.112C43.528 19.536 43.08 21.04 42.52 22.24C42.824 22.4 43.16 22.672 43.672 22.992C44.792 23.664 46.248 23.76 48.136 23.76C50.072 23.76 52.776 23.616 54.536 23.392C54.376 23.792 54.136 24.528 54.104 24.928C52.872 25.008 49.928 25.104 48.072 25.104C45.96 25.104 44.584 24.928 43.432 24.256C42.792 23.888 42.2 23.328 41.864 23.328C41.496 23.328 40.952 24.368 40.52 25.344L39.512 23.968C40.056 23.248 40.616 22.624 41.128 22.304C41.544 21.44 41.928 20.288 42.168 19.2H40.12C40.52 18.256 40.984 16.96 41.384 15.712H39.768V14.368H43.224C42.872 15.504 42.424 16.8 42.04 17.92H42.92L43.144 17.856ZM62.488 13.248V14.432H56.744V13.248H59.464C59.224 12.656 58.776 11.744 58.376 11.088L59.448 10.496C59.848 11.168 60.328 12.016 60.552 12.592L59.496 13.248H62.488ZM61.912 16.544H57.384V15.376H61.912V16.544ZM60.744 20.848H58.552V23.136H60.744V20.848ZM61.928 19.648V24.336H58.552V25.056H57.384V19.648H61.928ZM57.384 18.64V17.488H61.928V18.64H57.384ZM62.68 11.44H69.72C69.608 17.36 69.592 23.312 70.344 23.536C70.44 23.568 70.552 22.528 70.6 21.456C70.824 21.824 71.192 22.368 71.416 22.592C71.224 24.864 70.568 25.376 69.736 25.024C68.184 24.48 68.216 19.12 68.232 12.848H65.864V17.36H67.736V18.736H65.864V25.264H64.472V18.736H62.488V17.36H64.472V12.848H62.68V11.44ZM82.68 14.88L82.664 14.912C82.984 16.672 83.496 18.32 84.2 19.712C84.904 18.384 85.352 16.784 85.672 14.88H82.68ZM78.68 22.16V19.072H75.656V22.16H78.68ZM88.28 14.88H87.16C86.728 17.424 86.072 19.488 85.048 21.152C85.912 22.416 87.016 23.376 88.408 23.984C88.072 24.288 87.592 24.864 87.384 25.28C86.024 24.608 84.968 23.632 84.104 22.448C83.096 23.616 81.816 24.544 80.2 25.28C80.056 24.928 79.64 24.256 79.352 23.952C81.048 23.264 82.312 22.352 83.288 21.136C82.632 19.904 82.12 18.512 81.72 16.976C81.432 17.504 81.128 17.984 80.792 18.4C80.632 18.24 80.376 18.032 80.104 17.808V23.552H75.656V24.576H74.28V17.68H76.456V14.976H73.608V13.6H76.456V10.592H77.944V13.6H80.664V14.976H77.944V17.68H79.928C79.784 17.568 79.656 17.472 79.544 17.408C80.92 15.856 81.816 13.28 82.28 10.576L83.784 10.816C83.624 11.728 83.4 12.624 83.144 13.472H88.28V14.88ZM97.608 13.2L98.536 12.944H96.264V11.776H99.624C99.528 11.456 99.4 11.12 99.304 10.832L100.616 10.496C100.808 10.88 100.984 11.376 101.112 11.776H104.536V12.944H98.888C99.096 13.344 99.288 13.84 99.368 14.176L99.064 14.272H101.304C101.496 13.84 101.688 13.312 101.8 12.944L103.256 13.248L102.712 14.272H105.08V15.456H95.624V14.272H97.992C97.896 13.92 97.736 13.536 97.608 13.2ZM94.936 11.168L95.928 11.728C95.432 13.04 94.856 14.608 94.344 15.84C95.464 17.136 95.72 18.288 95.736 19.248C95.736 20.176 95.528 20.848 95.048 21.2C94.808 21.36 94.52 21.456 94.168 21.52C93.864 21.552 93.448 21.552 93.064 21.536C93.048 21.184 92.92 20.608 92.728 20.24C93.048 20.288 93.352 20.288 93.592 20.272C93.784 20.256 93.944 20.224 94.088 20.128C94.312 19.968 94.408 19.568 94.408 19.088C94.408 18.272 94.136 17.2 93.016 16C93.448 14.96 93.88 13.616 94.2 12.56H92.312V25.216H91V11.216H94.728L94.936 11.168ZM98.056 18.976V19.872H102.632V18.976H98.056ZM98.056 17.232V18.112H102.632V17.232H98.056ZM105.144 21.824V23.056H101.176V25.248H99.72V23.056H95.656V21.824H99.72V20.848H96.68V16.24H104.072V20.848H101.176V21.824H105.144Z" fill="#5F6162"/>
</svg>
