<svg width="109" height="30" viewBox="0 0 109 30" fill="none" xmlns="http://www.w3.org/2000/svg">
<rect width="109" height="30" rx="6" fill="#D9D9D9"/>
<path d="M19.3254 23.6218C20.6697 23.3229 21.5023 22.0544 21.185 20.7883C20.8678 19.5222 19.5207 18.7381 18.1764 19.0369C16.832 19.3358 15.9994 20.6043 16.3167 21.8704C16.634 23.1365 17.981 23.9206 19.3254 23.6218Z" fill="#5F6162"/>
<path d="M23.2198 9.90203C23.4012 9.60037 23.62 9.32004 23.8716 9.06694L23.9246 9.00984C24.7578 8.18282 25.8986 7.69169 27.1078 7.63943C23.6367 5.94546 19.6776 5.35238 15.8198 5.94848C11.9619 6.54457 8.41158 8.29797 5.69727 10.9477L8.31958 13.4458C10.1997 11.5977 12.5944 10.2854 15.2295 9.65934C17.8647 9.03324 20.6338 9.11858 23.2198 9.9056V9.90203Z" fill="#5F6162"/>
<path d="M18.7671 13.3244C20.3109 13.3243 21.8342 13.6576 23.2197 14.2987C22.8727 13.7356 22.6642 13.1063 22.6096 12.4572C22.5651 11.8983 22.6332 11.3364 22.8105 10.8013C20.4166 10.0875 17.8579 10.0211 15.426 10.6098C12.994 11.1985 10.7864 12.4185 9.05469 14.131L11.3852 16.3329C12.3323 15.3833 13.4759 14.6265 14.7455 14.109C16.0151 13.5916 17.3837 13.3246 18.7671 13.3244Z" fill="#5F6162"/>
<path d="M18.7675 14.2987C17.5189 14.2973 16.2834 14.538 15.1379 15.0059C13.9924 15.4737 12.9615 16.1587 12.1094 17.0181L14.4475 19.2308C14.9994 18.6493 15.6773 18.186 16.4355 17.8721C17.1937 17.5582 18.0145 17.401 18.8426 17.4112C19.6707 17.4213 20.4869 17.5985 21.2362 17.9309C21.9854 18.2632 22.6503 18.743 23.186 19.3378L25.4938 17.0895C24.6405 16.2092 23.6016 15.5062 22.4433 15.0257C21.2851 14.5451 20.0331 14.2975 18.7675 14.2987Z" fill="#5F6162"/>
<path d="M31.2909 11.797C31.2303 11.0892 30.9533 10.4131 30.4934 9.85039C30.0334 9.28768 29.4103 8.86247 28.6992 8.62617C27.9882 8.38987 27.2197 8.3526 26.4866 8.51885C25.7535 8.6851 25.0873 9.04776 24.5684 9.56299C24.1194 10.0081 23.7959 10.552 23.6272 11.145C23.4585 11.738 23.4501 12.3614 23.6027 12.9583C23.7553 13.5552 24.064 14.1066 24.5008 14.5624C24.9376 15.0181 25.4886 15.3637 26.1035 15.5676C26.7184 15.7715 27.3777 15.8272 28.0213 15.7298C28.665 15.6323 29.2725 15.3847 29.7885 15.0095C30.3046 14.6344 30.7127 14.1436 30.9758 13.5818C31.2389 13.0201 31.3485 12.4053 31.2947 11.7935L31.2909 11.797ZM29.4227 13.4744C29.4634 13.5125 29.4957 13.5578 29.5177 13.6077C29.5397 13.6576 29.5511 13.7112 29.5511 13.7652C29.5511 13.8193 29.5397 13.8728 29.5177 13.9227C29.4957 13.9726 29.4634 14.0179 29.4227 14.0561C29.34 14.1317 29.2292 14.174 29.1139 14.174C28.9986 14.174 28.8878 14.1317 28.805 14.0561L27.4673 12.7963L26.1335 14.0632C26.0502 14.1392 25.9387 14.1815 25.8227 14.181C25.7337 14.1836 25.6459 14.1605 25.5712 14.1147C25.4966 14.0689 25.4386 14.0026 25.4051 13.9248C25.3717 13.8471 25.3644 13.7615 25.3841 13.6797C25.4039 13.5978 25.4499 13.5237 25.5158 13.4672L26.8535 12.2074L25.5158 10.9477C25.4752 10.9098 25.443 10.8648 25.421 10.8152C25.3991 10.7656 25.3878 10.7124 25.3878 10.6586C25.3878 10.6048 25.3991 10.5516 25.421 10.502C25.443 10.4524 25.4752 10.4074 25.5158 10.3695C25.5563 10.3312 25.6044 10.3008 25.6574 10.2801C25.7104 10.2593 25.7672 10.2487 25.8246 10.2487C25.882 10.2487 25.9388 10.2593 25.9918 10.2801C26.0448 10.3008 26.093 10.3312 26.1335 10.3695L27.4673 11.6257L28.805 10.3695C28.8455 10.3312 28.8937 10.3008 28.9467 10.2801C28.9997 10.2593 29.0565 10.2487 29.1139 10.2487C29.1713 10.2487 29.2281 10.2593 29.2811 10.2801C29.3341 10.3008 29.3822 10.3312 29.4227 10.3695C29.4633 10.4074 29.4955 10.4524 29.5174 10.502C29.5394 10.5516 29.5507 10.6048 29.5507 10.6586C29.5507 10.7124 29.5394 10.7656 29.5174 10.8152C29.4955 10.8648 29.4633 10.9098 29.4227 10.9477L28.085 12.2074L29.4227 13.4744Z" fill="#E73828"/>
<path d="M46.52 13.664H44.216V14.816H46.52V13.664ZM50.248 14.816V13.664H47.864V14.816H50.248ZM47.864 17.104H50.248V15.904H47.864V17.104ZM44.216 17.104H46.52V15.904H44.216V17.104ZM44.216 18.224V20.752H42.824V12.544H46.92C46.088 12.144 45.112 11.712 44.296 11.408L45.256 10.608C45.88 10.816 46.616 11.104 47.32 11.424C47.928 11.104 48.552 10.72 49.064 10.336H42.888V9.168H50.456L50.744 9.088L51.64 9.808C50.824 10.592 49.72 11.376 48.584 11.984C49.016 12.176 49.384 12.368 49.688 12.544H51.656V19.376C51.656 20.048 51.528 20.384 51.08 20.576C50.616 20.784 49.944 20.8 48.936 20.8C48.888 20.432 48.712 19.936 48.536 19.6C49.192 19.632 49.816 19.616 49.992 19.616C50.184 19.616 50.248 19.552 50.248 19.36V18.224H47.864V20.688H46.52V18.224H44.216ZM40.792 11.216L39.432 11.696C39.256 10.992 38.856 9.856 38.6 9.008L39.912 8.624C40.2 9.456 40.584 10.528 40.792 11.216ZM41.144 15.856L41.816 16.112C41.528 17.536 41.08 19.04 40.52 20.24C40.824 20.4 41.16 20.672 41.672 20.992C42.792 21.664 44.248 21.76 46.136 21.76C48.072 21.76 50.776 21.616 52.536 21.392C52.376 21.792 52.136 22.528 52.104 22.928C50.872 23.008 47.928 23.104 46.072 23.104C43.96 23.104 42.584 22.928 41.432 22.256C40.792 21.888 40.2 21.328 39.864 21.328C39.496 21.328 38.952 22.368 38.52 23.344L37.512 21.968C38.056 21.248 38.616 20.624 39.128 20.304C39.544 19.44 39.928 18.288 40.168 17.2H38.12C38.52 16.256 38.984 14.96 39.384 13.712H37.768V12.368H41.224C40.872 13.504 40.424 14.8 40.04 15.92H40.92L41.144 15.856ZM60.488 11.248V12.432H54.744V11.248H57.464C57.224 10.656 56.776 9.744 56.376 9.088L57.448 8.496C57.848 9.168 58.328 10.016 58.552 10.592L57.496 11.248H60.488ZM59.912 14.544H55.384V13.376H59.912V14.544ZM58.744 18.848H56.552V21.136H58.744V18.848ZM59.928 17.648V22.336H56.552V23.056H55.384V17.648H59.928ZM55.384 16.64V15.488H59.928V16.64H55.384ZM60.68 9.44H67.72C67.608 15.36 67.592 21.312 68.344 21.536C68.44 21.568 68.552 20.528 68.6 19.456C68.824 19.824 69.192 20.368 69.416 20.592C69.224 22.864 68.568 23.376 67.736 23.024C66.184 22.48 66.216 17.12 66.232 10.848H63.864V15.36H65.736V16.736H63.864V23.264H62.472V16.736H60.488V15.36H62.472V10.848H60.68V9.44ZM80.68 12.88L80.664 12.912C80.984 14.672 81.496 16.32 82.2 17.712C82.904 16.384 83.352 14.784 83.672 12.88H80.68ZM76.68 20.16V17.072H73.656V20.16H76.68ZM86.28 12.88H85.16C84.728 15.424 84.072 17.488 83.048 19.152C83.912 20.416 85.016 21.376 86.408 21.984C86.072 22.288 85.592 22.864 85.384 23.28C84.024 22.608 82.968 21.632 82.104 20.448C81.096 21.616 79.816 22.544 78.2 23.28C78.056 22.928 77.64 22.256 77.352 21.952C79.048 21.264 80.312 20.352 81.288 19.136C80.632 17.904 80.12 16.512 79.72 14.976C79.432 15.504 79.128 15.984 78.792 16.4C78.632 16.24 78.376 16.032 78.104 15.808V21.552H73.656V22.576H72.28V15.68H74.456V12.976H71.608V11.6H74.456V8.592H75.944V11.6H78.664V12.976H75.944V15.68H77.928C77.784 15.568 77.656 15.472 77.544 15.408C78.92 13.856 79.816 11.28 80.28 8.576L81.784 8.816C81.624 9.728 81.4 10.624 81.144 11.472H86.28V12.88ZM95.608 11.2L96.536 10.944H94.264V9.776H97.624C97.528 9.456 97.4 9.12 97.304 8.832L98.616 8.496C98.808 8.88 98.984 9.376 99.112 9.776H102.536V10.944H96.888C97.096 11.344 97.288 11.84 97.368 12.176L97.064 12.272H99.304C99.496 11.84 99.688 11.312 99.8 10.944L101.256 11.248L100.712 12.272H103.08V13.456H93.624V12.272H95.992C95.896 11.92 95.736 11.536 95.608 11.2ZM92.936 9.168L93.928 9.728C93.432 11.04 92.856 12.608 92.344 13.84C93.464 15.136 93.72 16.288 93.736 17.248C93.736 18.176 93.528 18.848 93.048 19.2C92.808 19.36 92.52 19.456 92.168 19.52C91.864 19.552 91.448 19.552 91.064 19.536C91.048 19.184 90.92 18.608 90.728 18.24C91.048 18.288 91.352 18.288 91.592 18.272C91.784 18.256 91.944 18.224 92.088 18.128C92.312 17.968 92.408 17.568 92.408 17.088C92.408 16.272 92.136 15.2 91.016 14C91.448 12.96 91.88 11.616 92.2 10.56H90.312V23.216H89V9.216H92.728L92.936 9.168ZM96.056 16.976V17.872H100.632V16.976H96.056ZM96.056 15.232V16.112H100.632V15.232H96.056ZM103.144 19.824V21.056H99.176V23.248H97.72V21.056H93.656V19.824H97.72V18.848H94.68V14.24H102.072V18.848H99.176V19.824H103.144Z" fill="#5F6162"/>
</svg>
