<svg width="107" height="30" viewBox="0 0 107 30" fill="none" xmlns="http://www.w3.org/2000/svg">
<g clip-path="url(#clip0_852_377)">
<path d="M101 0H6C2.68629 0 0 2.68629 0 6V24C0 27.3137 2.68629 30 6 30H101C104.314 30 107 27.3137 107 24V6C107 2.68629 104.314 0 101 0Z" fill="#D9D9D9"/>
<path d="M10.7439 23.1784H10.0807L9.72982 23.0827C9.338 22.9666 8.98382 22.7533 8.70197 22.4637C8.42011 22.1741 8.22024 21.8181 8.12191 21.4306C8.02358 21.0431 8.03018 20.6374 8.14105 20.2531C8.25192 19.8689 8.46326 19.5192 8.75439 19.2385C11.2082 16.8422 13.6643 14.4481 16.1228 12.0563C16.2 11.9811 16.2526 11.923 16.2105 11.7998C15.9121 10.9378 15.8492 10.0149 16.0281 9.12192C16.1718 8.39298 16.4685 7.70086 16.8997 7.08899C17.3308 6.47712 17.887 5.95871 18.5334 5.56628C19.1798 5.17386 19.9025 4.91589 20.656 4.80856C21.4095 4.70123 22.1777 4.74686 22.9123 4.94259C23.0356 4.95549 23.1519 5.00467 23.2458 5.08358C23.3397 5.1625 23.4067 5.26742 23.438 5.38437C23.4692 5.50133 23.4632 5.62478 23.4207 5.73831C23.3781 5.85184 23.3012 5.95007 23.2 6.01992C22.4327 6.76777 21.6632 7.51791 20.8912 8.27033C20.8542 8.2956 20.8268 8.33219 20.8135 8.3743C20.8001 8.41641 20.8016 8.46166 20.8175 8.50289C20.9825 9.033 21.1333 9.56996 21.2982 10.1035C21.3322 10.1786 21.3953 10.2376 21.4737 10.2676C22 10.425 22.5263 10.5652 23.0632 10.7191C23.1145 10.7416 23.172 10.7467 23.2267 10.7337C23.2814 10.7207 23.33 10.6903 23.3649 10.6473C24.1298 9.8903 24.9006 9.14017 25.6772 8.39687C25.7882 8.28766 25.9298 8.21273 26.0842 8.1814C26.1557 8.16812 26.2292 8.16886 26.3004 8.18358C26.3716 8.19831 26.439 8.22673 26.4988 8.26717C26.5586 8.30762 26.6095 8.35928 26.6486 8.41913C26.6877 8.47898 26.7141 8.54583 26.7263 8.61575C26.8175 8.95776 26.8807 9.29977 26.9544 9.64178V10.6131C26.9298 10.7362 26.9053 10.8593 26.8842 10.9824C26.7586 11.7445 26.4661 12.4713 26.0264 13.1133C25.5868 13.7553 25.0104 14.2974 24.3365 14.7028C23.6626 15.1081 22.907 15.3672 22.1211 15.4623C21.3353 15.5575 20.5376 15.4865 19.7825 15.2541C19.723 15.2274 19.6561 15.2209 19.5924 15.2358C19.5287 15.2507 19.4721 15.2861 19.4316 15.3362C17.0058 17.7097 14.5778 20.081 12.1474 22.45C11.8543 22.7524 11.4855 22.9752 11.0772 23.0963L10.7439 23.1784Z" fill="#118BBB"/>
<path d="M46.608 21H44.928L38.816 11.512H38.752C38.7627 11.704 38.7733 11.9173 38.784 12.152C38.8053 12.3867 38.8213 12.6427 38.832 12.92C38.8427 13.1867 38.8533 13.464 38.864 13.752C38.8747 14.04 38.88 14.328 38.88 14.616V21H37.552V9.576H39.216L45.312 19.032H45.376C45.3653 18.904 45.3547 18.728 45.344 18.504C45.3333 18.2693 45.3227 18.0133 45.312 17.736C45.3013 17.448 45.2907 17.1547 45.28 16.856C45.2693 16.5573 45.264 16.28 45.264 16.024V9.576H46.608V21ZM57.9323 16.696C57.9323 17.4107 57.8363 18.0453 57.6443 18.6C57.4629 19.144 57.1963 19.608 56.8443 19.992C56.5029 20.376 56.0816 20.6693 55.5803 20.872C55.0896 21.064 54.5403 21.16 53.9323 21.16C53.3669 21.16 52.8443 21.064 52.3643 20.872C51.8843 20.6693 51.4683 20.376 51.1163 19.992C50.7643 19.608 50.4869 19.144 50.2843 18.6C50.0923 18.0453 49.9963 17.4107 49.9963 16.696C49.9963 15.7467 50.1563 14.9467 50.4763 14.296C50.7963 13.6347 51.2549 13.1333 51.8523 12.792C52.4496 12.44 53.1589 12.264 53.9803 12.264C54.7589 12.264 55.4416 12.44 56.0283 12.792C56.6256 13.1333 57.0896 13.6347 57.4203 14.296C57.7616 14.9467 57.9323 15.7467 57.9323 16.696ZM51.4523 16.696C51.4523 17.368 51.5376 17.9547 51.7083 18.456C51.8896 18.9467 52.1669 19.3253 52.5403 19.592C52.9136 19.8587 53.3883 19.992 53.9643 19.992C54.5403 19.992 55.0149 19.8587 55.3883 19.592C55.7616 19.3253 56.0336 18.9467 56.2043 18.456C56.3856 17.9547 56.4763 17.368 56.4763 16.696C56.4763 16.0133 56.3856 15.432 56.2043 14.952C56.0229 14.472 55.7456 14.104 55.3723 13.848C55.0096 13.5813 54.5349 13.448 53.9483 13.448C53.0736 13.448 52.4389 13.736 52.0443 14.312C51.6496 14.888 51.4523 15.6827 51.4523 16.696ZM65.1238 12.264C65.2838 12.264 65.4544 12.2747 65.6358 12.296C65.8278 12.3067 65.9931 12.328 66.1318 12.36L65.9558 13.656C65.8171 13.624 65.6624 13.5973 65.4918 13.576C65.3318 13.5547 65.1771 13.544 65.0278 13.544C64.6971 13.544 64.3824 13.6133 64.0838 13.752C63.7851 13.8907 63.5184 14.088 63.2838 14.344C63.0491 14.5893 62.8624 14.888 62.7238 15.24C62.5958 15.592 62.5318 15.9867 62.5318 16.424V21H61.1238V12.424H62.2758L62.4358 13.992H62.4998C62.6811 13.672 62.8998 13.384 63.1558 13.128C63.4118 12.8613 63.7051 12.6533 64.0358 12.504C64.3664 12.344 64.7291 12.264 65.1238 12.264ZM78.1011 12.264C79.0718 12.264 79.7971 12.5147 80.2771 13.016C80.7571 13.5067 80.9971 14.3067 80.9971 15.416V21H79.6051V15.48C79.6051 14.808 79.4611 14.3013 79.1731 13.96C78.8958 13.6187 78.4585 13.448 77.8611 13.448C77.0291 13.448 76.4318 13.688 76.0691 14.168C75.7171 14.648 75.5411 15.3467 75.5411 16.264V21H74.1491V15.48C74.1491 15.032 74.0851 14.6587 73.9571 14.36C73.8291 14.0507 73.6371 13.8213 73.3811 13.672C73.1251 13.5227 72.7945 13.448 72.3891 13.448C71.8131 13.448 71.3598 13.5707 71.0291 13.816C70.6985 14.0507 70.4585 14.3973 70.3091 14.856C70.1705 15.3147 70.1011 15.88 70.1011 16.552V21H68.6931V12.424H69.8291L70.0371 13.592H70.1171C70.2985 13.2933 70.5171 13.048 70.7731 12.856C71.0398 12.6533 71.3331 12.504 71.6531 12.408C71.9731 12.312 72.3038 12.264 72.6451 12.264C73.3065 12.264 73.8558 12.3813 74.2931 12.616C74.7411 12.8507 75.0665 13.2133 75.2691 13.704H75.3491C75.6371 13.2133 76.0265 12.8507 76.5171 12.616C77.0185 12.3813 77.5465 12.264 78.1011 12.264ZM87.8543 12.28C88.8996 12.28 89.6729 12.5093 90.1743 12.968C90.6756 13.4267 90.9263 14.1573 90.9263 15.16V21H89.9023L89.6303 19.784H89.5663C89.3209 20.0933 89.0649 20.3547 88.7983 20.568C88.5423 20.7707 88.2436 20.92 87.9023 21.016C87.5716 21.112 87.1663 21.16 86.6863 21.16C86.1743 21.16 85.7103 21.0693 85.2943 20.888C84.8889 20.7067 84.5689 20.4293 84.3343 20.056C84.0996 19.672 83.9823 19.192 83.9823 18.616C83.9823 17.7627 84.3183 17.1067 84.9903 16.648C85.6623 16.1787 86.6969 15.9227 88.0943 15.88L89.5503 15.832V15.32C89.5503 14.6053 89.3956 14.1093 89.0863 13.832C88.7769 13.5547 88.3396 13.416 87.7743 13.416C87.3263 13.416 86.8996 13.4853 86.4943 13.624C86.0889 13.752 85.7103 13.9013 85.3583 14.072L84.9263 13.016C85.2996 12.8133 85.7423 12.6427 86.2543 12.504C86.7663 12.3547 87.2996 12.28 87.8543 12.28ZM88.2703 16.856C87.2036 16.8987 86.4623 17.0693 86.0463 17.368C85.6409 17.6667 85.4383 18.088 85.4383 18.632C85.4383 19.112 85.5823 19.464 85.8703 19.688C86.1689 19.912 86.5476 20.024 87.0063 20.024C87.7316 20.024 88.3343 19.8267 88.8143 19.432C89.2943 19.0267 89.5343 18.408 89.5343 17.576V16.808L88.2703 16.856ZM95.943 21H94.535V8.84H95.943V21Z" fill="#5F6162"/>
</g>
<defs>
<clipPath id="clip0_852_377">
<rect width="107" height="30" fill="white"/>
</clipPath>
</defs>
</svg>
