<svg width="107" height="30" viewBox="0 0 107 30" fill="none" xmlns="http://www.w3.org/2000/svg">
<g clip-path="url(#clip0_852_371)">
<path d="M99.2882 0.882324H7.71162C3.98494 0.882324 0.963867 3.64762 0.963867 7.05879V22.9411C0.963867 26.3523 3.98494 29.1176 7.71162 29.1176H99.2882C103.015 29.1176 106.036 26.3523 106.036 22.9411V7.05879C106.036 3.64762 103.015 0.882324 99.2882 0.882324Z" fill="#D9D9D9"/>
<path d="M99.2882 0.882324H7.71162C3.98494 0.882324 0.963867 3.64762 0.963867 7.0588V22.9411C0.963867 26.3523 3.98494 29.1176 7.71162 29.1176H99.2882C103.015 29.1176 106.036 26.3523 106.036 22.9411V7.0588C106.036 3.64762 103.015 0.882324 99.2882 0.882324Z" stroke="#02253C" stroke-width="2"/>
<path d="M10.8067 26.8965H9.95667L9.50692 26.7729C9.00475 26.623 8.55077 26.3476 8.18958 25.9736C7.82827 25.5997 7.57205 25.14 7.44606 24.6397C7.32007 24.1393 7.32853 23.6154 7.47054 23.1192C7.61269 22.6231 7.88364 22.1716 8.25674 21.8091C11.4018 18.7149 14.5498 15.6235 17.7009 12.5351C17.7998 12.438 17.8673 12.363 17.8133 12.2039C17.4308 11.0909 17.3502 9.89916 17.5795 8.74608C17.7637 7.80489 18.144 6.91116 18.6966 6.12109C19.2492 5.33101 19.9621 4.66162 20.7906 4.15489C21.6191 3.64818 22.5454 3.31508 23.5111 3.17649C24.4769 3.0379 25.4615 3.09682 26.403 3.34955C26.5611 3.36621 26.7101 3.42972 26.8305 3.53161C26.9508 3.63351 27.0367 3.76899 27.0768 3.92C27.1168 4.07103 27.1091 4.23043 27.0547 4.37703C27.0001 4.52362 26.9015 4.65046 26.7718 4.74065C25.7883 5.70631 24.8021 6.67493 23.8126 7.64645C23.7652 7.67912 23.73 7.72638 23.713 7.78074C23.6958 7.8351 23.6977 7.8936 23.7181 7.9468C23.9296 8.63129 24.1229 9.32469 24.3342 10.0136C24.3778 10.1105 24.4587 10.1867 24.5592 10.2255C25.2337 10.4287 25.9083 10.6097 26.5965 10.8085C26.6622 10.8375 26.7359 10.8441 26.806 10.8273C26.8761 10.8105 26.9384 10.7713 26.9831 10.7157C27.9635 9.73827 28.9515 8.76971 29.9468 7.80992C30.0891 7.66892 30.2706 7.57208 30.4685 7.53166C30.5601 7.51449 30.6543 7.51552 30.7456 7.5345C30.8369 7.55348 30.9232 7.59015 30.9999 7.64245C31.0765 7.69462 31.1418 7.76137 31.1919 7.83859C31.242 7.91593 31.2758 8.00219 31.2915 8.09258C31.4084 8.53418 31.4894 8.97579 31.5838 9.4174V10.6716C31.5523 10.8305 31.5209 10.9895 31.4939 11.1484C31.3329 12.1325 30.958 13.071 30.3944 13.9C29.831 14.7289 29.0922 15.4289 28.2285 15.9524C27.3647 16.4757 26.3963 16.8103 25.389 16.9331C24.3818 17.056 23.3594 16.9644 22.3916 16.6643C22.3153 16.6298 22.2295 16.6214 22.1479 16.6406C22.0663 16.6599 21.9937 16.7056 21.9418 16.7703C18.8326 19.8351 15.7206 22.897 12.6056 25.956C12.2299 26.3464 11.7572 26.6341 11.2339 26.7905L10.8067 26.8965Z" fill="#118BBB"/>
<path d="M47.608 20H45.928L39.816 10.512H39.752C39.7627 10.704 39.7733 10.9173 39.784 11.152C39.8053 11.3867 39.8213 11.6427 39.832 11.92C39.8427 12.1867 39.8533 12.464 39.864 12.752C39.8747 13.04 39.88 13.328 39.88 13.616V20H38.552V8.576H40.216L46.312 18.032H46.376C46.3653 17.904 46.3547 17.728 46.344 17.504C46.3333 17.2693 46.3227 17.0133 46.312 16.736C46.3013 16.448 46.2907 16.1547 46.28 15.856C46.2693 15.5573 46.264 15.28 46.264 15.024V8.576H47.608V20ZM58.9323 15.696C58.9323 16.4107 58.8363 17.0453 58.6443 17.6C58.4629 18.144 58.1963 18.608 57.8443 18.992C57.5029 19.376 57.0816 19.6693 56.5803 19.872C56.0896 20.064 55.5403 20.16 54.9323 20.16C54.3669 20.16 53.8443 20.064 53.3643 19.872C52.8843 19.6693 52.4683 19.376 52.1163 18.992C51.7643 18.608 51.4869 18.144 51.2843 17.6C51.0923 17.0453 50.9963 16.4107 50.9963 15.696C50.9963 14.7467 51.1563 13.9467 51.4763 13.296C51.7963 12.6347 52.2549 12.1333 52.8523 11.792C53.4496 11.44 54.1589 11.264 54.9803 11.264C55.7589 11.264 56.4416 11.44 57.0283 11.792C57.6256 12.1333 58.0896 12.6347 58.4203 13.296C58.7616 13.9467 58.9323 14.7467 58.9323 15.696ZM52.4523 15.696C52.4523 16.368 52.5376 16.9547 52.7083 17.456C52.8896 17.9467 53.1669 18.3253 53.5403 18.592C53.9136 18.8587 54.3883 18.992 54.9643 18.992C55.5403 18.992 56.0149 18.8587 56.3883 18.592C56.7616 18.3253 57.0336 17.9467 57.2043 17.456C57.3856 16.9547 57.4763 16.368 57.4763 15.696C57.4763 15.0133 57.3856 14.432 57.2043 13.952C57.0229 13.472 56.7456 13.104 56.3723 12.848C56.0096 12.5813 55.5349 12.448 54.9483 12.448C54.0736 12.448 53.4389 12.736 53.0443 13.312C52.6496 13.888 52.4523 14.6827 52.4523 15.696ZM66.1238 11.264C66.2838 11.264 66.4544 11.2747 66.6358 11.296C66.8278 11.3067 66.9931 11.328 67.1318 11.36L66.9558 12.656C66.8171 12.624 66.6624 12.5973 66.4918 12.576C66.3318 12.5547 66.1771 12.544 66.0278 12.544C65.6971 12.544 65.3824 12.6133 65.0838 12.752C64.7851 12.8907 64.5184 13.088 64.2838 13.344C64.0491 13.5893 63.8624 13.888 63.7238 14.24C63.5958 14.592 63.5318 14.9867 63.5318 15.424V20H62.1238V11.424H63.2758L63.4358 12.992H63.4998C63.6811 12.672 63.8998 12.384 64.1558 12.128C64.4118 11.8613 64.7051 11.6533 65.0358 11.504C65.3664 11.344 65.7291 11.264 66.1238 11.264ZM79.1011 11.264C80.0718 11.264 80.7971 11.5147 81.2771 12.016C81.7571 12.5067 81.9971 13.3067 81.9971 14.416V20H80.6051V14.48C80.6051 13.808 80.4611 13.3013 80.1731 12.96C79.8958 12.6187 79.4585 12.448 78.8611 12.448C78.0291 12.448 77.4318 12.688 77.0691 13.168C76.7171 13.648 76.5411 14.3467 76.5411 15.264V20H75.1491V14.48C75.1491 14.032 75.0851 13.6587 74.9571 13.36C74.8291 13.0507 74.6371 12.8213 74.3811 12.672C74.1251 12.5227 73.7945 12.448 73.3891 12.448C72.8131 12.448 72.3598 12.5707 72.0291 12.816C71.6985 13.0507 71.4585 13.3973 71.3091 13.856C71.1705 14.3147 71.1011 14.88 71.1011 15.552V20H69.6931V11.424H70.8291L71.0371 12.592H71.1171C71.2985 12.2933 71.5171 12.048 71.7731 11.856C72.0398 11.6533 72.3331 11.504 72.6531 11.408C72.9731 11.312 73.3038 11.264 73.6451 11.264C74.3065 11.264 74.8558 11.3813 75.2931 11.616C75.7411 11.8507 76.0665 12.2133 76.2691 12.704H76.3491C76.6371 12.2133 77.0265 11.8507 77.5171 11.616C78.0185 11.3813 78.5465 11.264 79.1011 11.264ZM88.8543 11.28C89.8996 11.28 90.6729 11.5093 91.1743 11.968C91.6756 12.4267 91.9263 13.1573 91.9263 14.16V20H90.9023L90.6303 18.784H90.5663C90.3209 19.0933 90.0649 19.3547 89.7983 19.568C89.5423 19.7707 89.2436 19.92 88.9023 20.016C88.5716 20.112 88.1663 20.16 87.6863 20.16C87.1743 20.16 86.7103 20.0693 86.2943 19.888C85.8889 19.7067 85.5689 19.4293 85.3343 19.056C85.0996 18.672 84.9823 18.192 84.9823 17.616C84.9823 16.7627 85.3183 16.1067 85.9903 15.648C86.6623 15.1787 87.6969 14.9227 89.0943 14.88L90.5503 14.832V14.32C90.5503 13.6053 90.3956 13.1093 90.0863 12.832C89.7769 12.5547 89.3396 12.416 88.7743 12.416C88.3263 12.416 87.8996 12.4853 87.4943 12.624C87.0889 12.752 86.7103 12.9013 86.3583 13.072L85.9263 12.016C86.2996 11.8133 86.7423 11.6427 87.2543 11.504C87.7663 11.3547 88.2996 11.28 88.8543 11.28ZM89.2703 15.856C88.2036 15.8987 87.4623 16.0693 87.0463 16.368C86.6409 16.6667 86.4383 17.088 86.4383 17.632C86.4383 18.112 86.5823 18.464 86.8703 18.688C87.1689 18.912 87.5476 19.024 88.0063 19.024C88.7316 19.024 89.3343 18.8267 89.8143 18.432C90.2943 18.0267 90.5343 17.408 90.5343 16.576V15.808L89.2703 15.856ZM96.943 20H95.535V7.84H96.943V20Z" fill="#5F6162"/>
</g>
<defs>
<clipPath id="clip0_852_371">
<rect width="107" height="30" fill="white"/>
</clipPath>
</defs>
</svg>
