<svg width="111" height="34" viewBox="0 0 111 34" fill="none" xmlns="http://www.w3.org/2000/svg">
<rect x="1" y="1" width="109" height="32" rx="7" fill="#D9D9D9"/>
<rect x="1" y="1" width="109" height="32" rx="7" stroke="#02253C" stroke-width="2"/>
<path d="M12.7439 25.1784H12.0807L11.7298 25.0827C11.338 24.9666 10.9838 24.7533 10.702 24.4637C10.4201 24.1741 10.2202 23.8181 10.1219 23.4306C10.0236 23.0431 10.0302 22.6374 10.141 22.2531C10.2519 21.8689 10.4633 21.5192 10.7544 21.2385C13.2082 18.8422 15.6643 16.4481 18.1228 14.0563C18.2 13.9811 18.2526 13.923 18.2105 13.7998C17.9121 12.9378 17.8492 12.0149 18.0281 11.1219C18.1718 10.393 18.4685 9.70086 18.8997 9.08899C19.3308 8.47712 19.887 7.95871 20.5334 7.56628C21.1798 7.17386 21.9025 6.91589 22.656 6.80856C23.4095 6.70123 24.1777 6.74686 24.9123 6.94259C25.0356 6.95549 25.1519 7.00467 25.2458 7.08358C25.3397 7.1625 25.4067 7.26742 25.438 7.38437C25.4692 7.50133 25.4632 7.62478 25.4207 7.73831C25.3781 7.85184 25.3012 7.95007 25.2 8.01992C24.4327 8.76777 23.6632 9.51791 22.8912 10.2703C22.8542 10.2956 22.8268 10.3322 22.8135 10.3743C22.8001 10.4164 22.8016 10.4617 22.8175 10.5029C22.9825 11.033 23.1333 11.57 23.2982 12.1035C23.3322 12.1786 23.3953 12.2376 23.4737 12.2676C24 12.425 24.5263 12.5652 25.0632 12.7191C25.1145 12.7416 25.172 12.7467 25.2267 12.7337C25.2814 12.7207 25.33 12.6903 25.3649 12.6473C26.1298 11.8903 26.9006 11.1402 27.6772 10.3969C27.7882 10.2877 27.9298 10.2127 28.0842 10.1814C28.1557 10.1681 28.2292 10.1689 28.3004 10.1836C28.3716 10.1983 28.439 10.2267 28.4988 10.2672C28.5586 10.3076 28.6095 10.3593 28.6486 10.4191C28.6877 10.479 28.7141 10.5458 28.7263 10.6158C28.8175 10.9578 28.8807 11.2998 28.9544 11.6418V12.6131C28.9298 12.7362 28.9053 12.8593 28.8842 12.9824C28.7586 13.7445 28.4661 14.4713 28.0264 15.1133C27.5868 15.7553 27.0104 16.2974 26.3365 16.7028C25.6626 17.1081 24.907 17.3672 24.1211 17.4623C23.3353 17.5575 22.5376 17.4865 21.7825 17.2541C21.723 17.2274 21.6561 17.2209 21.5924 17.2358C21.5287 17.2507 21.4721 17.2861 21.4316 17.3362C19.0058 19.7097 16.5778 22.081 14.1474 24.45C13.8543 24.7524 13.4855 24.9752 13.0772 25.0963L12.7439 25.1784Z" fill="#118BBB"/>
<path d="M44.072 10.624H45.768C45.752 11.232 45.736 12.064 45.656 13.008C45.88 15.008 46.856 21.392 52.44 23.872C52.008 24.208 51.56 24.736 51.352 25.136C47.592 23.36 45.848 19.84 45 16.976C44.2 19.984 42.504 23.216 38.888 25.216C38.632 24.832 38.152 24.352 37.656 24.032C44.2 20.64 44.024 13.184 44.072 10.624ZM65.512 13.696V12.32H58.456V13.696H65.512ZM67.08 11.136V14.88H56.968V11.136H67.08ZM57.752 20.56V21.504H66.152V20.56H57.752ZM57.752 18.64V19.568H66.152V18.64H57.752ZM57.752 16.72V17.632H66.152V16.72H57.752ZM67.704 22.576H64.648C66.248 23.04 68.168 23.728 69.368 24.24L68.056 25.28C66.856 24.736 64.696 23.92 63.016 23.44L64.184 22.576H59.56L60.68 23.328C59.4 24.096 57.352 24.864 55.72 25.264C55.448 24.96 54.968 24.464 54.6 24.192C56.12 23.84 57.992 23.184 59.048 22.576H56.28V15.648H67.704V22.576ZM72.232 20.864L73.4 21.072C73.256 22.448 72.968 23.936 72.648 24.928C72.376 24.784 71.832 24.592 71.544 24.528C71.896 23.568 72.104 22.16 72.232 20.864ZM73.976 21.024L75.032 20.784C75.24 21.856 75.416 23.216 75.48 24.128L74.36 24.416C74.328 23.488 74.152 22.096 73.976 21.024ZM75.736 20.672L76.712 20.368C77.096 21.344 77.48 22.576 77.656 23.392L76.632 23.776C76.472 22.928 76.072 21.648 75.736 20.672ZM75.528 16.912L76.552 16.56C77.048 17.568 77.528 18.896 77.688 19.728L76.616 20.144C76.568 19.936 76.52 19.696 76.44 19.424C72.968 19.968 72.44 20.096 72.136 20.272C72.056 20 71.848 19.36 71.688 19.04C72.056 18.944 72.392 18.544 72.888 17.952C73.128 17.68 73.576 17.072 74.088 16.288C72.584 16.464 72.248 16.544 72.024 16.656C71.944 16.384 71.736 15.76 71.592 15.424C71.864 15.344 72.152 15.024 72.456 14.56C72.792 14.08 73.864 12.304 74.456 10.592L75.72 11.104C75.064 12.528 74.232 14.032 73.384 15.216L74.856 15.104C75.272 14.384 75.704 13.616 76.04 12.88L77.208 13.584C76.232 15.392 74.984 17.216 73.736 18.704L76.12 18.384C75.944 17.888 75.752 17.376 75.528 16.912ZM79.896 20.928V22.8H82.008V20.928H79.896ZM82.008 16.512V14.784H79.896V16.512H82.008ZM82.008 19.6V17.856H79.896V19.6H82.008ZM86.184 22.8V24.176H79.896V25.296H78.552V16.528C78.264 16.912 77.992 17.312 77.688 17.648C77.544 17.28 77.24 16.624 77 16.272C78.216 14.832 79.272 12.48 79.784 10.656L81.192 11.072C80.936 11.84 80.616 12.64 80.248 13.44H82.52C82.328 12.832 81.88 11.888 81.512 11.184L82.76 10.656C83.16 11.36 83.624 12.256 83.832 12.864L82.6 13.44H85.96V14.784H83.352V16.512H85.64V17.856H83.352V19.6H85.672V20.928H83.352V22.8H86.184ZM91.496 10.656L92.872 11.04C92.52 12.08 92.104 13.136 91.64 14.16V25.248H90.232V16.768C89.816 17.424 89.4 18.016 88.952 18.544C88.824 18.176 88.424 17.344 88.2 16.976C89.528 15.424 90.76 13.056 91.496 10.656ZM94.104 15.008V17.424C95.416 17.104 96.616 16.64 97.64 16.016C97.048 15.52 96.568 14.992 96.168 14.448C95.784 14.928 95.384 15.344 94.984 15.712C94.792 15.536 94.408 15.232 94.104 15.008ZM100.248 13.456H96.888L96.872 13.472C97.304 14.112 97.896 14.736 98.664 15.296C99.304 14.768 99.832 14.16 100.248 13.456ZM103.048 13.456H101.8C101.288 14.448 100.616 15.296 99.816 16.016C100.856 16.576 102.104 17.008 103.56 17.264C103.304 17.568 102.92 18.112 102.744 18.48C101.176 18.128 99.848 17.536 98.744 16.832C97.624 17.6 96.312 18.176 94.888 18.608C94.744 18.336 94.376 17.856 94.104 17.552V22.624H92.808V12.512H94.104V14.64C95.256 13.616 96.264 12.128 96.84 10.56L98.2 10.896C98.024 11.36 97.816 11.808 97.576 12.256H103.048V13.456ZM100.488 19.296L101.592 19.744C100.36 21.104 98.248 22.064 96.104 22.64C95.928 22.352 95.624 21.936 95.368 21.68C97.352 21.232 99.432 20.4 100.488 19.296ZM98.968 17.808L100.088 18.272C99.096 19.264 97.496 20.064 96.008 20.544C95.816 20.288 95.48 19.904 95.192 19.68C96.568 19.296 98.136 18.608 98.968 17.808ZM101.832 21.072L103.112 21.6C101.512 23.488 98.6 24.592 95.288 25.184C95.128 24.832 94.808 24.32 94.52 24.016C97.608 23.568 100.44 22.64 101.832 21.072Z" fill="#5F6162"/>
</svg>
