<svg width="107" height="30" viewBox="0 0 107 30" fill="none" xmlns="http://www.w3.org/2000/svg">
<rect x="1" y="1" width="105" height="28" rx="5" fill="#D9D9D9"/>
<rect x="1" y="1" width="105" height="28" rx="5" stroke="#02253C" stroke-width="2"/>
<path d="M17.4984 23.0998C18.7774 23.0998 19.8142 22.0892 19.8142 20.8426C19.8142 19.5959 18.7774 18.5853 17.4984 18.5853C16.2194 18.5853 15.1826 19.5959 15.1826 20.8426C15.1826 22.0892 16.2194 23.0998 17.4984 23.0998Z" fill="#118BBB"/>
<path d="M17.5119 9.25536C19.3225 9.25505 21.1143 9.61286 22.7789 10.3071C24.4435 11.0014 25.9462 12.0177 27.1961 13.2945L29.5891 10.8662C28.0172 9.29025 26.1367 8.03801 24.0589 7.18376C21.9812 6.32951 19.7487 5.89065 17.4937 5.8932C15.2387 5.89575 13.0072 6.33967 10.9315 7.19861C8.85586 8.05756 6.97828 9.31406 5.41016 10.8936L7.84174 13.2808C9.09123 12.0081 10.5922 10.9954 12.2542 10.3035C13.9162 9.61169 15.7047 9.25513 17.5119 9.25536Z" fill="#118BBB"/>
<path d="M17.5123 13.1713C18.8068 13.1709 20.0873 13.4317 21.2733 13.9373C22.4593 14.443 23.5251 15.1824 24.4035 16.1091L26.5298 13.9647C25.3697 12.773 23.9731 11.8236 22.4249 11.1741C20.8768 10.5247 19.2093 10.1888 17.5238 10.1869C15.8384 10.185 14.1701 10.5171 12.6204 11.163C11.0706 11.8089 9.67178 12.7551 8.50879 13.9442L10.6702 16.0578C11.5476 15.1463 12.6075 14.4199 13.7843 13.9234C14.9612 13.4269 16.23 13.1709 17.5123 13.1713Z" fill="#118BBB"/>
<path d="M17.5126 17.0873C18.2913 17.0876 19.0606 17.2525 19.7676 17.5708C20.4745 17.889 21.1022 18.353 21.6073 18.9307L23.7441 16.7761C22.9578 15.9397 22.0026 15.2706 20.9385 14.811C19.8744 14.3513 18.7244 14.1108 17.5605 14.1047C16.3966 14.0986 15.2439 14.327 14.1748 14.7755C13.1057 15.224 12.1432 15.883 11.3477 16.7111L13.5161 18.8281C14.0193 18.2804 14.6353 17.8423 15.3239 17.5423C16.0125 17.2424 16.7583 17.0873 17.5126 17.0873Z" fill="#118BBB"/>
<path d="M45.608 20H43.928L37.816 10.512H37.752C37.7627 10.704 37.7733 10.9173 37.784 11.152C37.8053 11.3867 37.8213 11.6427 37.832 11.92C37.8427 12.1867 37.8533 12.464 37.864 12.752C37.8747 13.04 37.88 13.328 37.88 13.616V20H36.552V8.576H38.216L44.312 18.032H44.376C44.3653 17.904 44.3547 17.728 44.344 17.504C44.3333 17.2693 44.3227 17.0133 44.312 16.736C44.3013 16.448 44.2907 16.1547 44.28 15.856C44.2693 15.5573 44.264 15.28 44.264 15.024V8.576H45.608V20ZM56.9323 15.696C56.9323 16.4107 56.8363 17.0453 56.6443 17.6C56.4629 18.144 56.1963 18.608 55.8443 18.992C55.5029 19.376 55.0816 19.6693 54.5803 19.872C54.0896 20.064 53.5403 20.16 52.9323 20.16C52.3669 20.16 51.8443 20.064 51.3643 19.872C50.8843 19.6693 50.4683 19.376 50.1163 18.992C49.7643 18.608 49.4869 18.144 49.2843 17.6C49.0923 17.0453 48.9963 16.4107 48.9963 15.696C48.9963 14.7467 49.1563 13.9467 49.4763 13.296C49.7963 12.6347 50.2549 12.1333 50.8523 11.792C51.4496 11.44 52.1589 11.264 52.9803 11.264C53.7589 11.264 54.4416 11.44 55.0283 11.792C55.6256 12.1333 56.0896 12.6347 56.4203 13.296C56.7616 13.9467 56.9323 14.7467 56.9323 15.696ZM50.4523 15.696C50.4523 16.368 50.5376 16.9547 50.7083 17.456C50.8896 17.9467 51.1669 18.3253 51.5403 18.592C51.9136 18.8587 52.3883 18.992 52.9643 18.992C53.5403 18.992 54.0149 18.8587 54.3883 18.592C54.7616 18.3253 55.0336 17.9467 55.2043 17.456C55.3856 16.9547 55.4763 16.368 55.4763 15.696C55.4763 15.0133 55.3856 14.432 55.2043 13.952C55.0229 13.472 54.7456 13.104 54.3723 12.848C54.0096 12.5813 53.5349 12.448 52.9483 12.448C52.0736 12.448 51.4389 12.736 51.0443 13.312C50.6496 13.888 50.4523 14.6827 50.4523 15.696ZM64.1238 11.264C64.2838 11.264 64.4544 11.2747 64.6358 11.296C64.8278 11.3067 64.9931 11.328 65.1318 11.36L64.9558 12.656C64.8171 12.624 64.6624 12.5973 64.4918 12.576C64.3318 12.5547 64.1771 12.544 64.0278 12.544C63.6971 12.544 63.3824 12.6133 63.0838 12.752C62.7851 12.8907 62.5184 13.088 62.2838 13.344C62.0491 13.5893 61.8624 13.888 61.7238 14.24C61.5958 14.592 61.5318 14.9867 61.5318 15.424V20H60.1238V11.424H61.2758L61.4358 12.992H61.4998C61.6811 12.672 61.8998 12.384 62.1558 12.128C62.4118 11.8613 62.7051 11.6533 63.0358 11.504C63.3664 11.344 63.7291 11.264 64.1238 11.264ZM77.1011 11.264C78.0718 11.264 78.7971 11.5147 79.2771 12.016C79.7571 12.5067 79.9971 13.3067 79.9971 14.416V20H78.6051V14.48C78.6051 13.808 78.4611 13.3013 78.1731 12.96C77.8958 12.6187 77.4585 12.448 76.8611 12.448C76.0291 12.448 75.4318 12.688 75.0691 13.168C74.7171 13.648 74.5411 14.3467 74.5411 15.264V20H73.1491V14.48C73.1491 14.032 73.0851 13.6587 72.9571 13.36C72.8291 13.0507 72.6371 12.8213 72.3811 12.672C72.1251 12.5227 71.7945 12.448 71.3891 12.448C70.8131 12.448 70.3598 12.5707 70.0291 12.816C69.6985 13.0507 69.4585 13.3973 69.3091 13.856C69.1705 14.3147 69.1011 14.88 69.1011 15.552V20H67.6931V11.424H68.8291L69.0371 12.592H69.1171C69.2985 12.2933 69.5171 12.048 69.7731 11.856C70.0398 11.6533 70.3331 11.504 70.6531 11.408C70.9731 11.312 71.3038 11.264 71.6451 11.264C72.3065 11.264 72.8558 11.3813 73.2931 11.616C73.7411 11.8507 74.0665 12.2133 74.2691 12.704H74.3491C74.6371 12.2133 75.0265 11.8507 75.5171 11.616C76.0185 11.3813 76.5465 11.264 77.1011 11.264ZM86.8543 11.28C87.8996 11.28 88.6729 11.5093 89.1743 11.968C89.6756 12.4267 89.9263 13.1573 89.9263 14.16V20H88.9023L88.6303 18.784H88.5663C88.3209 19.0933 88.0649 19.3547 87.7983 19.568C87.5423 19.7707 87.2436 19.92 86.9023 20.016C86.5716 20.112 86.1663 20.16 85.6863 20.16C85.1743 20.16 84.7103 20.0693 84.2943 19.888C83.8889 19.7067 83.5689 19.4293 83.3343 19.056C83.0996 18.672 82.9823 18.192 82.9823 17.616C82.9823 16.7627 83.3183 16.1067 83.9903 15.648C84.6623 15.1787 85.6969 14.9227 87.0943 14.88L88.5503 14.832V14.32C88.5503 13.6053 88.3956 13.1093 88.0863 12.832C87.7769 12.5547 87.3396 12.416 86.7743 12.416C86.3263 12.416 85.8996 12.4853 85.4943 12.624C85.0889 12.752 84.7103 12.9013 84.3583 13.072L83.9263 12.016C84.2996 11.8133 84.7423 11.6427 85.2543 11.504C85.7663 11.3547 86.2996 11.28 86.8543 11.28ZM87.2703 15.856C86.2036 15.8987 85.4623 16.0693 85.0463 16.368C84.6409 16.6667 84.4383 17.088 84.4383 17.632C84.4383 18.112 84.5823 18.464 84.8703 18.688C85.1689 18.912 85.5476 19.024 86.0063 19.024C86.7316 19.024 87.3343 18.8267 87.8143 18.432C88.2943 18.0267 88.5343 17.408 88.5343 16.576V15.808L87.2703 15.856ZM94.943 20H93.535V7.84H94.943V20Z" fill="#5F6162"/>
</svg>
