<svg width="125" height="34" viewBox="0 0 125 34" fill="none" xmlns="http://www.w3.org/2000/svg">
<g clip-path="url(#clip0_852_382)">
<path d="M117 1H8C4.13401 1 1 4.13401 1 8V26C1 29.866 4.13401 33 8 33H117C120.866 33 124 29.866 124 26V8C124 4.13401 120.866 1 117 1Z" fill="#D9D9D9"/>
<path d="M117 1H8C4.13401 1 1 4.13401 1 8V26C1 29.866 4.13401 33 8 33H117C120.866 33 124 29.866 124 26V8C124 4.13401 120.866 1 117 1Z" stroke="#02253C" stroke-width="2"/>
<path d="M26.1292 7.25791V10.9721H24.1081V6.61836C24.1081 6.4823 24.0549 6.35181 23.9601 6.2556C23.8654 6.1594 23.7369 6.10535 23.6029 6.10535H14.1713C14.0373 6.10535 13.9088 6.1594 13.814 6.2556C13.7192 6.35181 13.666 6.4823 13.666 6.61836V15.2233C13.666 15.3593 13.7192 15.4898 13.814 15.586C13.9088 15.6822 14.0373 15.7363 14.1713 15.7363H23.6029C23.7369 15.7363 23.8654 15.6822 23.9601 15.586C24.0549 15.4898 24.1081 15.3593 24.1081 15.2233V12.0768H26.7389C26.8729 12.0768 27.0014 12.0227 27.0961 11.9265C27.1909 11.8303 27.2441 11.6998 27.2441 11.5638V7.25791C27.2433 7.21283 27.2252 7.16984 27.1938 7.13796C27.1624 7.10608 27.1201 7.08778 27.0757 7.08691H26.2976C26.2529 7.08691 26.2101 7.10492 26.1785 7.13699C26.1469 7.16906 26.1292 7.21256 26.1292 7.25791ZM21.7098 13.5201C21.3563 13.9086 20.9277 14.2188 20.4506 14.4312C19.9736 14.6437 19.4585 14.7538 18.9376 14.7547C18.3206 14.7523 17.7128 14.6035 17.1624 14.3204C16.652 14.0551 16.2127 13.6677 15.8824 13.1917C15.367 12.468 15.1151 11.585 15.1697 10.6936C15.2244 9.80213 15.5823 8.95766 16.1822 8.30445L16.226 8.25657C16.5749 7.88803 16.9933 7.59454 17.4563 7.39359C17.9192 7.19264 18.4173 7.08834 18.9208 7.08691C19.0218 7.08691 19.1229 7.08691 19.2239 7.08691C20.1236 7.16142 20.9677 7.55901 21.6048 8.20836C22.2419 8.85771 22.6302 9.71631 22.7001 10.6301C22.742 11.1552 22.6755 11.6835 22.505 12.1811C22.3345 12.6787 22.0637 13.1347 21.7098 13.5201Z" fill="#717071"/>
<path d="M22.2045 10.6505C22.1537 10.0104 21.9214 9.39894 21.5357 8.88999C21.15 8.38105 20.6273 7.99643 20.0309 7.78264C19.4345 7.56885 18.7899 7.53503 18.1749 7.68528C17.56 7.83553 17.0011 8.16341 16.5657 8.62928C16.189 9.03181 15.9174 9.52365 15.7758 10.06C15.6342 10.5963 15.6271 11.1601 15.755 11.7C15.8829 12.2399 16.1419 12.7387 16.5083 13.151C16.8746 13.5632 17.3368 13.8758 17.8527 14.0603C18.3685 14.2448 18.9216 14.2953 19.4616 14.2072C20.0016 14.1191 20.5112 13.8952 20.9442 13.5559C21.3771 13.2166 21.7195 12.7727 21.9402 12.2646C22.161 11.7565 22.253 11.2005 22.2078 10.6471L22.2045 10.6505ZM20.6382 12.1656C20.7058 12.2353 20.7438 12.3293 20.7438 12.4272C20.7438 12.5251 20.7058 12.6191 20.6382 12.6889C20.6043 12.7238 20.564 12.7515 20.5194 12.7703C20.4748 12.7891 20.427 12.7986 20.3788 12.7983C20.286 12.7934 20.1989 12.7516 20.1363 12.682L18.9977 11.5534L17.876 12.682C17.8425 12.7169 17.8024 12.7446 17.7581 12.7635C17.7139 12.7824 17.6664 12.7921 17.6184 12.7921C17.5704 12.7921 17.5228 12.7824 17.4786 12.7635C17.4343 12.7446 17.3942 12.7169 17.3607 12.682C17.3264 12.648 17.2991 12.6073 17.2805 12.5623C17.2618 12.5174 17.2523 12.4691 17.2523 12.4204C17.2523 12.3717 17.2618 12.3234 17.2805 12.2785C17.2991 12.2335 17.3264 12.1928 17.3607 12.1588L18.4824 11.0199L17.3607 9.88103C17.3268 9.84667 17.3 9.80588 17.2817 9.76099C17.2634 9.7161 17.2539 9.66798 17.2539 9.61939C17.2539 9.5708 17.2634 9.52269 17.2817 9.4778C17.3 9.43291 17.3268 9.39212 17.3607 9.35776C17.429 9.28837 17.5217 9.24939 17.6184 9.24939C17.6662 9.24939 17.7136 9.25896 17.7578 9.27755C17.802 9.29615 17.8422 9.3234 17.876 9.35776L18.9977 10.4966L20.1363 9.3646C20.2065 9.30494 20.2961 9.27406 20.3876 9.27802C20.479 9.28198 20.5657 9.32049 20.6307 9.38601C20.6956 9.45152 20.7341 9.53931 20.7386 9.63216C20.7431 9.725 20.7133 9.8162 20.655 9.88787L19.5333 11.0267L20.6382 12.1656Z" fill="#E73828"/>
<path d="M14.5984 24.9158L12.291 22.7885V19.1324H16.8316V20.4458C16.8316 20.7287 16.8865 21.0089 16.9932 21.2703C17.0998 21.5317 17.2561 21.7692 17.4532 21.9693C17.6503 22.1694 17.8842 22.3281 18.1417 22.4364C18.3991 22.5447 18.6751 22.6004 18.9538 22.6004C19.4898 22.6004 20.0038 22.3842 20.3829 21.9994C20.7619 21.6145 20.9748 21.0926 20.9748 20.5484V19.1324H25.5255V22.7885L23.2148 24.9158H14.5984Z" fill="#717071"/>
<path d="M26.9238 16.3074H10.8935C10.8042 16.3074 10.7185 16.3435 10.6553 16.4076C10.5921 16.4718 10.5566 16.5587 10.5566 16.6494V23.322C10.5563 23.3695 10.5658 23.4165 10.5843 23.4601C10.6029 23.5036 10.6302 23.5428 10.6644 23.5751L14.2114 26.8413H15.8956V27.5526C15.8956 27.6434 15.9311 27.7303 15.9943 27.7945C16.0574 27.8586 16.1431 27.8947 16.2324 27.8947H21.5882C21.6776 27.8947 21.7632 27.8586 21.8264 27.7945C21.8896 27.7303 21.9251 27.6434 21.9251 27.5526V26.8413H23.6093L27.1562 23.5751C27.1911 23.5431 27.219 23.5041 27.2382 23.4605C27.2573 23.4169 27.2673 23.3697 27.2674 23.322V16.6494C27.2674 16.604 27.2585 16.5589 27.2411 16.517C27.2238 16.475 27.1984 16.437 27.1664 16.4052C27.1344 16.3733 27.0964 16.3483 27.0548 16.3315C27.0131 16.3147 26.9686 16.3065 26.9238 16.3074ZM26.0312 23.0142L23.4105 25.4288H14.4101L11.7895 23.0142V18.6194H17.3339V20.4936C17.3348 20.9166 17.5009 21.322 17.7958 21.6208C18.0907 21.9196 18.4903 22.0874 18.907 22.0874C19.3224 22.0856 19.7203 21.917 20.0137 21.6184C20.3072 21.3198 20.4724 20.9154 20.4733 20.4936V18.6194H26.0312V23.0142Z" fill="#717071"/>
<path d="M61.936 23H55.552V11.576H61.936V12.84H56.992V16.408H61.648V17.656H56.992V21.736H61.936V23ZM69.2106 14.264C69.3706 14.264 69.5413 14.2747 69.7226 14.296C69.9146 14.3067 70.08 14.328 70.2186 14.36L70.0426 15.656C69.904 15.624 69.7493 15.5973 69.5786 15.576C69.4186 15.5547 69.264 15.544 69.1146 15.544C68.784 15.544 68.4693 15.6133 68.1706 15.752C67.872 15.8907 67.6053 16.088 67.3706 16.344C67.136 16.5893 66.9493 16.888 66.8106 17.24C66.6826 17.592 66.6186 17.9867 66.6186 18.424V23H65.2106V14.424H66.3626L66.5226 15.992H66.5866C66.768 15.672 66.9866 15.384 67.2426 15.128C67.4986 14.8613 67.792 14.6533 68.1226 14.504C68.4533 14.344 68.816 14.264 69.2106 14.264ZM76.78 14.264C76.94 14.264 77.1107 14.2747 77.292 14.296C77.484 14.3067 77.6493 14.328 77.788 14.36L77.612 15.656C77.4733 15.624 77.3187 15.5973 77.148 15.576C76.988 15.5547 76.8333 15.544 76.684 15.544C76.3533 15.544 76.0387 15.6133 75.74 15.752C75.4413 15.8907 75.1747 16.088 74.94 16.344C74.7053 16.5893 74.5187 16.888 74.38 17.24C74.252 17.592 74.188 17.9867 74.188 18.424V23H72.78V14.424H73.932L74.092 15.992H74.156C74.3373 15.672 74.556 15.384 74.812 15.128C75.068 14.8613 75.3613 14.6533 75.692 14.504C76.0227 14.344 76.3853 14.264 76.78 14.264ZM87.4929 18.696C87.4929 19.4107 87.3969 20.0453 87.2049 20.6C87.0235 21.144 86.7569 21.608 86.4049 21.992C86.0635 22.376 85.6422 22.6693 85.1409 22.872C84.6502 23.064 84.1009 23.16 83.4929 23.16C82.9275 23.16 82.4049 23.064 81.9249 22.872C81.4449 22.6693 81.0289 22.376 80.6769 21.992C80.3249 21.608 80.0475 21.144 79.8449 20.6C79.6529 20.0453 79.5569 19.4107 79.5569 18.696C79.5569 17.7467 79.7169 16.9467 80.0369 16.296C80.3569 15.6347 80.8155 15.1333 81.4129 14.792C82.0102 14.44 82.7195 14.264 83.5409 14.264C84.3195 14.264 85.0022 14.44 85.5889 14.792C86.1862 15.1333 86.6502 15.6347 86.9809 16.296C87.3222 16.9467 87.4929 17.7467 87.4929 18.696ZM81.0129 18.696C81.0129 19.368 81.0982 19.9547 81.2689 20.456C81.4502 20.9467 81.7275 21.3253 82.1009 21.592C82.4742 21.8587 82.9489 21.992 83.5249 21.992C84.1009 21.992 84.5755 21.8587 84.9489 21.592C85.3222 21.3253 85.5942 20.9467 85.7649 20.456C85.9462 19.9547 86.0369 19.368 86.0369 18.696C86.0369 18.0133 85.9462 17.432 85.7649 16.952C85.5835 16.472 85.3062 16.104 84.9329 15.848C84.5702 15.5813 84.0955 15.448 83.5089 15.448C82.6342 15.448 81.9995 15.736 81.6049 16.312C81.2102 16.888 81.0129 17.6827 81.0129 18.696ZM94.6844 14.264C94.8444 14.264 95.015 14.2747 95.1964 14.296C95.3884 14.3067 95.5537 14.328 95.6924 14.36L95.5164 15.656C95.3777 15.624 95.223 15.5973 95.0524 15.576C94.8924 15.5547 94.7377 15.544 94.5884 15.544C94.2577 15.544 93.943 15.6133 93.6444 15.752C93.3457 15.8907 93.079 16.088 92.8444 16.344C92.6097 16.5893 92.423 16.888 92.2844 17.24C92.1564 17.592 92.0924 17.9867 92.0924 18.424V23H90.6844V14.424H91.8364L91.9964 15.992H92.0604C92.2417 15.672 92.4604 15.384 92.7164 15.128C92.9724 14.8613 93.2657 14.6533 93.5964 14.504C93.927 14.344 94.2897 14.264 94.6844 14.264Z" fill="#5F6162"/>
</g>
<defs>
<clipPath id="clip0_852_382">
<rect width="125" height="34" fill="white"/>
</clipPath>
</defs>
</svg>
