<svg width="125" height="34" viewBox="0 0 125 34" fill="none" xmlns="http://www.w3.org/2000/svg">
<rect x="1" y="1" width="123" height="32" rx="7" fill="#D9D9D9"/>
<rect x="1" y="1" width="123" height="32" rx="7" stroke="#02253C" stroke-width="2"/>
<path d="M26.1292 7.25791V10.9721H24.1081V6.61836C24.1081 6.4823 24.0549 6.35181 23.9601 6.2556C23.8654 6.1594 23.7369 6.10535 23.6029 6.10535H14.1713C14.0373 6.10535 13.9088 6.1594 13.814 6.2556C13.7192 6.35181 13.666 6.4823 13.666 6.61836V15.2233C13.666 15.3593 13.7192 15.4898 13.814 15.586C13.9088 15.6822 14.0373 15.7363 14.1713 15.7363H23.6029C23.7369 15.7363 23.8654 15.6822 23.9601 15.586C24.0549 15.4898 24.1081 15.3593 24.1081 15.2233V12.0768H26.7389C26.8729 12.0768 27.0014 12.0227 27.0961 11.9265C27.1909 11.8303 27.2441 11.6998 27.2441 11.5638V7.25791C27.2433 7.21283 27.2252 7.16984 27.1938 7.13796C27.1624 7.10608 27.1201 7.08778 27.0757 7.08691H26.2976C26.2529 7.08691 26.2101 7.10492 26.1785 7.13699C26.1469 7.16906 26.1292 7.21256 26.1292 7.25791ZM21.7098 13.5201C21.3563 13.9086 20.9277 14.2188 20.4506 14.4312C19.9736 14.6437 19.4585 14.7538 18.9376 14.7547C18.3206 14.7523 17.7128 14.6035 17.1624 14.3204C16.652 14.0551 16.2127 13.6677 15.8824 13.1917C15.367 12.468 15.1151 11.585 15.1697 10.6936C15.2244 9.80213 15.5823 8.95766 16.1822 8.30445L16.226 8.25657C16.5749 7.88803 16.9933 7.59454 17.4563 7.39359C17.9192 7.19264 18.4173 7.08834 18.9208 7.08691C19.0218 7.08691 19.1229 7.08691 19.2239 7.08691C20.1236 7.16142 20.9677 7.55901 21.6048 8.20836C22.2419 8.85771 22.6302 9.71631 22.7001 10.6301C22.742 11.1552 22.6755 11.6835 22.505 12.1811C22.3345 12.6787 22.0637 13.1347 21.7098 13.5201Z" fill="#717071"/>
<path d="M22.2045 10.6506C22.1537 10.0105 21.9214 9.399 21.5357 8.89005C21.15 8.38111 20.6273 7.99649 20.0309 7.7827C19.4345 7.56891 18.7899 7.53509 18.1749 7.68534C17.56 7.83559 17.0011 8.16347 16.5657 8.62934C16.189 9.03187 15.9174 9.52371 15.7758 10.0601C15.6342 10.5964 15.6271 11.1602 15.755 11.7001C15.8829 12.24 16.1419 12.7388 16.5083 13.1511C16.8746 13.5633 17.3368 13.8759 17.8527 14.0604C18.3685 14.2449 18.9216 14.2954 19.4616 14.2073C20.0016 14.1192 20.5112 13.8953 20.9442 13.556C21.3771 13.2167 21.7195 12.7728 21.9402 12.2647C22.161 11.7566 22.253 11.2006 22.2078 10.6472L22.2045 10.6506ZM20.6382 12.1657C20.7058 12.2354 20.7438 12.3294 20.7438 12.4273C20.7438 12.5252 20.7058 12.6192 20.6382 12.689C20.6043 12.7239 20.564 12.7516 20.5194 12.7704C20.4748 12.7892 20.427 12.7987 20.3788 12.7984C20.286 12.7935 20.1989 12.7517 20.1363 12.6821L18.9977 11.5535L17.876 12.6821C17.8425 12.717 17.8024 12.7447 17.7581 12.7636C17.7139 12.7825 17.6664 12.7922 17.6184 12.7922C17.5704 12.7922 17.5228 12.7825 17.4786 12.7636C17.4343 12.7447 17.3942 12.717 17.3607 12.6821C17.3264 12.6481 17.2991 12.6074 17.2805 12.5624C17.2618 12.5175 17.2523 12.4692 17.2523 12.4205C17.2523 12.3718 17.2618 12.3235 17.2805 12.2786C17.2991 12.2336 17.3264 12.1929 17.3607 12.1589L18.4824 11.02L17.3607 9.88109C17.3268 9.84673 17.3 9.80594 17.2817 9.76105C17.2634 9.71616 17.2539 9.66804 17.2539 9.61945C17.2539 9.57086 17.2634 9.52275 17.2817 9.47786C17.3 9.43297 17.3268 9.39218 17.3607 9.35782C17.429 9.28843 17.5217 9.24945 17.6184 9.24945C17.6662 9.24945 17.7136 9.25902 17.7578 9.27761C17.802 9.29621 17.8422 9.32346 17.876 9.35782L18.9977 10.4967L20.1363 9.36466C20.2065 9.305 20.2961 9.27412 20.3876 9.27808C20.479 9.28204 20.5657 9.32055 20.6307 9.38607C20.6956 9.45158 20.7341 9.53937 20.7386 9.63222C20.7431 9.72506 20.7133 9.81626 20.655 9.88793L19.5333 11.0268L20.6382 12.1657Z" fill="#E73828"/>
<path d="M14.5984 24.9158L12.291 22.7885V19.1324H16.8316V20.4458C16.8316 20.7287 16.8865 21.0089 16.9932 21.2703C17.0998 21.5317 17.2561 21.7692 17.4532 21.9693C17.6503 22.1694 17.8842 22.3281 18.1417 22.4364C18.3991 22.5447 18.6751 22.6004 18.9538 22.6004C19.4898 22.6004 20.0038 22.3842 20.3829 21.9994C20.7619 21.6145 20.9748 21.0926 20.9748 20.5484V19.1324H25.5255V22.7885L23.2148 24.9158H14.5984Z" fill="#717071"/>
<path d="M26.9238 16.3074H10.8935C10.8042 16.3074 10.7185 16.3435 10.6553 16.4076C10.5921 16.4718 10.5566 16.5587 10.5566 16.6494V23.322C10.5563 23.3695 10.5658 23.4165 10.5843 23.4601C10.6029 23.5036 10.6302 23.5428 10.6644 23.5751L14.2114 26.8413H15.8956V27.5526C15.8956 27.6434 15.9311 27.7303 15.9943 27.7945C16.0574 27.8586 16.1431 27.8947 16.2324 27.8947H21.5882C21.6776 27.8947 21.7632 27.8586 21.8264 27.7945C21.8896 27.7303 21.9251 27.6434 21.9251 27.5526V26.8413H23.6093L27.1562 23.5751C27.1911 23.5431 27.219 23.5041 27.2382 23.4605C27.2573 23.4169 27.2673 23.3697 27.2674 23.322V16.6494C27.2674 16.604 27.2585 16.5589 27.2411 16.517C27.2238 16.475 27.1984 16.437 27.1664 16.4052C27.1344 16.3733 27.0964 16.3483 27.0548 16.3315C27.0131 16.3147 26.9686 16.3065 26.9238 16.3074ZM26.0312 23.0142L23.4105 25.4288H14.4101L11.7895 23.0142V18.6194H17.3339V20.4936C17.3348 20.9166 17.5009 21.322 17.7958 21.6208C18.0907 21.9196 18.4903 22.0874 18.907 22.0874C19.3224 22.0856 19.7203 21.917 20.0137 21.6184C20.3072 21.3198 20.4724 20.9154 20.4733 20.4936V18.6194H26.0312V23.0142Z" fill="#717071"/>
<path d="M36.592 14.064V16.544H35.184V13.056H41.216V12.208H35.872V11.168H48.08V12.208H42.672V13.056H48.848V16.544H47.36V14.064H42.672V17.552H41.216V14.064H36.592ZM47.184 16.72L46.88 17.68C46.032 17.376 44.4 16.992 43.168 16.8L43.488 15.952C44.688 16.064 46.304 16.416 47.184 16.72ZM46.272 14.128L46.896 14.944C46 15.296 44.752 15.6 43.888 15.776L43.392 15.056C44.256 14.848 45.52 14.4 46.272 14.128ZM37.104 17.664L36.704 16.592C37.712 16.464 39.072 16.256 40.496 16.048L40.544 16.928C39.328 17.216 38.144 17.472 37.104 17.664ZM37.152 14.992L37.584 14.224C38.544 14.4 39.824 14.72 40.512 15.008L40.112 15.856C39.424 15.568 38.144 15.2 37.152 14.992ZM38.016 21.888H41.152V20.96H38.016V21.888ZM41.152 19.104H38.016V20.016H41.152V19.104ZM45.984 20.016V19.104H42.576V20.016H45.984ZM42.576 21.888H45.984V20.96H42.576V21.888ZM43.76 23.888H47.072C47.888 23.888 48.048 23.632 48.144 22.144C48.448 22.368 49.008 22.544 49.392 22.624C49.2 24.544 48.784 25.056 47.168 25.056H43.664C41.696 25.056 41.152 24.672 41.152 23.232V22.928H38.016V23.696H36.592V18.064H47.44V22.928H42.576V23.216C42.576 23.776 42.768 23.888 43.76 23.888ZM55.104 22.096V17.376H53.824V22.096H55.104ZM56.256 23.28H53.824V24.528H52.688V19.584C52.48 20.016 52.272 20.4 52.016 20.768C51.92 20.416 51.616 19.664 51.408 19.312C52.432 17.68 52.976 15.216 53.264 12.624H51.648V11.424H56.464V12.624H54.528C54.352 13.856 54.144 15.072 53.872 16.208H56.256V23.28ZM59.424 21.184L60.416 21.024C60.784 22.224 61.152 23.76 61.296 24.784L60.224 24.992C60.192 24.672 60.144 24.32 60.064 23.936C57.408 24.368 56.96 24.48 56.688 24.624C56.608 24.384 56.416 23.744 56.256 23.408C56.592 23.328 56.928 22.88 57.36 22.208C57.632 21.84 58.192 20.88 58.8 19.664C57.424 19.824 57.088 19.888 56.864 20C56.8 19.744 56.592 19.104 56.448 18.784C56.672 18.72 56.88 18.432 57.104 18.032C57.312 17.648 58.032 16.128 58.368 14.72L59.6 15.248C59.2 16.384 58.624 17.584 58.032 18.56L59.36 18.448C59.648 17.824 59.92 17.152 60.144 16.512L61.392 17.056C60.496 19.184 59.296 21.376 58.096 23.088L59.856 22.864C59.728 22.288 59.568 21.696 59.424 21.184ZM66.448 24.752L65.376 25.008C65.344 24.672 65.264 24.304 65.168 23.904C62.336 24.352 61.84 24.464 61.568 24.624C61.504 24.368 61.28 23.712 61.12 23.36C61.456 23.28 61.76 22.832 62.176 22.16C62.416 21.792 62.944 20.848 63.488 19.648C62.064 19.808 61.712 19.888 61.504 20C61.44 19.728 61.216 19.072 61.056 18.736C61.28 18.672 61.488 18.384 61.696 17.984C61.888 17.6 62.528 16.096 62.832 14.704H56.72V13.36H59.264C59.04 12.688 58.576 11.76 58.096 11.088L59.28 10.608C59.824 11.328 60.336 12.304 60.576 12.96L59.664 13.36H62.24C62.656 12.544 63.152 11.408 63.392 10.592L64.848 11.024C64.464 11.792 64.032 12.656 63.632 13.36H66.272V14.704H62.912L64.112 15.232C63.744 16.368 63.216 17.568 62.64 18.544L64.032 18.448C64.288 17.808 64.544 17.136 64.752 16.496L66.032 17.024C65.216 19.152 64.08 21.36 62.944 23.072L64.88 22.816C64.72 22.256 64.528 21.696 64.336 21.184L65.36 20.944C65.856 22.16 66.32 23.712 66.448 24.752ZM73.888 12.288H70.752V13.296H73.888V12.288ZM70.752 15.312H73.888V14.256H70.752V15.312ZM75.28 16.384H70.752V25.264H69.328V11.216H75.28V16.384ZM73.456 16.736L74.624 17.104C74.368 17.664 74.048 18.24 73.696 18.784V24.736H72.512V20.368C72.208 20.72 71.904 21.04 71.6 21.312C71.44 21.088 71.024 20.56 70.784 20.32C71.84 19.44 72.864 18.096 73.456 16.736ZM77.936 15.312H81.168V14.256H77.936V15.312ZM81.168 12.288H77.936V13.296H81.168V12.288ZM82.592 11.216V23.488C82.592 24.256 82.496 24.672 82.032 24.928C81.584 25.168 80.896 25.2 79.92 25.2C79.888 24.976 79.824 24.656 79.728 24.352C79.52 24.624 79.296 24.736 79.04 24.736C78.16 24.704 77.488 24.176 76.976 23.28C76.352 23.76 75.68 24.16 74.944 24.512C74.768 24.256 74.384 23.824 74.112 23.616C74.976 23.248 75.792 22.768 76.496 22.224C76.256 21.552 76.064 20.768 75.92 19.904L74.128 20.112L73.968 19.072L75.776 18.864C75.712 18.24 75.648 17.584 75.616 16.912H76.784C76.816 17.552 76.864 18.16 76.928 18.736L79.728 18.432L79.888 19.456L77.072 19.776C77.168 20.368 77.296 20.912 77.44 21.392C77.904 20.912 78.272 20.4 78.544 19.872L79.6 20.192C79.168 21.04 78.592 21.824 77.888 22.496C78.208 23.088 78.576 23.424 79.008 23.44C79.232 23.44 79.376 22.96 79.456 22.016C79.68 22.272 80.08 22.528 80.304 22.64C80.224 23.088 80.128 23.456 80.032 23.76C80.432 23.76 80.784 23.76 80.912 23.76C81.104 23.744 81.168 23.68 81.168 23.488V16.384H76.528V11.216H82.592ZM79.248 17.84L78.48 18.496C78.224 18.144 77.68 17.68 77.2 17.344L77.92 16.752C78.416 17.056 78.976 17.504 79.248 17.84ZM94.64 14.88L94.624 14.912C94.944 16.672 95.456 18.32 96.16 19.712C96.864 18.384 97.312 16.784 97.632 14.88H94.64ZM90.64 22.16V19.072H87.616V22.16H90.64ZM100.24 14.88H99.12C98.688 17.424 98.032 19.488 97.008 21.152C97.872 22.416 98.976 23.376 100.368 23.984C100.032 24.288 99.552 24.864 99.344 25.28C97.984 24.608 96.928 23.632 96.064 22.448C95.056 23.616 93.776 24.544 92.16 25.28C92.016 24.928 91.6 24.256 91.312 23.952C93.008 23.264 94.272 22.352 95.248 21.136C94.592 19.904 94.08 18.512 93.68 16.976C93.392 17.504 93.088 17.984 92.752 18.4C92.592 18.24 92.336 18.032 92.064 17.808V23.552H87.616V24.576H86.24V17.68H88.416V14.976H85.568V13.6H88.416V10.592H89.904V13.6H92.624V14.976H89.904V17.68H91.888C91.744 17.568 91.616 17.472 91.504 17.408C92.88 15.856 93.776 13.28 94.24 10.576L95.744 10.816C95.584 11.728 95.36 12.624 95.104 13.472H100.24V14.88ZM109.568 13.2L110.496 12.944H108.224V11.776H111.584C111.488 11.456 111.36 11.12 111.264 10.832L112.576 10.496C112.768 10.88 112.944 11.376 113.072 11.776H116.496V12.944H110.848C111.056 13.344 111.248 13.84 111.328 14.176L111.024 14.272H113.264C113.456 13.84 113.648 13.312 113.76 12.944L115.216 13.248L114.672 14.272H117.04V15.456H107.584V14.272H109.952C109.856 13.92 109.696 13.536 109.568 13.2ZM106.896 11.168L107.888 11.728C107.392 13.04 106.816 14.608 106.304 15.84C107.424 17.136 107.68 18.288 107.696 19.248C107.696 20.176 107.488 20.848 107.008 21.2C106.768 21.36 106.48 21.456 106.128 21.52C105.824 21.552 105.408 21.552 105.024 21.536C105.008 21.184 104.88 20.608 104.688 20.24C105.008 20.288 105.312 20.288 105.552 20.272C105.744 20.256 105.904 20.224 106.048 20.128C106.272 19.968 106.368 19.568 106.368 19.088C106.368 18.272 106.096 17.2 104.976 16C105.408 14.96 105.84 13.616 106.16 12.56H104.272V25.216H102.96V11.216H106.688L106.896 11.168ZM110.016 18.976V19.872H114.592V18.976H110.016ZM110.016 17.232V18.112H114.592V17.232H110.016ZM117.104 21.824V23.056H113.136V25.248H111.68V23.056H107.616V21.824H111.68V20.848H108.64V16.24H116.032V20.848H113.136V21.824H117.104Z" fill="#5F6162"/>
</svg>
