<svg width="121" height="30" viewBox="0 0 121 30" fill="none" xmlns="http://www.w3.org/2000/svg">
<g clip-path="url(#clip0_852_391)">
<path d="M115 0H6C2.68629 0 0 2.68629 0 6V24C0 27.3137 2.68629 30 6 30H115C118.314 30 121 27.3137 121 24V6C121 2.68629 118.314 0 115 0Z" fill="#D9D9D9"/>
<path d="M24.1292 5.25791V8.97211H22.1081V4.61836C22.1081 4.4823 22.0549 4.35181 21.9601 4.2556C21.8654 4.1594 21.7369 4.10535 21.6029 4.10535H12.1713C12.0373 4.10535 11.9088 4.1594 11.814 4.2556C11.7192 4.35181 11.666 4.4823 11.666 4.61836V13.2233C11.666 13.3593 11.7192 13.4898 11.814 13.586C11.9088 13.6822 12.0373 13.7363 12.1713 13.7363H21.6029C21.7369 13.7363 21.8654 13.6822 21.9601 13.586C22.0549 13.4898 22.1081 13.3593 22.1081 13.2233V10.0768H24.7389C24.8729 10.0768 25.0014 10.0227 25.0961 9.92654C25.1909 9.83033 25.2441 9.69984 25.2441 9.56379V5.25791C25.2433 5.21283 25.2252 5.16984 25.1938 5.13796C25.1624 5.10608 25.1201 5.08778 25.0757 5.08691H24.2976C24.2529 5.08691 24.2101 5.10492 24.1785 5.13699C24.1469 5.16906 24.1292 5.21256 24.1292 5.25791ZM19.7098 11.5201C19.3563 11.9086 18.9277 12.2188 18.4506 12.4312C17.9736 12.6437 17.4585 12.7538 16.9376 12.7547C16.3206 12.7523 15.7128 12.6035 15.1624 12.3204C14.652 12.0551 14.2127 11.6677 13.8824 11.1917C13.367 10.468 13.1151 9.58497 13.1697 8.69355C13.2244 7.80213 13.5823 6.95766 14.1822 6.30445L14.226 6.25657C14.5749 5.88803 14.9933 5.59454 15.4563 5.39359C15.9192 5.19264 16.4173 5.08834 16.9208 5.08691C17.0218 5.08691 17.1229 5.08691 17.2239 5.08691C18.1236 5.16142 18.9677 5.55901 19.6048 6.20836C20.2419 6.85771 20.6302 7.71631 20.7001 8.63011C20.742 9.15525 20.6755 9.68349 20.505 10.1811C20.3345 10.6787 20.0637 11.1347 19.7098 11.5201Z" fill="#717071"/>
<path d="M20.2045 8.65067C20.1537 8.01055 19.9214 7.39906 19.5357 6.89011C19.15 6.38117 18.6273 5.99655 18.0309 5.78276C17.4345 5.56897 16.7899 5.53516 16.1749 5.6854C15.56 5.83565 15.0011 6.16353 14.5657 6.6294C14.189 7.03193 13.9174 7.52377 13.7758 8.06013C13.6342 8.59648 13.6271 9.16029 13.755 9.70017C13.8829 10.2401 14.1419 10.7389 14.5083 11.1511C14.8746 11.5634 15.3368 11.876 15.8527 12.0605C16.3685 12.245 16.9216 12.2955 17.4616 12.2073C18.0016 12.1192 18.5112 11.8953 18.9442 11.556C19.3771 11.2167 19.7195 10.7728 19.9402 10.2648C20.161 9.75671 20.253 9.20065 20.2078 8.64725L20.2045 8.65067ZM18.6382 10.1658C18.7058 10.2355 18.7438 10.3295 18.7438 10.4274C18.7438 10.5253 18.7058 10.6193 18.6382 10.689C18.6043 10.724 18.564 10.7517 18.5194 10.7705C18.4748 10.7893 18.427 10.7988 18.3788 10.7985C18.286 10.7935 18.1989 10.7518 18.1363 10.6822L16.9977 9.55357L15.876 10.6822C15.8425 10.717 15.8024 10.7447 15.7581 10.7636C15.7139 10.7825 15.6664 10.7923 15.6184 10.7923C15.5704 10.7923 15.5228 10.7825 15.4786 10.7636C15.4343 10.7447 15.3942 10.717 15.3607 10.6822C15.3264 10.6481 15.2991 10.6074 15.2805 10.5625C15.2618 10.5176 15.2523 10.4693 15.2523 10.4206C15.2523 10.3718 15.2618 10.3236 15.2805 10.2786C15.2991 10.2337 15.3264 10.193 15.3607 10.1589L16.4824 9.02004L15.3607 7.88115C15.3268 7.84679 15.3 7.806 15.2817 7.76111C15.2634 7.71622 15.2539 7.66811 15.2539 7.61952C15.2539 7.57093 15.2634 7.52281 15.2817 7.47792C15.3 7.43303 15.3268 7.39224 15.3607 7.35788C15.429 7.28849 15.5217 7.24951 15.6184 7.24951C15.6662 7.24951 15.7136 7.25908 15.7578 7.27767C15.802 7.29627 15.8422 7.32352 15.876 7.35788L16.9977 8.49676L18.1363 7.36472C18.2065 7.30506 18.2961 7.27418 18.3876 7.27814C18.479 7.2821 18.5657 7.32061 18.6307 7.38613C18.6956 7.45164 18.7341 7.53943 18.7386 7.63228C18.7431 7.72512 18.7133 7.81632 18.655 7.88799L17.5333 9.02688L18.6382 10.1658Z" fill="#E73828"/>
<path d="M12.5984 22.9158L10.291 20.7885V17.1324H14.8316V18.4458C14.8316 18.7287 14.8865 19.0089 14.9932 19.2703C15.0998 19.5317 15.2561 19.7692 15.4532 19.9693C15.6503 20.1694 15.8842 20.3281 16.1417 20.4364C16.3991 20.5447 16.6751 20.6004 16.9538 20.6004C17.4898 20.6004 18.0038 20.3842 18.3829 19.9994C18.7619 19.6145 18.9748 19.0926 18.9748 18.5484V17.1324H23.5255V20.7885L21.2148 22.9158H12.5984Z" fill="#717071"/>
<path d="M24.9238 14.3074H8.89349C8.80415 14.3074 8.71848 14.3435 8.65531 14.4076C8.59214 14.4718 8.55665 14.5587 8.55665 14.6494V21.322C8.55633 21.3695 8.56575 21.4165 8.58431 21.4601C8.60287 21.5036 8.63016 21.5428 8.66444 21.5751L12.2114 24.8413H13.8956V25.5526C13.8956 25.6434 13.9311 25.7303 13.9943 25.7945C14.0574 25.8586 14.1431 25.8947 14.2324 25.8947H19.5882C19.6776 25.8947 19.7632 25.8586 19.8264 25.7945C19.8896 25.7303 19.9251 25.6434 19.9251 25.5526V24.8413H21.6093L25.1562 21.5751C25.1911 21.5431 25.219 21.5041 25.2382 21.4605C25.2573 21.4169 25.2673 21.3697 25.2674 21.322V14.6494C25.2674 14.604 25.2585 14.5589 25.2411 14.517C25.2238 14.475 25.1984 14.437 25.1664 14.4052C25.1344 14.3733 25.0964 14.3483 25.0548 14.3315C25.0131 14.3147 24.9686 14.3065 24.9238 14.3074ZM24.0312 21.0142L21.4105 23.4288H12.4101L9.78949 21.0142V16.6194H15.3339V18.4936C15.3348 18.9166 15.5009 19.322 15.7958 19.6208C16.0907 19.9196 16.4903 20.0874 16.907 20.0874C17.3224 20.0856 17.7203 19.917 18.0137 19.6184C18.3072 19.3198 18.4724 18.9154 18.4733 18.4936V16.6194H24.0312V21.0142Z" fill="#717071"/>
<path d="M59.936 21H53.552V9.576H59.936V10.84H54.992V14.408H59.648V15.656H54.992V19.736H59.936V21ZM67.2106 12.264C67.3706 12.264 67.5413 12.2747 67.7226 12.296C67.9146 12.3067 68.08 12.328 68.2186 12.36L68.0426 13.656C67.904 13.624 67.7493 13.5973 67.5786 13.576C67.4186 13.5547 67.264 13.544 67.1146 13.544C66.784 13.544 66.4693 13.6133 66.1706 13.752C65.872 13.8907 65.6053 14.088 65.3706 14.344C65.136 14.5893 64.9493 14.888 64.8106 15.24C64.6826 15.592 64.6186 15.9867 64.6186 16.424V21H63.2106V12.424H64.3626L64.5226 13.992H64.5866C64.768 13.672 64.9866 13.384 65.2426 13.128C65.4986 12.8613 65.792 12.6533 66.1226 12.504C66.4533 12.344 66.816 12.264 67.2106 12.264ZM74.78 12.264C74.94 12.264 75.1107 12.2747 75.292 12.296C75.484 12.3067 75.6493 12.328 75.788 12.36L75.612 13.656C75.4733 13.624 75.3187 13.5973 75.148 13.576C74.988 13.5547 74.8333 13.544 74.684 13.544C74.3533 13.544 74.0387 13.6133 73.74 13.752C73.4413 13.8907 73.1747 14.088 72.94 14.344C72.7053 14.5893 72.5187 14.888 72.38 15.24C72.252 15.592 72.188 15.9867 72.188 16.424V21H70.78V12.424H71.932L72.092 13.992H72.156C72.3373 13.672 72.556 13.384 72.812 13.128C73.068 12.8613 73.3613 12.6533 73.692 12.504C74.0227 12.344 74.3853 12.264 74.78 12.264ZM85.4929 16.696C85.4929 17.4107 85.3969 18.0453 85.2049 18.6C85.0235 19.144 84.7569 19.608 84.4049 19.992C84.0635 20.376 83.6422 20.6693 83.1409 20.872C82.6502 21.064 82.1009 21.16 81.4929 21.16C80.9275 21.16 80.4049 21.064 79.9249 20.872C79.4449 20.6693 79.0289 20.376 78.6769 19.992C78.3249 19.608 78.0475 19.144 77.8449 18.6C77.6529 18.0453 77.5569 17.4107 77.5569 16.696C77.5569 15.7467 77.7169 14.9467 78.0369 14.296C78.3569 13.6347 78.8155 13.1333 79.4129 12.792C80.0102 12.44 80.7195 12.264 81.5409 12.264C82.3195 12.264 83.0022 12.44 83.5889 12.792C84.1862 13.1333 84.6502 13.6347 84.9809 14.296C85.3222 14.9467 85.4929 15.7467 85.4929 16.696ZM79.0129 16.696C79.0129 17.368 79.0982 17.9547 79.2689 18.456C79.4502 18.9467 79.7275 19.3253 80.1009 19.592C80.4742 19.8587 80.9489 19.992 81.5249 19.992C82.1009 19.992 82.5755 19.8587 82.9489 19.592C83.3222 19.3253 83.5942 18.9467 83.7649 18.456C83.9462 17.9547 84.0369 17.368 84.0369 16.696C84.0369 16.0133 83.9462 15.432 83.7649 14.952C83.5835 14.472 83.3062 14.104 82.9329 13.848C82.5702 13.5813 82.0955 13.448 81.5089 13.448C80.6342 13.448 79.9995 13.736 79.6049 14.312C79.2102 14.888 79.0129 15.6827 79.0129 16.696ZM92.6844 12.264C92.8444 12.264 93.015 12.2747 93.1964 12.296C93.3884 12.3067 93.5537 12.328 93.6924 12.36L93.5164 13.656C93.3777 13.624 93.223 13.5973 93.0524 13.576C92.8924 13.5547 92.7377 13.544 92.5884 13.544C92.2577 13.544 91.943 13.6133 91.6444 13.752C91.3457 13.8907 91.079 14.088 90.8444 14.344C90.6097 14.5893 90.423 14.888 90.2844 15.24C90.1564 15.592 90.0924 15.9867 90.0924 16.424V21H88.6844V12.424H89.8364L89.9964 13.992H90.0604C90.2417 13.672 90.4604 13.384 90.7164 13.128C90.9724 12.8613 91.2657 12.6533 91.5964 12.504C91.927 12.344 92.2897 12.264 92.6844 12.264Z" fill="#5F6162"/>
</g>
<defs>
<clipPath id="clip0_852_391">
<rect width="121" height="30" fill="white"/>
</clipPath>
</defs>
</svg>
