<svg width="121" height="30" viewBox="0 0 121 30" fill="none" xmlns="http://www.w3.org/2000/svg">
<rect width="121" height="30" rx="6" fill="#D9D9D9"/>
<path d="M24.1292 5.25791V8.97211H22.1081V4.61836C22.1081 4.4823 22.0549 4.35181 21.9601 4.2556C21.8654 4.1594 21.7369 4.10535 21.6029 4.10535H12.1713C12.0373 4.10535 11.9088 4.1594 11.814 4.2556C11.7192 4.35181 11.666 4.4823 11.666 4.61836V13.2233C11.666 13.3593 11.7192 13.4898 11.814 13.586C11.9088 13.6822 12.0373 13.7363 12.1713 13.7363H21.6029C21.7369 13.7363 21.8654 13.6822 21.9601 13.586C22.0549 13.4898 22.1081 13.3593 22.1081 13.2233V10.0768H24.7389C24.8729 10.0768 25.0014 10.0227 25.0961 9.92654C25.1909 9.83033 25.2441 9.69984 25.2441 9.56379V5.25791C25.2433 5.21283 25.2252 5.16984 25.1938 5.13796C25.1624 5.10608 25.1201 5.08778 25.0757 5.08691H24.2976C24.2529 5.08691 24.2101 5.10492 24.1785 5.13699C24.1469 5.16906 24.1292 5.21256 24.1292 5.25791ZM19.7098 11.5201C19.3563 11.9086 18.9277 12.2188 18.4506 12.4312C17.9736 12.6437 17.4585 12.7538 16.9376 12.7547C16.3206 12.7523 15.7128 12.6035 15.1624 12.3204C14.652 12.0551 14.2127 11.6677 13.8824 11.1917C13.367 10.468 13.1151 9.58497 13.1697 8.69355C13.2244 7.80213 13.5823 6.95766 14.1822 6.30445L14.226 6.25657C14.5749 5.88803 14.9933 5.59454 15.4563 5.39359C15.9192 5.19264 16.4173 5.08834 16.9208 5.08691C17.0218 5.08691 17.1229 5.08691 17.2239 5.08691C18.1236 5.16142 18.9677 5.55901 19.6048 6.20836C20.2419 6.85771 20.6302 7.71631 20.7001 8.63011C20.742 9.15525 20.6755 9.68349 20.505 10.1811C20.3345 10.6787 20.0637 11.1347 19.7098 11.5201Z" fill="#717071"/>
<path d="M20.2045 8.65067C20.1537 8.01055 19.9214 7.39906 19.5357 6.89011C19.15 6.38117 18.6273 5.99655 18.0309 5.78276C17.4345 5.56897 16.7899 5.53516 16.1749 5.6854C15.56 5.83565 15.0011 6.16353 14.5657 6.6294C14.189 7.03193 13.9174 7.52377 13.7758 8.06013C13.6342 8.59648 13.6271 9.16029 13.755 9.70017C13.8829 10.2401 14.1419 10.7389 14.5083 11.1511C14.8746 11.5634 15.3368 11.876 15.8527 12.0605C16.3685 12.245 16.9216 12.2955 17.4616 12.2073C18.0016 12.1192 18.5112 11.8953 18.9442 11.556C19.3771 11.2167 19.7195 10.7728 19.9402 10.2648C20.161 9.75671 20.253 9.20065 20.2078 8.64725L20.2045 8.65067ZM18.6382 10.1658C18.7058 10.2355 18.7438 10.3295 18.7438 10.4274C18.7438 10.5253 18.7058 10.6193 18.6382 10.689C18.6043 10.724 18.564 10.7517 18.5194 10.7705C18.4748 10.7893 18.427 10.7988 18.3788 10.7985C18.286 10.7935 18.1989 10.7518 18.1363 10.6822L16.9977 9.55357L15.876 10.6822C15.8425 10.717 15.8024 10.7447 15.7581 10.7636C15.7139 10.7825 15.6664 10.7923 15.6184 10.7923C15.5704 10.7923 15.5228 10.7825 15.4786 10.7636C15.4343 10.7447 15.3942 10.717 15.3607 10.6822C15.3264 10.6481 15.2991 10.6074 15.2805 10.5625C15.2618 10.5176 15.2523 10.4693 15.2523 10.4206C15.2523 10.3718 15.2618 10.3236 15.2805 10.2786C15.2991 10.2337 15.3264 10.193 15.3607 10.1589L16.4824 9.02004L15.3607 7.88115C15.3268 7.84679 15.3 7.806 15.2817 7.76111C15.2634 7.71622 15.2539 7.66811 15.2539 7.61952C15.2539 7.57093 15.2634 7.52281 15.2817 7.47792C15.3 7.43303 15.3268 7.39224 15.3607 7.35788C15.429 7.28849 15.5217 7.24951 15.6184 7.24951C15.6662 7.24951 15.7136 7.25908 15.7578 7.27767C15.802 7.29627 15.8422 7.32352 15.876 7.35788L16.9977 8.49676L18.1363 7.36472C18.2065 7.30506 18.2961 7.27418 18.3876 7.27814C18.479 7.2821 18.5657 7.32061 18.6307 7.38613C18.6956 7.45164 18.7341 7.53943 18.7386 7.63228C18.7431 7.72512 18.7133 7.81632 18.655 7.88799L17.5333 9.02688L18.6382 10.1658Z" fill="#E73828"/>
<path d="M12.5984 22.9158L10.291 20.7885V17.1324H14.8316V18.4458C14.8316 18.7287 14.8865 19.0089 14.9932 19.2703C15.0998 19.5317 15.2561 19.7692 15.4532 19.9693C15.6503 20.1694 15.8842 20.3281 16.1417 20.4364C16.3991 20.5447 16.6751 20.6004 16.9538 20.6004C17.4898 20.6004 18.0038 20.3842 18.3829 19.9994C18.7619 19.6145 18.9748 19.0926 18.9748 18.5484V17.1324H23.5255V20.7885L21.2148 22.9158H12.5984Z" fill="#717071"/>
<path d="M24.9238 14.3074H8.89349C8.80415 14.3074 8.71848 14.3435 8.65531 14.4076C8.59214 14.4718 8.55665 14.5587 8.55665 14.6494V21.322C8.55633 21.3695 8.56575 21.4165 8.58431 21.4601C8.60287 21.5036 8.63016 21.5428 8.66444 21.5751L12.2114 24.8413H13.8956V25.5526C13.8956 25.6434 13.9311 25.7303 13.9943 25.7945C14.0574 25.8586 14.1431 25.8947 14.2324 25.8947H19.5882C19.6776 25.8947 19.7632 25.8586 19.8264 25.7945C19.8896 25.7303 19.9251 25.6434 19.9251 25.5526V24.8413H21.6093L25.1562 21.5751C25.1911 21.5431 25.219 21.5041 25.2382 21.4605C25.2573 21.4169 25.2673 21.3697 25.2674 21.322V14.6494C25.2674 14.604 25.2585 14.5589 25.2411 14.517C25.2238 14.475 25.1984 14.437 25.1664 14.4052C25.1344 14.3733 25.0964 14.3483 25.0548 14.3315C25.0131 14.3147 24.9686 14.3065 24.9238 14.3074ZM24.0312 21.0142L21.4105 23.4288H12.4101L9.78949 21.0142V16.6194H15.3339V18.4936C15.3348 18.9166 15.5009 19.322 15.7958 19.6208C16.0907 19.9196 16.4903 20.0874 16.907 20.0874C17.3224 20.0856 17.7203 19.917 18.0137 19.6184C18.3072 19.3198 18.4724 18.9154 18.4733 18.4936V16.6194H24.0312V21.0142Z" fill="#717071"/>
<path d="M34.592 12.064V14.544H33.184V11.056H39.216V10.208H33.872V9.168H46.08V10.208H40.672V11.056H46.848V14.544H45.36V12.064H40.672V15.552H39.216V12.064H34.592ZM45.184 14.72L44.88 15.68C44.032 15.376 42.4 14.992 41.168 14.8L41.488 13.952C42.688 14.064 44.304 14.416 45.184 14.72ZM44.272 12.128L44.896 12.944C44 13.296 42.752 13.6 41.888 13.776L41.392 13.056C42.256 12.848 43.52 12.4 44.272 12.128ZM35.104 15.664L34.704 14.592C35.712 14.464 37.072 14.256 38.496 14.048L38.544 14.928C37.328 15.216 36.144 15.472 35.104 15.664ZM35.152 12.992L35.584 12.224C36.544 12.4 37.824 12.72 38.512 13.008L38.112 13.856C37.424 13.568 36.144 13.2 35.152 12.992ZM36.016 19.888H39.152V18.96H36.016V19.888ZM39.152 17.104H36.016V18.016H39.152V17.104ZM43.984 18.016V17.104H40.576V18.016H43.984ZM40.576 19.888H43.984V18.96H40.576V19.888ZM41.76 21.888H45.072C45.888 21.888 46.048 21.632 46.144 20.144C46.448 20.368 47.008 20.544 47.392 20.624C47.2 22.544 46.784 23.056 45.168 23.056H41.664C39.696 23.056 39.152 22.672 39.152 21.232V20.928H36.016V21.696H34.592V16.064H45.44V20.928H40.576V21.216C40.576 21.776 40.768 21.888 41.76 21.888ZM53.104 20.096V15.376H51.824V20.096H53.104ZM54.256 21.28H51.824V22.528H50.688V17.584C50.48 18.016 50.272 18.4 50.016 18.768C49.92 18.416 49.616 17.664 49.408 17.312C50.432 15.68 50.976 13.216 51.264 10.624H49.648V9.424H54.464V10.624H52.528C52.352 11.856 52.144 13.072 51.872 14.208H54.256V21.28ZM57.424 19.184L58.416 19.024C58.784 20.224 59.152 21.76 59.296 22.784L58.224 22.992C58.192 22.672 58.144 22.32 58.064 21.936C55.408 22.368 54.96 22.48 54.688 22.624C54.608 22.384 54.416 21.744 54.256 21.408C54.592 21.328 54.928 20.88 55.36 20.208C55.632 19.84 56.192 18.88 56.8 17.664C55.424 17.824 55.088 17.888 54.864 18C54.8 17.744 54.592 17.104 54.448 16.784C54.672 16.72 54.88 16.432 55.104 16.032C55.312 15.648 56.032 14.128 56.368 12.72L57.6 13.248C57.2 14.384 56.624 15.584 56.032 16.56L57.36 16.448C57.648 15.824 57.92 15.152 58.144 14.512L59.392 15.056C58.496 17.184 57.296 19.376 56.096 21.088L57.856 20.864C57.728 20.288 57.568 19.696 57.424 19.184ZM64.448 22.752L63.376 23.008C63.344 22.672 63.264 22.304 63.168 21.904C60.336 22.352 59.84 22.464 59.568 22.624C59.504 22.368 59.28 21.712 59.12 21.36C59.456 21.28 59.76 20.832 60.176 20.16C60.416 19.792 60.944 18.848 61.488 17.648C60.064 17.808 59.712 17.888 59.504 18C59.44 17.728 59.216 17.072 59.056 16.736C59.28 16.672 59.488 16.384 59.696 15.984C59.888 15.6 60.528 14.096 60.832 12.704H54.72V11.36H57.264C57.04 10.688 56.576 9.76 56.096 9.088L57.28 8.608C57.824 9.328 58.336 10.304 58.576 10.96L57.664 11.36H60.24C60.656 10.544 61.152 9.408 61.392 8.592L62.848 9.024C62.464 9.792 62.032 10.656 61.632 11.36H64.272V12.704H60.912L62.112 13.232C61.744 14.368 61.216 15.568 60.64 16.544L62.032 16.448C62.288 15.808 62.544 15.136 62.752 14.496L64.032 15.024C63.216 17.152 62.08 19.36 60.944 21.072L62.88 20.816C62.72 20.256 62.528 19.696 62.336 19.184L63.36 18.944C63.856 20.16 64.32 21.712 64.448 22.752ZM71.888 10.288H68.752V11.296H71.888V10.288ZM68.752 13.312H71.888V12.256H68.752V13.312ZM73.28 14.384H68.752V23.264H67.328V9.216H73.28V14.384ZM71.456 14.736L72.624 15.104C72.368 15.664 72.048 16.24 71.696 16.784V22.736H70.512V18.368C70.208 18.72 69.904 19.04 69.6 19.312C69.44 19.088 69.024 18.56 68.784 18.32C69.84 17.44 70.864 16.096 71.456 14.736ZM75.936 13.312H79.168V12.256H75.936V13.312ZM79.168 10.288H75.936V11.296H79.168V10.288ZM80.592 9.216V21.488C80.592 22.256 80.496 22.672 80.032 22.928C79.584 23.168 78.896 23.2 77.92 23.2C77.888 22.976 77.824 22.656 77.728 22.352C77.52 22.624 77.296 22.736 77.04 22.736C76.16 22.704 75.488 22.176 74.976 21.28C74.352 21.76 73.68 22.16 72.944 22.512C72.768 22.256 72.384 21.824 72.112 21.616C72.976 21.248 73.792 20.768 74.496 20.224C74.256 19.552 74.064 18.768 73.92 17.904L72.128 18.112L71.968 17.072L73.776 16.864C73.712 16.24 73.648 15.584 73.616 14.912H74.784C74.816 15.552 74.864 16.16 74.928 16.736L77.728 16.432L77.888 17.456L75.072 17.776C75.168 18.368 75.296 18.912 75.44 19.392C75.904 18.912 76.272 18.4 76.544 17.872L77.6 18.192C77.168 19.04 76.592 19.824 75.888 20.496C76.208 21.088 76.576 21.424 77.008 21.44C77.232 21.44 77.376 20.96 77.456 20.016C77.68 20.272 78.08 20.528 78.304 20.64C78.224 21.088 78.128 21.456 78.032 21.76C78.432 21.76 78.784 21.76 78.912 21.76C79.104 21.744 79.168 21.68 79.168 21.488V14.384H74.528V9.216H80.592ZM77.248 15.84L76.48 16.496C76.224 16.144 75.68 15.68 75.2 15.344L75.92 14.752C76.416 15.056 76.976 15.504 77.248 15.84ZM92.64 12.88L92.624 12.912C92.944 14.672 93.456 16.32 94.16 17.712C94.864 16.384 95.312 14.784 95.632 12.88H92.64ZM88.64 20.16V17.072H85.616V20.16H88.64ZM98.24 12.88H97.12C96.688 15.424 96.032 17.488 95.008 19.152C95.872 20.416 96.976 21.376 98.368 21.984C98.032 22.288 97.552 22.864 97.344 23.28C95.984 22.608 94.928 21.632 94.064 20.448C93.056 21.616 91.776 22.544 90.16 23.28C90.016 22.928 89.6 22.256 89.312 21.952C91.008 21.264 92.272 20.352 93.248 19.136C92.592 17.904 92.08 16.512 91.68 14.976C91.392 15.504 91.088 15.984 90.752 16.4C90.592 16.24 90.336 16.032 90.064 15.808V21.552H85.616V22.576H84.24V15.68H86.416V12.976H83.568V11.6H86.416V8.592H87.904V11.6H90.624V12.976H87.904V15.68H89.888C89.744 15.568 89.616 15.472 89.504 15.408C90.88 13.856 91.776 11.28 92.24 8.576L93.744 8.816C93.584 9.728 93.36 10.624 93.104 11.472H98.24V12.88ZM107.568 11.2L108.496 10.944H106.224V9.776H109.584C109.488 9.456 109.36 9.12 109.264 8.832L110.576 8.496C110.768 8.88 110.944 9.376 111.072 9.776H114.496V10.944H108.848C109.056 11.344 109.248 11.84 109.328 12.176L109.024 12.272H111.264C111.456 11.84 111.648 11.312 111.76 10.944L113.216 11.248L112.672 12.272H115.04V13.456H105.584V12.272H107.952C107.856 11.92 107.696 11.536 107.568 11.2ZM104.896 9.168L105.888 9.728C105.392 11.04 104.816 12.608 104.304 13.84C105.424 15.136 105.68 16.288 105.696 17.248C105.696 18.176 105.488 18.848 105.008 19.2C104.768 19.36 104.48 19.456 104.128 19.52C103.824 19.552 103.408 19.552 103.024 19.536C103.008 19.184 102.88 18.608 102.688 18.24C103.008 18.288 103.312 18.288 103.552 18.272C103.744 18.256 103.904 18.224 104.048 18.128C104.272 17.968 104.368 17.568 104.368 17.088C104.368 16.272 104.096 15.2 102.976 14C103.408 12.96 103.84 11.616 104.16 10.56H102.272V23.216H100.96V9.216H104.688L104.896 9.168ZM108.016 16.976V17.872H112.592V16.976H108.016ZM108.016 15.232V16.112H112.592V15.232H108.016ZM115.104 19.824V21.056H111.136V23.248H109.68V21.056H105.616V19.824H109.68V18.848H106.64V14.24H114.032V18.848H111.136V19.824H115.104Z" fill="#5F6162"/>
</svg>
