<svg id="圖層_1" data-name="圖層 1" xmlns="http://www.w3.org/2000/svg" viewBox="0 0 372 148.5"><defs><style>.cls-1{fill:#02253c;}</style></defs><path class="cls-1" d="M306.37,32.47c-.22,0-.44,0-.66,0v0H273.06l-2.88,16.42H286.5l-3.93,22.29-.37,2.09-2.54,14.33-5.57,31.71H290.4L296,87.58h10.39a27.53,27.53,0,0,0,25.18-16.42,27.5,27.5,0,0,0,0-22.29A27.52,27.52,0,0,0,306.37,32.47Zm0,38.69h-7.5l.44-2.5,3.4-19.17.11-.62h3.55a11.15,11.15,0,1,1,0,22.29Z"/><path class="cls-1" d="M253.31,80.42l-5.59-47.69,0-.22H231.56l-.11.22-22,47.69H198.33l-2.89,16.43h6.42l-10.37,22.44H207.9l10.37-22.44h20.56l2.63,22.44h16.42l-2.63-22.44Zm-27.45,0,8.92-19.34,2.12,19.34Z"/><polygon class="cls-1" points="203.85 48.92 206.76 32.51 183.96 32.51 163.27 32.51 140.48 32.51 137.59 48.92 160.38 48.92 147.99 119.29 168.68 119.29 181.07 48.92 203.85 48.92"/><path class="cls-1" d="M346,32.65a8.53,8.53,0,1,0,8.53,8.53A8.54,8.54,0,0,0,346,32.65Zm0,15.65a7.13,7.13,0,1,1,7.12-7.12A7.13,7.13,0,0,1,346,48.3Z"/><path class="cls-1" d="M346.71,35.87h-4.28L342.06,38h1.08l-.51,2.87,0,.27L342.26,43l-.61,3.48h2.09l.62-3.48h1.35a1.46,1.46,0,0,1,1.33,1.2l.4,2.28h2.1l-.38-2.18,0-.13A2.78,2.78,0,0,0,348.6,43a2.82,2.82,0,0,0-.33-.36A3.56,3.56,0,0,0,350,38,3.54,3.54,0,0,0,346.71,35.87Zm0,5h-2l0-.32.44-2.47V38h1.48a1.44,1.44,0,0,1,0,2.87Z"/><polygon class="cls-1" points="175.97 119.49 184.21 119.49 185.67 111.24 177.42 111.24 175.97 119.49"/><polygon class="cls-1" points="261.81 119.49 270.06 119.49 271.51 111.24 263.27 111.24 261.81 119.49"/><polygon class="cls-1" points="315.7 119.49 323.94 119.49 325.4 111.24 317.15 111.24 315.7 119.49"/><path class="cls-1" d="M112.32,25.41H40.06A10.74,10.74,0,0,0,29.32,36.15v64.27a36.13,36.13,0,0,1,11-26,.48.48,0,0,1,.11-.09l.42-.41,0,0h0l.41-.37.09-.08A61.17,61.17,0,0,1,53.32,65c.76-.41,1.52-.8,2.3-1.17L57,63.13l.38-.17c3.84-1.79,7.78-3.42,11.78-4.88l.54-.2a134.21,134.21,0,0,0,18.49-8.41c.29-.15.57-.31.85-.47s.31-.17.46-.26a46,46,0,0,0,13.06-11.29,29.55,29.55,0,0,1-.34,3.14,33.35,33.35,0,0,1-9,18.07,29.19,29.19,0,0,1-2.14,2l-.7.61a103.22,103.22,0,0,1-8.78,6.65c-2,1.36-4.08,2.65-6.2,3.86h0q-6.75,3.9-13.15,8.32L59.6,82l-.75.53c-.87.64-1.73,1.3-2.57,2A54.55,54.55,0,0,0,40.6,105.62s0,0,0,0l-.39,1c-.09.24-.19.49-.28.74a36.47,36.47,0,0,0-2.2,12.5c0,.29,0,.58,0,.87A49.66,49.66,0,0,1,57.47,90.91h0a176.77,176.77,0,0,1,15.06-9.43l.15-.08a99.3,99.3,0,0,0,27-22.14c-.49,1.47-1,2.91-1.59,4.33q-1.5,3.78-3.3,7.4c-1.09,2.2-2.26,4.34-3.5,6.44-.88,1.48-1.8,2.95-2.76,4.38a98.76,98.76,0,0,1-50.78,38.93,72,72,0,0,0,38.13-16.28c.62-.52,1.24-1.06,1.84-1.6a69.89,69.89,0,0,0,6.41-6.47c.3-.34.59-.68.88-1A72.17,72.17,0,0,0,92.12,85.2c.29-.5.57-1,.85-1.5-.29,1.75-.65,3.48-1.09,5.17A63,63,0,0,1,76.8,116.4l-.42.45-.8.82a31.37,31.37,0,0,1-20.18,9l-.54,0q-.63,0-1.26,0h58.72A10.74,10.74,0,0,0,123.06,116V36.15A10.74,10.74,0,0,0,112.32,25.41Z"/></svg>