<svg id="圖層_1" data-name="圖層 1" xmlns="http://www.w3.org/2000/svg" viewBox="0 0 71.25 67.25"><defs><style>.cls-1{fill:#717071;}</style></defs><path class="cls-1" d="M16.37,59H14.48l-1-.28A6.74,6.74,0,0,1,10.7,47.48q10.49-10.51,21-21c.22-.22.37-.39.25-.75a15.31,15.31,0,0,1-.52-7.83A15.75,15.75,0,0,1,51.05,5.68a1.74,1.74,0,0,1,.82,3.15q-3.28,3.28-6.58,6.58a.58.58,0,0,0-.21.68c.47,1.55.9,3.12,1.37,4.68a.91.91,0,0,0,.5.48c1.5.46,3,.87,4.53,1.32a.72.72,0,0,0,.86-.21q3.27-3.32,6.59-6.58a2.29,2.29,0,0,1,1.16-.63,1.56,1.56,0,0,1,1.83,1.27c.26,1,.44,2,.65,3v2.84c-.07.36-.14.72-.2,1.08A15.71,15.71,0,0,1,42.13,35.83a.83.83,0,0,0-1,.24Q30.76,46.48,20.37,56.87a7,7,0,0,1-3.05,1.89Z"/></svg>