<svg id="圖層_1" data-name="圖層 1" xmlns="http://www.w3.org/2000/svg" viewBox="0 0 71.25 67.25"><defs><style>.cls-1{fill:#118bbb;}</style></defs><path class="cls-1" d="M28.41,13.61H13.8a2,2,0,0,0-2,2V59.47a2,2,0,0,0,2,2H43.16a2,2,0,0,0,2-2V29.78A3.72,3.72,0,0,0,44,27.08L31,14.65A3.71,3.71,0,0,0,28.41,13.61Z"/><path class="cls-1" d="M59.53,19.06,47,7A4.43,4.43,0,0,0,43.9,5.8H33.63a6.07,6.07,0,0,0-6,5.88h2.65a3.21,3.21,0,0,1,2.23.9l14,13.4a3.24,3.24,0,0,1,1,2.34V53.64H57.55a3.37,3.37,0,0,0,3.35-3.36v-28A4.41,4.41,0,0,0,59.53,19.06Z"/></svg>