<svg id="圖層_1" data-name="圖層 1" xmlns="http://www.w3.org/2000/svg" viewBox="0 0 71.25 67.25"><defs><style>.cls-1{fill:none;}.cls-2{fill:#727171;}</style></defs><path class="cls-1" d="M30.9,25.77H23.29a.89.89,0,1,0,0,1.78H30.9a.89.89,0,1,0,0-1.78Z"/><path class="cls-1" d="M30.9,15.61H23.29a.9.9,0,1,0,0,1.79H30.9a.9.9,0,1,0,0-1.79Z"/><path class="cls-1" d="M18.21,15.61H10.59a.9.9,0,0,0,0,1.79h7.62a.9.9,0,0,0,0-1.79Z"/><path class="cls-1" d="M46.14,27.55h5.08a.89.89,0,0,0,0-1.78H46.14a.89.89,0,0,0,0,1.78Z"/><path class="cls-1" d="M30.9,35.93H23.29a.89.89,0,1,0,0,1.78H30.9a.89.89,0,1,0,0-1.78Z"/><path class="cls-1" d="M30.9,46.08H23.29a.9.9,0,1,0,0,1.79H30.9a.9.9,0,1,0,0-1.79Z"/><path class="cls-1" d="M18.21,35.93H10.59a.89.89,0,1,0,0,1.78h7.62a.89.89,0,0,0,0-1.78Z"/><path class="cls-1" d="M18.21,25.77H10.59a.89.89,0,0,0,0,1.78h7.62a.89.89,0,0,0,0-1.78Z"/><path class="cls-1" d="M46.14,37.93h5.08a.9.9,0,0,0,0-1.79H46.14a.9.9,0,0,0,0,1.79Z"/><path class="cls-1" d="M18.21,46.08H10.59a.9.9,0,0,0,0,1.79h7.62a.9.9,0,0,0,0-1.79Z"/><path class="cls-2" d="M33.89,4.91H7.6A4.07,4.07,0,0,0,3.53,9V59.63H38V9A4.06,4.06,0,0,0,33.89,4.91Zm-15.68,43H10.59a.9.9,0,0,1,0-1.79h7.62a.9.9,0,0,1,0,1.79Zm0-10.16H10.59a.89.89,0,1,1,0-1.78h7.62a.89.89,0,0,1,0,1.78Zm0-10.16H10.59a.89.89,0,0,1,0-1.78h7.62a.89.89,0,0,1,0,1.78Zm0-10.15H10.59a.9.9,0,0,1,0-1.79h7.62a.9.9,0,0,1,0,1.79ZM30.9,47.87H23.29a.9.9,0,1,1,0-1.79H30.9a.9.9,0,1,1,0,1.79Zm0-10.16H23.29a.89.89,0,1,1,0-1.78H30.9a.89.89,0,1,1,0,1.78Zm0-10.16H23.29a.89.89,0,1,1,0-1.78H30.9a.89.89,0,1,1,0,1.78Zm0-10.15H23.29a.9.9,0,1,1,0-1.79H30.9a.9.9,0,1,1,0,1.79Z"/><path class="cls-2" d="M58.27,36.93V21.46a4.06,4.06,0,0,0-4.06-4.06H39.74V59.63h8a13.79,13.79,0,0,1,10.53-22.7ZM46.14,25.77h5.08a.89.89,0,0,1,0,1.78H46.14a.89.89,0,0,1,0-1.78Zm0,10.37h5.08a.9.9,0,0,1,0,1.79H46.14a.9.9,0,0,1,0-1.79Z"/><path class="cls-2" d="M58.27,38.52A11.91,11.91,0,1,0,70.19,50.43,11.91,11.91,0,0,0,58.27,38.52ZM65,55.27a1.1,1.1,0,0,1,0,1.56,1.11,1.11,0,0,1-1.56,0L58.64,52,53.8,56.83a1.11,1.11,0,0,1-.78.32,1.13,1.13,0,0,1-.78-.32,1.1,1.1,0,0,1,0-1.56l4.84-4.84-4.84-4.84A1.1,1.1,0,1,1,53.8,44l4.84,4.84L63.48,44A1.1,1.1,0,1,1,65,45.59L60.2,50.43Z"/></svg>