<svg id="圖層_1" data-name="圖層 1" xmlns="http://www.w3.org/2000/svg" viewBox="0 0 71.25 67.25"><defs><style>.cls-1{fill:#717071;}.cls-2{fill:none;}</style></defs><circle class="cls-1" cx="35.62" cy="52.17" r="6.6"/><path class="cls-2" d="M35.66,29.74a26.73,26.73,0,0,0-19.48,8.43l1.91,1.92a24.08,24.08,0,0,1,35.33.19l1.88-2A26.73,26.73,0,0,0,35.66,29.74Z"/><path class="cls-2" d="M35.66,18.29A38.14,38.14,0,0,0,8.1,30.06L10,32a35.44,35.44,0,0,1,51.34.07l1.9-2A38.14,38.14,0,0,0,35.66,18.29Z"/><path class="cls-1" d="M35.66,18.29A38.14,38.14,0,0,1,63.26,30.1L70.08,23a48,48,0,0,0-68.91.08L8.1,30.06A38.14,38.14,0,0,1,35.66,18.29Z"/><path class="cls-1" d="M35.66,29.74A26.73,26.73,0,0,1,55.3,38.33l6.06-6.27A35.44,35.44,0,0,0,10,32l6.16,6.18A26.73,26.73,0,0,1,35.66,29.74Z"/><path class="cls-1" d="M35.66,41.19a15.34,15.34,0,0,1,11.67,5.39l6.09-6.3a24.08,24.08,0,0,0-35.33-.19l6.18,6.19A15.29,15.29,0,0,1,35.66,41.19Z"/></svg>