<svg id="圖層_1" data-name="圖層 1" xmlns="http://www.w3.org/2000/svg" viewBox="0 0 71.25 67.25"><defs><style>.cls-1{fill:#118bbb;}</style></defs><path class="cls-1" d="M35.36,47.91a4,4,0,0,1,.91-1.5l15-15.64a4,4,0,0,1,2.87-1.23V9.2a4.6,4.6,0,0,0-4.58-4.59H18.34A4.61,4.61,0,0,0,13.75,9.2V62.64H54.19V50.43l-7.25,7.44a4.13,4.13,0,0,1-2,1.12l-7.4,1.59a4.19,4.19,0,0,1-.86.09,4,4,0,0,1-3.77-5.36ZM21.79,12.44h9.33a1.08,1.08,0,0,1,1,1.16,1.08,1.08,0,0,1-1,1.16H21.79a1.08,1.08,0,0,1-1-1.16A1.08,1.08,0,0,1,21.79,12.44Zm15,0h9.34a1.08,1.08,0,0,1,1,1.16,1.08,1.08,0,0,1-1,1.16H36.82a1.07,1.07,0,0,1-1-1.16A1.07,1.07,0,0,1,36.82,12.44Zm-15,9.39h9.33a1.18,1.18,0,0,1,0,2.32H21.79a1.18,1.18,0,0,1,0-2.32Zm15,0h9.34a1.18,1.18,0,0,1,0,2.32H36.82a1.18,1.18,0,0,1,0-2.32Zm-15,8.87h9.33a1.18,1.18,0,0,1,0,2.32H21.79a1.18,1.18,0,0,1,0-2.32Zm0,9.56h9.33a1.18,1.18,0,0,1,0,2.32H21.79a1.18,1.18,0,0,1,0-2.32Zm15-9.56h9.34a1.18,1.18,0,0,1,0,2.32H36.82a1.18,1.18,0,0,1,0-2.32Z"/><path class="cls-1" d="M37.56,48.65l-2.5,7.47a1.69,1.69,0,0,0,2,2.19l7.4-1.59a1.78,1.78,0,0,0,.86-.47l16-16.41a1.69,1.69,0,0,0-.1-2.46l-5.86-5.11a1.68,1.68,0,0,0-2.33.11L37.94,48A1.81,1.81,0,0,0,37.56,48.65Z"/></svg>