<svg id="圖層_1" data-name="圖層 1" xmlns="http://www.w3.org/2000/svg" viewBox="0 0 71.25 67.25"><defs><style>.cls-1{fill:#118bbb;}</style></defs><path class="cls-1" d="M58.35,18.53H12.9a2.52,2.52,0,0,0-2.52,2.53V36.59H60.87V21.06A2.52,2.52,0,0,0,58.35,18.53Z"/><polygon class="cls-1" points="38.15 43.78 33.1 43.78 33.1 38.73 10.38 38.73 10.38 58.93 60.87 58.93 60.87 38.73 38.15 38.73 38.15 43.78"/><path class="cls-1" d="M24.82,16.7v-6H45v6h5.05v-6a5.06,5.06,0,0,0-5.05-5H24.82a5.06,5.06,0,0,0-5.05,5.05v6Z"/></svg>