<svg id="圖層_1" data-name="圖層 1" xmlns="http://www.w3.org/2000/svg" viewBox="0 0 71.25 67.25"><defs><style>.cls-1{fill:#727171;}</style></defs><path class="cls-1" d="M54.35,17.94H8.91a2.52,2.52,0,0,0-2.52,2.53V35.83H56.88V20.47A2.53,2.53,0,0,0,54.35,17.94Z"/><path class="cls-1" d="M20.82,16V10.22H41V16h5V10.22a5,5,0,0,0-5-5.05H20.82a5,5,0,0,0-5.05,5.05V16Z"/><path class="cls-1" d="M53,38.14H34.16v5h-5v-5H6.39V58.33H43.81a13.63,13.63,0,0,1-1.74-6.69A13.81,13.81,0,0,1,53,38.14Z"/><path class="cls-1" d="M56.64,39.42A12.38,12.38,0,1,0,69,51.79,12.37,12.37,0,0,0,56.64,39.42Zm7,17.4a1.14,1.14,0,0,1-.81,2,1.17,1.17,0,0,1-.81-.33l-5-5-5,5a1.13,1.13,0,0,1-.81.33,1.14,1.14,0,0,1-.81-2l5-5-5-5a1.16,1.16,0,0,1,0-1.62,1.14,1.14,0,0,1,1.62,0l5,5,5-5a1.15,1.15,0,0,1,1.62,1.62l-5,5Z"/></svg>