<svg id="圖層_1" data-name="圖層 1" xmlns="http://www.w3.org/2000/svg" viewBox="0 0 71.25 67.25"><defs><style>.cls-1{fill:#727171;}</style></defs><path class="cls-1" d="M52.76,6l.75.18a3.19,3.19,0,0,1,1.3.8l7.33,7.34a3.25,3.25,0,0,1,.11,4.54c-1.57,1.64-3.2,3.2-4.79,4.77l-12-12,.13-.14L50,7.08A3.37,3.37,0,0,1,52.06,6l.14,0Z"/><path class="cls-1" d="M41,16.12,52.83,27.73l-.15.17L43.4,37.19l-6,6-6.06,6.06-6,6c-1.93,1.94-3.86,3.88-5.81,5.82a.59.59,0,0,1-.38.16h-11c-.21,0-.28-.06-.28-.28,0-3.78,0-7.55,0-11.33A.58.58,0,0,1,8,49.32l6.7-6.74,6-6,8-8,8-8,4.22-4.26Z"/></svg>