<svg id="圖層_1" data-name="圖層 1" xmlns="http://www.w3.org/2000/svg" viewBox="0 0 71.25 67.25"><defs><style>.cls-1{fill:#118bbb;}</style></defs><path class="cls-1" d="M38.61,6.26H12.32a4.08,4.08,0,0,0-4.07,4.07V61H42.68V10.33A4.08,4.08,0,0,0,38.61,6.26Zm-15.68,43H15.31a.89.89,0,0,1,0-1.78h7.62a.89.89,0,0,1,0,1.78Zm0-10.15H15.31a.9.9,0,0,1,0-1.79h7.62a.9.9,0,0,1,0,1.79Zm0-10.16H15.31a.9.9,0,0,1,0-1.79h7.62a.9.9,0,0,1,0,1.79Zm0-10.16H15.31a.89.89,0,0,1,0-1.78h7.62a.89.89,0,0,1,0,1.78Zm12.7,30.47H28a.89.89,0,0,1,0-1.78h7.62a.89.89,0,1,1,0,1.78Zm0-10.15H28a.9.9,0,0,1,0-1.79h7.62a.9.9,0,0,1,0,1.79Zm0-10.16H28a.9.9,0,0,1,0-1.79h7.62a.9.9,0,0,1,0,1.79Zm0-10.16H28A.89.89,0,0,1,28,17h7.62a.89.89,0,0,1,0,1.78Z"/><path class="cls-1" d="M58.93,18.75H44.46V61H63V22.82A4.08,4.08,0,0,0,58.93,18.75Zm-3,30.47H50.86a.89.89,0,0,1,0-1.78h5.08a.89.89,0,1,1,0,1.78Zm0-9.94H50.86a.89.89,0,0,1,0-1.78h5.08a.89.89,0,1,1,0,1.78Zm0-10.37H50.86a.9.9,0,0,1,0-1.79h5.08a.9.9,0,1,1,0,1.79Z"/></svg>