<svg id="圖層_1" data-name="圖層 1" xmlns="http://www.w3.org/2000/svg" viewBox="0 0 71.25 67.25"><defs><style>.cls-1{fill:#717071;}.cls-2{fill:#e73828;}</style></defs><path class="cls-1" d="M56.79,5.14V16h-6V3.27a1.5,1.5,0,0,0-1.5-1.5h-28a1.5,1.5,0,0,0-1.5,1.5V28.43a1.5,1.5,0,0,0,1.5,1.5h28a1.5,1.5,0,0,0,1.5-1.5v-9.2h7.81a1.5,1.5,0,0,0,1.5-1.5V5.14a.51.51,0,0,0-.5-.5H57.29A.5.5,0,0,0,56.79,5.14ZM43.67,23.45a11.23,11.23,0,0,1-8.23,3.61,11.76,11.76,0,0,1-5.27-1.27,10.5,10.5,0,0,1-3.8-3.3A11.27,11.27,0,0,1,27.26,8.2l.13-.14a11.14,11.14,0,0,1,8-3.42c.3,0,.6,0,.9,0A11.27,11.27,0,0,1,46.61,15,11.08,11.08,0,0,1,43.67,23.45Z"/><path class="cls-2" d="M45.14,15.06A9.72,9.72,0,0,0,28.4,9.15h0a9.73,9.73,0,1,0,16.75,5.9Zm-4.65,4.43a1.09,1.09,0,0,1,0,1.53,1.07,1.07,0,0,1-.77.32A1.05,1.05,0,0,1,39,21L35.62,17.7,32.29,21a1.07,1.07,0,0,1-1.53,0,1.07,1.07,0,0,1,0-1.53l3.33-3.33-3.33-3.33a1.08,1.08,0,1,1,1.53-1.53l3.33,3.33L39,11.3a1.09,1.09,0,0,1,1.54,1.53l-3.33,3.33Z"/><path class="cls-1" d="M22.56,56.77l-6.85-6.22V39.86H29.19V43.7a6.3,6.3,0,0,0,6.3,6.3h0a6,6,0,0,0,6-6V39.86H55V50.55l-6.86,6.22Z"/><path class="cls-1" d="M59.15,31.6H11.56a1,1,0,0,0-1,1V52.11a1,1,0,0,0,.32.74L21.41,62.4h5v2.08a1,1,0,0,0,1,1H43.31a1,1,0,0,0,1-1V62.4h5l10.53-9.55a1,1,0,0,0,.33-.74V32.6A1,1,0,0,0,59.15,31.6ZM56.5,51.21l-7.78,7.06H22l-7.78-7.06V38.36H30.68v5.48a4.67,4.67,0,0,0,4.67,4.66h0A4.67,4.67,0,0,0,40,43.84V38.36H56.5Z"/></svg>