<svg id="圖層_1" data-name="圖層 1" xmlns="http://www.w3.org/2000/svg" viewBox="0 0 71.25 67.25"><defs><style>.cls-1{fill:#118bbb;}.cls-2{fill:#fff;}</style></defs><circle class="cls-1" cx="35.62" cy="33.62" r="30.81"/><path class="cls-2" d="M48.81,15.38c.17,0,.34.07.5.12a2.27,2.27,0,0,1,.89.54l5,5a2.21,2.21,0,0,1,.07,3.08c-1.06,1.1-2.17,2.17-3.24,3.23L43.87,19.2l.09-.09,3-3a2.29,2.29,0,0,1,1.41-.72l.09,0Z"/><path class="cls-2" d="M40.85,22.26l8,7.88-.1.11-6.3,6.3-4.07,4.08-4.1,4.11-4.08,4.09-3.94,3.94a.4.4,0,0,1-.26.1H18.55c-.14,0-.19,0-.19-.19q0-3.84,0-7.68a.43.43,0,0,1,.1-.24q2.27-2.3,4.55-4.57c1.35-1.36,2.7-2.73,4.06-4.09l5.39-5.42,5.4-5.44,2.86-2.88Z"/></svg>