<svg id="圖層_1" data-name="圖層 1" xmlns="http://www.w3.org/2000/svg" viewBox="0 0 71.25 67.25"><defs><style>.cls-1{fill:#717071;}.cls-2{fill:none;}.cls-3{fill:#e73828;}</style></defs><circle class="cls-1" cx="36.29" cy="51.36" r="6.6" transform="translate(-10.83 9.71) rotate(-13.28)"/><path class="cls-2" d="M48.08,31.66a26.71,26.71,0,0,0-31.24,5.7l1.92,1.92a24.06,24.06,0,0,1,35.32.2l1.82-1.89A12.59,12.59,0,0,1,48.08,31.66Z"/><path class="cls-2" d="M47,21.86a12.23,12.23,0,0,1,1.09-2.52A38.19,38.19,0,0,0,8.76,29.26l1.93,1.93A35.38,35.38,0,0,1,47,21.86Z"/><path class="cls-1" d="M48.08,19.34A12.28,12.28,0,0,1,49.8,17l.14-.16A12.36,12.36,0,0,1,58.34,13a47.89,47.89,0,0,0-56.5,9.27l6.92,7a38.19,38.19,0,0,1,39.32-9.92Z"/><path class="cls-1" d="M36.33,28.93a26.64,26.64,0,0,1,11.75,2.73,12.2,12.2,0,0,1-1.61-5.16A12.45,12.45,0,0,1,47,21.86a35.38,35.38,0,0,0-36.3,9.33l6.15,6.17A26.73,26.73,0,0,1,36.33,28.93Z"/><path class="cls-1" d="M36.33,31.66a24,24,0,0,0-17.57,7.62l6.17,6.2a15.29,15.29,0,0,1,23.06.3l6.09-6.3A24,24,0,0,0,36.33,31.66Z"/><path class="cls-3" d="M69.38,24.65a10.3,10.3,0,0,0-17.74-6.26h0a10.31,10.31,0,1,0,17.75,6.25Zm-4.93,4.7a1.15,1.15,0,0,1,0,1.63,1.17,1.17,0,0,1-1.63,0l-3.53-3.53L55.77,31a1.17,1.17,0,0,1-.82.33,1.15,1.15,0,0,1-.81-2l3.53-3.53-3.53-3.53a1.14,1.14,0,0,1,0-1.62,1.15,1.15,0,0,1,1.63,0l3.52,3.52,3.53-3.52a1.15,1.15,0,0,1,1.63,0,1.14,1.14,0,0,1,0,1.62l-3.53,3.53Z"/></svg>