<svg id="圖層_1" data-name="圖層 1" xmlns="http://www.w3.org/2000/svg" viewBox="0 0 71.25 67.25"><defs><style>.cls-1{fill:#118bbb;}</style></defs><path class="cls-1" d="M9,19.09c.13-.26.23-.5.34-.72,2-4,4-8,6-12a1.37,1.37,0,0,1,1.42-.89q18.92,0,37.82,0a1.33,1.33,0,0,1,1.38.84c2,4,4,8.06,6,12.09.1.19.18.38.31.65Z"/><path class="cls-1" d="M63.69,21.83H7.56c0,.25,0,2.46,0,2.67q0,16.57,0,33.13a3.78,3.78,0,0,0,4.13,4.11H59.59a5.36,5.36,0,0,0,1.27-.11,3.7,3.7,0,0,0,2.86-3.7q0-16.81,0-33.63C63.72,24.15,63.7,22,63.69,21.83ZM43.82,45.14l-7.49,6.27a1,1,0,0,1-.66.24,1.06,1.06,0,0,1-.67-.24l-7.49-6.27a1,1,0,0,1,1.33-1.58l5.79,4.84-.07-16.95a1,1,0,0,1,1-1h0a1,1,0,0,1,1,1l.08,17,5.79-4.85a1,1,0,0,1,1.46.13A1,1,0,0,1,43.82,45.14Z"/></svg>