<svg width="75" height="75" viewBox="0 0 75 75" fill="none" xmlns="http://www.w3.org/2000/svg">
<path fill-rule="evenodd" clip-rule="evenodd" d="M0 0H75V75H0V0ZM17.1875 55.6719C17.1875 56.2031 17.2766 56.7266 17.4469 57.2203C12.2656 51.9655 9.36521 44.8796 9.375 37.5C9.375 21.9672 21.9672 9.375 37.5 9.375C53.0328 9.375 65.625 21.9672 65.625 37.5C65.6351 44.8911 62.7256 51.9871 57.5297 57.2438C57.7741 56.5762 57.863 55.8617 57.7895 55.1547C57.7161 54.4476 57.4823 53.7666 57.1059 53.1636C56.7294 52.5606 56.2204 52.0514 55.6175 51.6748C55.0145 51.2983 54.3336 51.0643 53.6266 50.9906C41.5047 49.7359 33.5703 49.6156 21.3891 50.9625C20.2317 51.0929 19.163 51.6456 18.3878 52.5149C17.6126 53.3841 17.1852 54.5072 17.1875 55.6719ZM6.25 37.5C6.25 54.3313 19.5578 68.0563 36.225 68.725C36.5778 68.7444 36.9311 68.7523 37.2844 68.7484L37.5 68.75C54.7594 68.75 68.75 54.7594 68.75 37.5C68.75 20.2406 54.7594 6.25 37.5 6.25C20.2406 6.25 6.25 20.2406 6.25 37.5ZM37.5 43.75C40.8152 43.75 43.9946 42.433 46.3388 40.0888C48.683 37.7446 50 34.5652 50 31.25C50 27.9348 48.683 24.7554 46.3388 22.4112C43.9946 20.067 40.8152 18.75 37.5 18.75C34.1848 18.75 31.0054 20.067 28.6612 22.4112C26.317 24.7554 25 27.9348 25 31.25C25 34.5652 26.317 37.7446 28.6612 40.0888C31.0054 42.433 34.1848 43.75 37.5 43.75Z" fill="#B0B0B0"/>
</svg>
