<svg width="124" height="38" viewBox="0 0 124 38" fill="none" xmlns="http://www.w3.org/2000/svg">
<g clip-path="url(#clip0_378_593)">
<path d="M105.654 2.64895C105.566 2.64895 105.487 2.64895 105.4 2.65758V2.64032H99.1789H92.9495L91.8528 8.79245H96.0467H98.0734L96.5731 17.1535L96.4327 17.9387L95.4676 23.3142L93.3444 35.2043H99.565L101.697 23.3142H105.654C109.944 23.3142 113.629 20.7861 115.261 17.1621C115.84 15.8851 116.156 14.47 116.156 12.9773C116.156 11.4932 115.832 10.0695 115.261 8.79245C113.629 5.1771 109.944 2.64895 105.654 2.64895ZM105.654 17.1621H102.794L102.96 16.2216L104.259 9.03405L104.303 8.80108H105.654C108.005 8.80108 109.909 10.6735 109.909 12.9859C109.909 15.2897 108.005 17.1621 105.654 17.1621Z" fill="white"/>
<path d="M85.4216 20.6308L83.2896 2.74388L83.2808 2.65759H77.1304L77.0865 2.74388L68.69 20.6308H64.4523L63.3468 26.7916H65.8034L61.8465 35.2044H68.1022L72.0591 26.7916H79.9029L80.9031 35.2044H87.1588L86.1586 26.7916L85.4216 20.6308ZM74.9545 20.6308L78.3587 13.3742L79.1659 20.6308H74.9545Z" fill="white"/>
<path d="M66.558 8.81833L67.6722 2.6662H58.9774H51.081H42.395L41.2895 8.81833H49.9843L45.2552 35.213H53.1429L57.8719 8.81833H66.558Z" fill="white"/>
<path d="M120.754 2.71796C118.964 2.71796 117.499 4.15029 117.499 5.91914C117.499 7.67935 118.955 9.12032 120.754 9.12032C122.544 9.12032 124.009 7.68798 124.009 5.91914C124 4.15029 122.544 2.71796 120.754 2.71796ZM120.754 8.58535C119.253 8.58535 118.043 7.38599 118.043 5.91914C118.043 4.44366 119.262 3.2443 120.754 3.2443C122.254 3.2443 123.474 4.44366 123.474 5.91914C123.465 7.38599 122.245 8.58535 120.754 8.58535Z" fill="white"/>
<path d="M121.043 3.92596C121.034 3.92596 119.824 3.92596 119.824 3.92596H119.411L119.271 4.71979H119.42H119.683L119.49 5.79835L119.473 5.9019L119.35 6.59218L119.113 7.89508H119.911L120.148 6.59218H120.666C120.929 6.59218 121.14 6.83378 121.175 7.04086L121.324 7.89508H121.754H122.122L121.973 7.07537L121.964 7.0236C121.929 6.85966 121.859 6.71298 121.763 6.58355C121.728 6.53178 121.684 6.48863 121.64 6.44549C121.921 6.30744 122.149 6.07447 122.28 5.78972C122.351 5.62578 122.394 5.44458 122.394 5.25476C122.394 5.06493 122.351 4.88373 122.28 4.71979C122.07 4.24522 121.596 3.92596 121.043 3.92596ZM121.043 5.78972H120.289L120.306 5.66893L120.473 4.74567L120.482 4.71979H121.043C121.342 4.71979 121.587 4.96139 121.587 5.25476C121.587 5.54813 121.342 5.78972 121.043 5.78972Z" fill="white"/>
<path d="M55.9241 35.282H59.0739L59.6267 32.193H56.4769L55.9241 35.282Z" fill="white"/>
<path d="M88.6679 35.282H91.809L92.3617 32.193H89.2207L88.6679 35.282Z" fill="white"/>
<path d="M109.216 35.282H112.357L112.919 32.193H109.769L109.216 35.282Z" fill="white"/>
<path d="M31.6558 0H4.09736C1.83372 0 0 1.80336 0 4.02952V28.1376C0 26.0581 0.473785 24.0908 1.32484 22.3306C2.03552 20.8465 3.01818 19.5091 4.20265 18.3874C4.21142 18.3787 4.22897 18.3615 4.24652 18.3529C4.29916 18.3011 4.3518 18.2493 4.40444 18.2062C4.41322 18.1975 4.41322 18.1975 4.42199 18.1889C4.47463 18.1458 4.52728 18.094 4.57992 18.0509C4.58869 18.0422 4.60624 18.0336 4.61502 18.0163C5.9925 16.7911 7.51914 15.7125 9.16861 14.8411C9.45815 14.6857 9.74768 14.5391 10.046 14.401C10.2215 14.3233 10.3882 14.2371 10.5636 14.1594C10.6163 14.1335 10.6602 14.1163 10.7128 14.0904C12.178 13.4173 13.6783 12.8134 15.205 12.2611C15.2752 12.2352 15.3454 12.2094 15.4068 12.1835C17.8459 11.3034 20.206 10.2507 22.4609 9.02543C22.575 8.96503 22.6803 8.91326 22.7855 8.85286C22.847 8.81835 22.8996 8.79246 22.961 8.75795C24.8825 7.67075 26.5758 6.22979 27.9445 4.52134C27.9007 4.91826 27.8568 5.30654 27.7954 5.69482C27.5936 7.00636 27.1812 8.24887 26.5934 9.38783C26.0143 10.5268 25.2597 11.5622 24.3736 12.4682C24.1104 12.7357 23.8472 12.9859 23.5576 13.2275C23.4699 13.3052 23.3734 13.3828 23.2856 13.4519C22.2152 14.3406 21.101 15.1689 19.9341 15.9455C19.162 16.4546 18.3811 16.9378 17.5651 17.3951C15.8542 18.3701 14.1784 19.4142 12.5553 20.5186C12.2131 20.7516 11.8797 20.9846 11.5463 21.2175C11.4498 21.2866 11.3533 21.347 11.2655 21.416C10.9321 21.6576 10.5987 21.9078 10.2829 22.1667C7.68584 24.272 5.61523 26.9814 4.30793 30.079C4.30793 30.0876 4.29916 30.0877 4.29916 30.0963C4.24652 30.2171 4.19387 30.3379 4.15 30.4587C4.11491 30.5536 4.07981 30.6399 4.04472 30.7348C3.50074 32.193 3.20243 33.7807 3.20243 35.4201C3.20243 35.5322 3.20243 35.6358 3.20243 35.748C4.22019 31.1576 6.96639 27.1971 10.7303 24.5568C12.5816 23.2884 14.4943 22.1063 16.4684 21.0191C16.486 21.0104 16.5035 20.9932 16.5211 20.9846C20.4342 18.8361 23.9174 16.0145 26.8127 12.6839C26.6285 13.2361 26.4179 13.7711 26.2073 14.3061C25.83 15.2466 25.4089 16.1785 24.9527 17.0845C24.5403 17.9042 24.0928 18.7153 23.619 19.5005C23.2856 20.0613 22.9347 20.6049 22.5662 21.1485C17.9863 27.9219 11.1954 33.1249 3.20243 35.7566C8.7036 35.1526 13.7047 32.9523 17.7406 29.6476C17.9775 29.4491 18.2144 29.2507 18.4425 29.0522C19.3111 28.2929 20.1271 27.4818 20.8904 26.6276C21.0045 26.4982 21.1185 26.3688 21.2238 26.2393C22.2416 25.0486 23.154 23.7802 23.9437 22.4255C24.0577 22.2357 24.163 22.0545 24.2683 21.8647C24.1543 22.5204 24.0226 23.1676 23.8559 23.8061C22.8382 27.7321 20.829 31.2611 18.1003 34.1344C18.0477 34.1948 17.995 34.2466 17.9424 34.307C17.8371 34.4105 17.7406 34.5141 17.6353 34.6176C15.6261 36.559 12.9326 37.8102 9.94071 37.9914C9.87052 38 9.80033 38 9.73014 38C9.57221 38.0086 9.41428 38.0086 9.24758 38.0086H31.6383C33.9019 38.0086 35.7357 36.2053 35.7357 33.9791V4.02952C35.7532 1.80336 33.9195 0 31.6558 0Z" fill="white"/>
</g>
<defs>
<clipPath id="clip0_378_593">
<rect width="124" height="38" fill="white"/>
</clipPath>
</defs>
</svg>
